<svg width="517" height="205" viewBox="0 0 517 205" fill="none" xmlns="http://www.w3.org/2000/svg">
<path d="M172.611 139.096L147.122 139.127L147.162 171.995L111.836 172.039L111.796 139.171L27.5043 139.277L27.4738 114.906L101.132 15.5418L139.143 15.4937L70.8433 109.709L112.878 109.656L112.841 80.3655L147.048 80.3228L147.085 109.613L172.575 109.582L172.611 139.096Z" fill="#FF725E"/>
<g opacity="0.3">
<path d="M172.611 139.096L147.122 139.127L147.162 171.995L111.836 172.039L111.796 139.171L27.5043 139.277L27.4738 114.906L101.132 15.5418L139.143 15.4937L70.8433 109.709L112.878 109.656L112.841 80.3655L147.048 80.3228L147.085 109.613L172.575 109.582L172.611 139.096Z" fill="black"/>
</g>
<path d="M164.047 139.411L138.558 139.442L138.599 172.309L103.272 172.353L103.231 139.486L18.94 139.592L18.9095 115.221L92.568 15.8556L130.577 15.8077L62.2768 110.023L104.311 109.97L104.275 80.6806L138.483 80.6378L138.52 109.927L164.008 109.896L164.047 139.411Z" fill="#FF725E"/>
<path d="M203.507 92.2777C206.24 42.1347 234.396 15.1497 270.147 17.0987C306.105 19.0587 330.953 48.9337 328.218 99.0777C325.485 149.221 297.537 176.219 261.579 174.258C225.829 172.308 200.773 142.421 203.507 92.2777ZM294.338 97.2297C296.22 62.7167 285.362 47.7547 268.525 46.8367C251.896 45.9297 239.476 59.6227 237.594 94.1357C235.712 128.65 246.571 143.611 263.199 144.518C280.037 145.437 292.457 131.744 294.338 97.2297Z" fill="#FF725E"/>
<g opacity="0.3">
<path d="M203.507 92.2777C206.24 42.1347 234.396 15.1497 270.147 17.0987C306.105 19.0587 330.953 48.9337 328.218 99.0777C325.485 149.221 297.537 176.219 261.579 174.258C225.829 172.308 200.773 142.421 203.507 92.2777ZM294.338 97.2297C296.22 62.7167 285.362 47.7547 268.525 46.8367C251.896 45.9297 239.476 59.6227 237.594 94.1357C235.712 128.65 246.571 143.611 263.199 144.518C280.037 145.437 292.457 131.744 294.338 97.2297Z" fill="black"/>
</g>
<path d="M193.204 92.3237C195.938 42.1807 224.093 15.1947 259.844 17.1437C295.802 19.1037 320.65 48.9797 317.916 99.1227C315.182 149.267 287.234 176.264 251.276 174.303C215.524 172.354 190.47 142.467 193.204 92.3237ZM284.035 97.2757C285.916 62.7617 275.058 47.8007 258.222 46.8827C241.593 45.9757 229.173 59.6687 227.291 94.1817C225.41 128.696 236.267 143.658 252.896 144.564C269.733 145.482 282.153 131.789 284.035 97.2757Z" fill="#FF725E"/>
<path d="M500.583 138.676L475.097 138.37L474.702 171.236L439.378 170.811L439.774 137.945L355.488 136.933L355.78 112.564L430.751 14.1854L468.758 14.6424L399.213 107.943L441.246 108.448L441.598 79.1602L475.804 79.5723L475.452 108.86L500.939 109.167L500.583 138.676Z" fill="#FF725E"/>
<g opacity="0.3">
<path d="M500.583 138.676L475.097 138.37L474.702 171.236L439.378 170.811L439.774 137.945L355.488 136.933L355.78 112.564L430.751 14.1854L468.758 14.6424L399.213 107.943L441.246 108.448L441.598 79.1602L475.804 79.5723L475.452 108.86L500.939 109.167L500.583 138.676Z" fill="black"/>
</g>
<path d="M490.982 138.682L465.495 138.375L465.1 171.241L429.778 170.816L430.172 137.951L345.886 136.939L346.179 112.568L421.149 14.1903L459.156 14.6471L389.613 107.947L431.644 108.453L431.996 79.1652L466.202 79.5763L465.85 108.864L491.337 109.17L490.982 138.682Z" fill="#FF725E"/>
</svg>
