<svg width="1060" height="339" viewBox="0 0 1060 339" fill="none" xmlns="http://www.w3.org/2000/svg">
<path d="M-7.22587e-06 82.6543C-4.84783e-06 55.4527 -3.65881e-06 41.8519 8.23133 33.4057C16.4627 24.9594 30.3113 24.6023 58.0086 23.8883C219.523 19.7242 362.931 3.17284e-05 530 4.63341e-05C697.418 6.09702e-05 839.849 19.7448 1001.99 23.8948C1029.69 24.6037 1043.53 24.9582 1051.77 33.4048C1060 41.8514 1060 55.4525 1060 82.6545L1060 260.042C1060 287.265 1060 300.876 1051.75 309.326C1043.5 317.776 1029.67 318.105 1002.01 318.761C846.899 322.442 687.801 339 530 339C369.465 339 210.273 322.519 57.9875 318.787C30.3214 318.109 16.4884 317.77 8.24418 309.321C-2.63031e-05 300.872 -2.51133e-05 287.262 -2.27336e-05 260.042L-7.22587e-06 82.6543Z" fill="white"/>
<mask id="mask0_4133_6" style="mask-type:alpha" maskUnits="userSpaceOnUse" x="0" y="0" width="1060" height="339">
<path d="M-7.22587e-06 82.6543C-4.84783e-06 55.4527 -3.65881e-06 41.8519 8.23133 33.4057C16.4627 24.9594 30.3113 24.6023 58.0086 23.8883C219.523 19.7242 362.931 3.17284e-05 530 4.63341e-05C697.418 6.09702e-05 839.849 19.7448 1001.99 23.8948C1029.69 24.6037 1043.53 24.9582 1051.77 33.4048C1060 41.8514 1060 55.4525 1060 82.6545L1060 260.042C1060 287.265 1060 300.876 1051.75 309.326C1043.5 317.776 1029.67 318.105 1002.01 318.761C846.899 322.442 687.801 339 530 339C369.465 339 210.273 322.519 57.9875 318.787C30.3214 318.109 16.4884 317.77 8.24418 309.321C-2.63031e-05 300.872 -2.51133e-05 287.262 -2.27336e-05 260.042L-7.22587e-06 82.6543Z" fill="white"/>
</mask>
<g mask="url(#mask0_4133_6)">
<path opacity="0.18" d="M122.361 18.06C138.741 18.06 151.971 21.21 162.051 27.51C172.311 33.81 177.441 42.54 177.441 53.7C177.441 65.94 171.501 75.93 159.621 83.67C147.741 91.23 133.071 96.09 115.611 98.25C135.591 98.25 152.601 101.85 166.641 109.05C180.681 116.25 187.701 127.05 187.701 141.45C187.701 156.57 180.681 168.45 166.641 177.09C152.601 185.55 133.431 189.78 109.131 189.78C91.4913 189.78 77.5413 186.81 67.2813 180.87C63.1413 178.35 59.9013 175.29 57.5613 171.69C55.2213 168.09 54.0513 164.22 54.0513 160.08C54.0513 154.5 55.8513 150 59.4513 146.58C63.2313 142.98 68.2713 141.18 74.5713 141.18C80.8713 141.18 86.0013 142.89 89.9613 146.31C94.1013 149.73 96.1713 154.32 96.1713 160.08C96.1713 164.94 94.6413 169.08 91.5813 172.5C88.5213 175.74 84.6513 177.99 79.9713 179.25C81.7713 180.69 84.9213 181.95 89.4213 183.03C93.9213 184.11 98.6013 184.65 103.461 184.65C117.321 184.65 127.671 180.87 134.511 173.31C141.351 165.75 144.771 155.58 144.771 142.8C144.771 132.54 142.611 123.72 138.291 116.34C134.151 108.96 128.211 104.19 120.471 102.03C117.771 101.13 114.711 100.68 111.291 100.68C106.971 103.02 103.101 104.19 99.6813 104.19C95.9013 104.19 94.0113 102.66 94.0113 99.6C94.0113 96.72 95.9913 95.28 99.9513 95.28C102.651 95.28 106.521 95.82 111.561 96.9C119.841 93.84 125.691 89.16 129.111 82.86C132.531 76.56 134.241 68.19 134.241 57.75C134.241 46.59 132.351 38.4 128.571 33.18C124.971 27.96 118.941 25.35 110.481 25.35C98.9613 25.35 89.7813 29.76 82.9413 38.58C76.2813 47.4 72.5013 59.19 71.6013 73.95H65.3913C65.3913 48.39 64.9413 30.39 64.0413 19.95H70.2513C70.7913 24.09 71.5113 27.15 72.4113 29.13C73.3113 30.93 74.6613 31.83 76.4613 31.83C78.4413 31.83 81.4113 30.66 85.3713 28.32C90.7713 25.08 96.0813 22.56 101.301 20.76C106.521 18.96 113.541 18.06 122.361 18.06ZM369.378 163.32C374.598 174.48 380.268 180.24 386.388 180.6V186C377.748 185.46 365.958 185.19 351.018 185.19C331.758 185.19 317.538 185.46 308.358 186V180.6C314.298 180.24 318.708 179.34 321.588 177.9C324.468 176.28 325.908 173.67 325.908 170.07C325.908 166.83 324.738 162.78 322.398 157.92L308.898 127.14H252.198L248.958 134.43C243.918 146.31 241.398 155.58 241.398 162.24C241.398 168.36 243.378 172.86 247.338 175.74C251.298 178.62 257.148 180.24 264.888 180.6V186C254.628 185.46 244.278 185.19 233.838 185.19C224.118 185.19 216.828 185.46 211.967 186V180.6C216.287 179.7 220.248 177 223.847 172.5C227.628 167.82 231.588 160.89 235.728 151.71L292.698 21.3C294.138 21.48 296.208 21.57 298.908 21.57C301.788 21.57 303.858 21.48 305.118 21.3L369.378 163.32ZM306.468 121.74L280.548 62.61L254.627 121.74H306.468ZM634.235 27.24C627.755 27.6 622.985 28.32 619.925 29.4C617.045 30.48 615.065 32.55 613.985 35.61C612.905 38.67 612.365 43.62 612.365 50.46V157.38C612.365 164.22 612.905 169.17 613.985 172.23C615.065 175.29 617.045 177.36 619.925 178.44C622.985 179.52 627.755 180.24 634.235 180.6V186C624.515 185.46 610.925 185.19 593.465 185.19C572.585 185.19 557.285 185.46 547.565 186V180.6C554.045 180.24 558.725 179.52 561.605 178.44C564.665 177.36 566.735 175.29 567.815 172.23C568.895 169.17 569.435 164.22 569.435 157.38V38.85L507.605 187.35H503.285L440.645 39.12V149.82C440.645 157.74 441.365 163.77 442.805 167.91C444.245 171.87 446.855 174.75 450.635 176.55C454.595 178.35 460.535 179.7 468.455 180.6V186C460.715 185.46 450.455 185.19 437.675 185.19C427.775 185.19 419.945 185.46 414.185 186V180.6C420.125 179.7 424.445 178.35 427.145 176.55C430.025 174.75 431.915 171.87 432.815 167.91C433.895 163.95 434.435 157.92 434.435 149.82V50.46C434.435 43.62 433.895 38.67 432.815 35.61C431.735 32.55 429.665 30.48 426.605 29.4C423.725 28.32 419.045 27.6 412.565 27.24V21.84C421.925 22.38 436.235 22.65 455.495 22.65C464.855 22.65 472.865 22.38 479.525 21.84L524.345 129.57L569.435 22.65H593.465C610.925 22.65 624.515 22.38 634.235 21.84V27.24ZM812.931 150.9C812.931 161.16 813.561 172.86 814.821 186C803.121 185.46 783.411 185.19 755.691 185.19C718.611 185.19 690.711 185.46 671.991 186V180.6C678.111 180.24 682.521 179.52 685.221 178.44C687.921 177.36 689.721 175.29 690.621 172.23C691.701 169.17 692.241 164.22 692.241 157.38V50.46C692.241 43.62 691.701 38.67 690.621 35.61C689.721 32.55 687.831 30.48 684.951 29.4C682.251 28.32 677.931 27.6 671.991 27.24V21.84C690.711 22.38 718.611 22.65 755.691 22.65C780.891 22.65 798.801 22.38 809.421 21.84C808.161 33.9 807.531 44.7 807.531 54.24C807.531 61.26 807.801 66.84 808.341 70.98H802.131C799.431 55.5 794.751 44.52 788.091 38.04C781.431 31.38 772.251 28.05 760.551 28.05H750.561C745.881 28.05 742.371 28.5 740.031 29.4C737.691 30.12 735.981 31.74 734.901 34.26C734.001 36.6 733.551 40.38 733.551 45.6V100.68H746.241C754.521 100.68 760.731 97.8 764.871 92.04C769.191 86.1 772.071 79.26 773.511 71.52H779.721C779.181 77.64 778.911 84.66 778.911 92.58V103.38C778.911 111.48 779.451 122.1 780.531 135.24H774.321C773.061 126.78 770.181 119.85 765.681 114.45C761.361 108.87 754.881 106.08 746.241 106.08H733.551V162.24C733.551 167.46 734.001 171.33 734.901 173.85C735.981 176.19 737.691 177.81 740.031 178.71C742.371 179.43 745.881 179.79 750.561 179.79H762.171C774.951 179.79 784.941 176.1 792.141 168.72C799.521 161.34 804.651 148.92 807.531 131.46H813.741C813.201 136.5 812.931 142.98 812.931 150.9ZM918.332 119.58V157.38C918.332 164.22 918.872 169.17 919.952 172.23C921.032 175.29 923.012 177.36 925.892 178.44C928.952 179.52 933.722 180.24 940.202 180.6V186C929.762 185.46 914.552 185.19 894.572 185.19C877.832 185.19 865.232 185.46 856.772 186V180.6C862.892 180.24 867.302 179.52 870.002 178.44C872.702 177.36 874.502 175.29 875.402 172.23C876.482 169.17 877.022 164.22 877.022 157.38V50.46C877.022 43.62 876.482 38.67 875.402 35.61C874.502 32.55 872.612 30.48 869.732 29.4C867.032 28.32 862.712 27.6 856.772 27.24V21.84C865.232 22.38 877.292 22.65 892.952 22.65L925.622 22.38C929.402 22.2 933.722 22.11 938.582 22.11C961.982 22.11 979.352 26.07 990.692 33.99C1002.21 41.73 1007.97 52.8 1007.97 67.2C1007.97 81.78 1001.94 94.2 989.882 104.46C978.002 114.54 958.022 119.58 929.942 119.58H918.332ZM935.072 27.24C930.392 27.24 926.882 27.87 924.542 29.13C922.202 30.39 920.582 32.64 919.682 35.88C918.782 39.12 918.332 43.98 918.332 50.46V114.18H927.242C941.462 114.18 951.272 110.22 956.672 102.3C962.072 94.38 964.772 83.67 964.772 70.17C964.772 55.59 962.432 44.79 957.752 37.77C953.252 30.75 945.692 27.24 935.072 27.24Z" fill="url(#paint0_linear_4133_6)"/>
</g>
<defs>
<linearGradient id="paint0_linear_4133_6" x1="530.5" y1="127.5" x2="530.5" y2="185.182" gradientUnits="userSpaceOnUse">
<stop stop-color="#A89E94"/>
<stop offset="1" stop-color="#A1998D" stop-opacity="0"/>
</linearGradient>
</defs>
</svg>
