<svg width="1060" height="340" viewBox="0 0 1060 340" fill="none" xmlns="http://www.w3.org/2000/svg">
<path d="M-7.22587e-06 82.9453C-4.84783e-06 55.7438 -3.65881e-06 42.143 8.23133 33.6967C16.4627 25.2504 30.3113 24.8934 58.0086 24.1793C219.523 20.0152 362.931 0.291047 530 0.291062C697.418 0.291077 839.849 20.0358 1001.99 24.1859C1029.69 24.8947 1043.53 25.2492 1051.77 33.6958C1060 42.1425 1060 55.7435 1060 82.9455L1060 260.333C1060 287.556 1060 301.167 1051.75 309.617C1043.5 318.067 1029.67 318.396 1002.01 319.052C846.899 322.733 687.801 339.291 530 339.291C369.465 339.291 210.273 322.81 57.9875 319.078C30.3214 318.4 16.4884 318.061 8.24418 309.612C-2.63031e-05 301.163 -2.51133e-05 287.553 -2.27336e-05 260.333L-7.22587e-06 82.9453Z" fill="white"/>
<mask id="mask0_3227_6" style="mask-type:alpha" maskUnits="userSpaceOnUse" x="0" y="0" width="1060" height="340">
<path d="M-7.22587e-06 82.9453C-4.84783e-06 55.7438 -3.65881e-06 42.143 8.23133 33.6967C16.4627 25.2504 30.3113 24.8934 58.0086 24.1793C219.523 20.0152 362.931 0.291047 530 0.291062C697.418 0.291077 839.849 20.0358 1001.99 24.1859C1029.69 24.8947 1043.53 25.2492 1051.77 33.6958C1060 42.1425 1060 55.7435 1060 82.9455L1060 260.333C1060 287.556 1060 301.167 1051.75 309.617C1043.5 318.067 1029.67 318.396 1002.01 319.052C846.899 322.733 687.801 339.291 530 339.291C369.465 339.291 210.273 322.81 57.9875 319.078C30.3214 318.4 16.4884 318.061 8.24418 309.612C-2.63031e-05 301.163 -2.51133e-05 287.553 -2.27336e-05 260.333L-7.22587e-06 82.9453Z" fill="white"/>
</mask>
<g mask="url(#mask0_3227_6)">
<path opacity="0.18" d="M70.2686 13.231C84.222 13.231 95.492 15.9143 104.079 21.281C112.819 26.6477 117.189 34.0843 117.189 43.591C117.189 54.0177 112.129 62.5277 102.009 69.121C91.8886 75.561 79.392 79.701 64.5186 81.541C81.5386 81.541 96.0286 84.6077 107.989 90.741C119.949 96.8743 125.929 106.074 125.929 118.341C125.929 131.221 119.949 141.341 107.989 148.701C96.0286 155.908 79.6986 159.511 58.9986 159.511C43.972 159.511 32.0886 156.981 23.3486 151.921C19.822 149.774 17.062 147.168 15.0686 144.101C13.0753 141.034 12.0786 137.738 12.0786 134.211C12.0786 129.458 13.612 125.624 16.6786 122.711C19.8986 119.644 24.192 118.111 29.5586 118.111C34.9253 118.111 39.2953 119.568 42.6686 122.481C46.1953 125.394 47.9586 129.304 47.9586 134.211C47.9586 138.351 46.6553 141.878 44.0486 144.791C41.442 147.551 38.1453 149.468 34.1586 150.541C35.692 151.768 38.3753 152.841 42.2086 153.761C46.042 154.681 50.0286 155.141 54.1686 155.141C65.9753 155.141 74.792 151.921 80.6186 145.481C86.4453 139.041 89.3586 130.378 89.3586 119.491C89.3586 110.751 87.5186 103.238 83.8386 96.951C80.312 90.6643 75.252 86.601 68.6586 84.761C66.3586 83.9943 63.752 83.611 60.8386 83.611C57.1586 85.6043 53.862 86.601 50.9486 86.601C47.7286 86.601 46.1186 85.2977 46.1186 82.691C46.1186 80.2377 47.8053 79.011 51.1786 79.011C53.4786 79.011 56.7753 79.471 61.0686 80.391C68.122 77.7843 73.1053 73.7977 76.0186 68.431C78.932 63.0643 80.3886 55.9343 80.3886 47.041C80.3886 37.5343 78.7786 30.5577 75.5586 26.111C72.492 21.6643 67.3553 19.441 60.1486 19.441C50.3353 19.441 42.5153 23.1977 36.6886 30.711C31.0153 38.2243 27.7953 48.2677 27.0286 60.841H21.7386C21.7386 39.0677 21.3553 23.7343 20.5886 14.841H25.8786C26.3386 18.3677 26.952 20.9743 27.7186 22.661C28.4853 24.1943 29.6353 24.961 31.1686 24.961C32.8553 24.961 35.3853 23.9643 38.7586 21.971C43.3586 19.211 47.882 17.0643 52.3286 15.531C56.7753 13.9977 62.7553 13.231 70.2686 13.231ZM238.808 81.771C258.128 83.7643 271.775 87.981 279.748 94.421C287.722 100.861 291.708 108.911 291.708 118.571C291.708 130.378 286.418 139.654 275.838 146.401C265.258 152.994 250.155 156.291 230.528 156.291C226.235 156.291 222.555 156.214 219.488 156.061C209.062 155.754 198.942 155.601 189.128 155.601C175.482 155.601 165.055 155.831 157.848 156.291V151.691C163.062 151.384 166.818 150.771 169.118 149.851C171.418 148.931 172.952 147.168 173.718 144.561C174.638 141.954 175.098 137.738 175.098 131.911V40.831C175.098 35.0043 174.638 30.7877 173.718 28.181C172.952 25.5743 171.418 23.811 169.118 22.891C166.818 21.971 163.062 21.3577 157.848 21.051V16.451C165.055 16.911 175.328 17.141 188.668 17.141L214.888 16.911C217.955 16.7577 221.405 16.681 225.238 16.681C243.638 16.681 257.285 19.441 266.178 24.961C275.225 30.3277 279.748 38.071 279.748 48.191C279.748 56.011 276.528 62.7577 270.088 68.431C263.648 73.951 253.222 78.2443 238.808 81.311V81.771ZM222.248 21.051C218.875 21.051 216.345 21.5877 214.658 22.661C212.972 23.7343 211.822 25.651 211.208 28.411C210.595 31.171 210.288 35.311 210.288 40.831V81.311H217.878C227.692 81.311 234.438 78.6277 238.118 73.261C241.952 67.8943 243.868 60.381 243.868 50.721C243.868 40.7543 242.182 33.3177 238.808 28.411C235.435 23.5043 229.915 21.051 222.248 21.051ZM222.478 151.001C233.672 151.001 241.875 148.241 247.088 142.721C252.302 137.048 254.908 128.691 254.908 117.651C254.908 106.918 252.225 98.8677 246.858 93.501C241.645 87.981 233.288 85.221 221.788 85.221H210.288V131.911C210.288 137.431 210.595 141.494 211.208 144.101C211.822 146.708 212.972 148.548 214.658 149.621C216.345 150.541 218.952 151.001 222.478 151.001ZM404.044 13.231C419.53 13.231 433.1 16.0677 444.754 21.741C456.407 27.261 465.454 35.4643 471.894 46.351C478.334 57.0843 481.554 69.9643 481.554 84.991C481.554 99.711 478.257 112.744 471.664 124.091C465.07 135.284 455.87 144.024 444.064 150.311C432.257 156.444 418.84 159.511 403.814 159.511C388.327 159.511 374.757 156.751 363.104 151.231C351.45 145.558 342.404 137.354 335.964 126.621C329.524 115.734 326.304 102.778 326.304 87.751C326.304 73.031 329.6 60.0743 336.194 48.881C342.787 37.5343 351.987 28.7943 363.794 22.661C375.6 16.3743 389.017 13.231 404.044 13.231ZM403.124 17.371C395.15 17.371 388.097 20.361 381.964 26.341C375.984 32.1677 371.307 40.371 367.934 50.951C364.714 61.3777 363.104 73.3377 363.104 86.831C363.104 100.478 364.944 112.514 368.624 122.941C372.304 133.368 377.287 141.418 383.574 147.091C390.014 152.611 397.067 155.371 404.734 155.371C412.707 155.371 419.684 152.458 425.664 146.631C431.797 140.651 436.474 132.448 439.694 122.021C443.067 111.441 444.754 99.4043 444.754 85.911C444.754 72.2643 442.914 60.2277 439.234 49.801C435.554 39.3743 430.494 31.401 424.054 25.881C417.767 20.2077 410.79 17.371 403.124 17.371ZM678.204 21.051C672.99 21.3577 669.234 21.971 666.934 22.891C664.634 23.811 663.024 25.5743 662.104 28.181C661.337 30.7877 660.954 35.0043 660.954 40.831V131.911C660.954 137.738 661.337 141.954 662.104 144.561C663.024 147.168 664.634 148.931 666.934 149.851C669.387 150.771 673.144 151.384 678.204 151.691V156.291C671.15 155.831 659.957 155.601 644.624 155.601C629.137 155.601 617.1 155.831 608.514 156.291V151.691C613.727 151.384 617.484 150.771 619.784 149.851C622.084 148.931 623.617 147.168 624.384 144.561C625.304 141.954 625.764 137.738 625.764 131.911V87.291H566.654V131.911C566.654 137.738 567.037 141.954 567.804 144.561C568.724 147.168 570.334 148.931 572.634 149.851C575.087 150.771 578.844 151.384 583.904 151.691V156.291C575.47 155.831 563.434 155.601 547.794 155.601C532.767 155.601 521.574 155.831 514.214 156.291V151.691C519.427 151.384 523.184 150.771 525.484 149.851C527.784 148.931 529.317 147.168 530.084 144.561C531.004 141.954 531.464 137.738 531.464 131.911V40.831C531.464 35.0043 531.004 30.7877 530.084 28.181C529.317 25.5743 527.707 23.811 525.254 22.891C522.954 21.971 519.274 21.3577 514.214 21.051V16.451C521.574 16.911 532.767 17.141 547.794 17.141C563.434 17.141 575.47 16.911 583.904 16.451V21.051C578.69 21.3577 574.934 21.971 572.634 22.891C570.334 23.811 568.724 25.5743 567.804 28.181C567.037 30.7877 566.654 35.0043 566.654 40.831V82.691H625.764V40.831C625.764 35.0043 625.304 30.7877 624.384 28.181C623.617 25.5743 622.007 23.811 619.554 22.891C617.254 21.971 613.574 21.3577 608.514 21.051V16.451C617.1 16.911 629.137 17.141 644.624 17.141C659.957 17.141 671.15 16.911 678.204 16.451V21.051ZM788.71 13.231C804.196 13.231 817.766 16.0677 829.42 21.741C841.073 27.261 850.12 35.4643 856.56 46.351C863 57.0843 866.22 69.9643 866.22 84.991C866.22 99.711 862.923 112.744 856.33 124.091C849.736 135.284 840.536 144.024 828.73 150.311C816.923 156.444 803.506 159.511 788.48 159.511C772.993 159.511 759.423 156.751 747.77 151.231C736.116 145.558 727.07 137.354 720.63 126.621C714.19 115.734 710.97 102.778 710.97 87.751C710.97 73.031 714.266 60.0743 720.86 48.881C727.453 37.5343 736.653 28.7943 748.46 22.661C760.266 16.3743 773.683 13.231 788.71 13.231ZM787.79 17.371C779.816 17.371 772.763 20.361 766.63 26.341C760.65 32.1677 755.973 40.371 752.6 50.951C749.38 61.3777 747.77 73.3377 747.77 86.831C747.77 100.478 749.61 112.514 753.29 122.941C756.97 133.368 761.953 141.418 768.24 147.091C774.68 152.611 781.733 155.371 789.4 155.371C797.373 155.371 804.35 152.458 810.33 146.631C816.463 140.651 821.14 132.448 824.36 122.021C827.733 111.441 829.42 99.4043 829.42 85.911C829.42 72.2643 827.58 60.2277 823.9 49.801C820.22 39.3743 815.16 31.401 808.72 25.881C802.433 20.2077 795.456 17.371 787.79 17.371ZM1050.68 146.171C1046.85 150.771 1042.55 154.144 1037.8 156.291C1033.05 158.438 1027.22 159.511 1020.32 159.511C1012.04 159.511 1005.37 157.748 1000.31 154.221C995.25 150.694 991.723 144.178 989.73 134.671L983.75 107.991C982.523 102.778 981.066 98.6377 979.38 95.571C977.846 92.351 975.24 89.7443 971.56 87.751C968.033 85.7577 963.126 84.761 956.84 84.761H951.32V131.911C951.32 137.738 951.703 141.954 952.47 144.561C953.39 147.168 955 148.931 957.3 149.851C959.6 150.771 963.356 151.384 968.57 151.691V156.291C960.75 155.831 949.403 155.601 934.53 155.601C918.43 155.601 906.546 155.831 898.88 156.291V151.691C904.093 151.384 907.85 150.771 910.15 149.851C912.45 148.931 913.983 147.168 914.75 144.561C915.67 141.954 916.13 137.738 916.13 131.911V40.831C916.13 35.0043 915.67 30.7877 914.75 28.181C913.983 25.5743 912.373 23.811 909.92 22.891C907.62 21.971 903.94 21.3577 898.88 21.051V16.451C906.393 16.911 918.276 17.141 934.53 17.141C949.403 17.141 960.75 16.911 968.57 16.451V21.051C963.356 21.3577 959.6 21.971 957.3 22.891C955 23.811 953.39 25.5743 952.47 28.181C951.703 30.7877 951.32 35.0043 951.32 40.831V80.391C957.913 79.6243 963.663 78.0143 968.57 75.561C973.63 73.1077 978.843 69.0443 984.21 63.371L997.09 49.571C1002.46 43.7443 1005.14 38.3777 1005.14 33.471C1005.14 29.791 1003.68 26.8777 1000.77 24.731C997.856 22.431 994.023 21.1277 989.27 20.821V16.451C1000.31 16.911 1011.5 17.141 1022.85 17.141C1032.2 17.141 1039.64 16.911 1045.16 16.451V20.821C1039.79 22.0477 1034.58 24.1943 1029.52 27.261C1024.61 30.1743 1019.4 34.3143 1013.88 39.681L971.56 81.311C984.593 82.231 995.556 84.8377 1004.45 89.131C1013.34 93.4243 1019.17 100.708 1021.93 110.981L1027.22 132.141C1028.91 138.734 1030.52 143.181 1032.05 145.481C1033.74 147.628 1035.81 148.701 1038.26 148.701C1040.1 148.548 1041.71 148.088 1043.09 147.321C1044.47 146.401 1045.93 145.098 1047.46 143.411L1050.68 146.171Z" fill="url(#paint0_linear_3227_6)"/>
</g>
<defs>
<linearGradient id="paint0_linear_3227_6" x1="530" y1="60.331" x2="530" y2="155.927" gradientUnits="userSpaceOnUse">
<stop stop-color="#A89E94"/>
<stop offset="1" stop-color="#A1998D" stop-opacity="0"/>
</linearGradient>
</defs>
</svg>
