<svg width="1060" height="340" viewBox="0 0 1060 340" fill="none" xmlns="http://www.w3.org/2000/svg">
<path d="M-7.22587e-06 83.2364C-4.84783e-06 56.0348 -3.65881e-06 42.434 8.23133 33.9877C16.4627 25.5414 30.3113 25.1844 58.0086 24.4703C219.523 20.3062 362.931 0.582063 530 0.582078C697.418 0.582092 839.849 20.3269 1001.99 24.4769C1029.69 25.1857 1043.53 25.5402 1051.77 33.9868C1060 42.4335 1060 56.0345 1060 83.2365L1060 260.624C1060 287.847 1060 301.458 1051.75 309.908C1043.5 318.358 1029.67 318.687 1002.01 319.343C846.899 323.024 687.801 339.582 530 339.582C369.465 339.582 210.273 323.101 57.9875 319.369C30.3214 318.691 16.4884 318.352 8.24418 309.903C-2.63031e-05 301.454 -2.51133e-05 287.844 -2.27336e-05 260.624L-7.22587e-06 83.2364Z" fill="white"/>
<mask id="mask0_2628_80" style="mask-type:alpha" maskUnits="userSpaceOnUse" x="0" y="0" width="1060" height="340">
<path d="M-7.22587e-06 83.2364C-4.84783e-06 56.0348 -3.65881e-06 42.434 8.23133 33.9877C16.4627 25.5414 30.3113 25.1844 58.0086 24.4703C219.523 20.3062 362.931 0.582063 530 0.582078C697.418 0.582092 839.849 20.3269 1001.99 24.4769C1029.69 25.1857 1043.53 25.5402 1051.77 33.9868C1060 42.4335 1060 56.0345 1060 83.2365L1060 260.624C1060 287.847 1060 301.458 1051.75 309.908C1043.5 318.358 1029.67 318.687 1002.01 319.343C846.899 323.024 687.801 339.582 530 339.582C369.465 339.582 210.273 323.101 57.9875 319.369C30.3214 318.691 16.4884 318.352 8.24418 309.903C-2.63031e-05 301.454 -2.51133e-05 287.844 -2.27336e-05 260.624L-7.22587e-06 83.2364Z" fill="white"/>
</mask>
<g mask="url(#mask0_2628_80)">
<path opacity="0.18" d="M137.121 -2.91798C154.288 -2.91798 168.038 0.498683 178.371 7.33202C188.871 13.9987 194.121 23.1654 194.121 34.832C193.954 47.4987 187.954 57.9987 176.121 66.332C164.454 74.6654 151.038 80.4987 135.871 83.832C147.038 83.9987 157.788 85.832 168.121 89.332C178.621 92.832 187.121 98.082 193.621 105.082C200.288 111.915 203.621 120.249 203.621 130.082C203.621 140.582 199.871 149.749 192.371 157.582C185.038 165.249 175.371 171.082 163.371 175.082C151.538 179.082 138.871 181.082 125.371 181.082C106.371 181.082 91.3711 177.165 80.3711 169.332C76.3711 166.499 73.0378 163.165 70.3711 159.332C67.8711 155.332 66.6211 150.999 66.6211 146.332C66.6211 140.165 68.6211 135.249 72.6211 131.582C76.7878 127.749 81.8711 125.832 87.8711 125.832C93.8711 125.832 98.6211 127.582 102.121 131.082C105.788 134.582 107.621 139.499 107.621 145.832C107.621 150.999 105.871 155.499 102.371 159.332C99.0378 162.999 94.3711 165.499 88.3711 166.832C91.5378 169.499 96.0378 171.665 101.871 173.332C107.704 174.832 114.204 175.582 121.371 175.582C135.204 175.582 145.954 171.749 153.621 164.082C161.454 156.249 165.371 145.082 165.371 130.582C165.371 118.249 162.538 107.915 156.871 99.582C151.204 91.082 142.871 86.582 131.871 86.082C127.871 88.2487 124.288 89.332 121.121 89.332C119.621 89.332 118.371 88.9987 117.371 88.332C116.371 87.4987 115.871 86.4154 115.871 85.082C115.871 82.4154 117.788 81.082 121.621 81.082C123.954 81.082 127.454 81.582 132.121 82.582C140.788 79.082 146.871 73.582 150.371 66.082C153.871 58.582 155.621 49.6654 155.621 39.332C155.621 27.1654 153.288 18.332 148.621 12.832C143.954 7.16536 137.038 4.33203 127.871 4.33203C114.538 4.33203 104.204 9.33203 96.8711 19.332C89.5378 29.332 85.3711 42.1654 84.3711 57.832H78.6211C78.6211 29.332 78.2878 9.99869 77.6211 -0.167975H83.3711C83.8711 4.66536 84.5378 8.16536 85.3711 10.332C86.3711 12.332 87.7878 13.332 89.6211 13.332C90.4544 13.332 91.3711 13.082 92.3711 12.582C93.3711 12.082 94.4544 11.4154 95.6211 10.582C102.121 5.91535 108.121 2.49869 113.621 0.332018C119.288 -1.83465 127.121 -2.91798 137.121 -2.91798ZM379.088 156.582C381.255 162.082 383.755 166.082 386.588 168.582C389.421 171.082 392.171 172.415 394.838 172.582V177.582C384.838 177.082 372.171 176.832 356.838 176.832C339.838 176.832 327.171 177.082 318.838 177.582V172.582C325.171 172.249 329.671 171.499 332.338 170.332C335.005 168.999 336.338 166.749 336.338 163.582C336.338 160.582 335.338 156.582 333.338 151.582L318.338 110.582H263.838L257.338 127.832C252.671 139.832 250.338 149.082 250.338 155.582C250.338 161.749 252.171 166.082 255.838 168.582C259.671 170.915 265.255 172.249 272.588 172.582V177.582C261.255 177.082 250.921 176.832 241.588 176.832C233.921 176.832 227.588 177.082 222.588 177.582V172.582C230.755 171.082 237.921 162.332 244.088 146.332L301.088 0.0820217C302.921 0.248686 305.838 0.332018 309.838 0.332018C313.838 0.332018 316.671 0.248686 318.338 0.0820217L379.088 156.582ZM316.588 105.582L291.838 38.082L265.838 105.582H316.588ZM635.336 5.58203C629.669 5.91535 625.586 6.58202 623.086 7.58203C620.586 8.58203 618.836 10.4987 617.836 13.332C617.003 16.1654 616.586 20.7487 616.586 27.082V151.082C616.586 157.415 617.003 161.999 617.836 164.832C618.836 167.665 620.586 169.582 623.086 170.582C625.753 171.582 629.836 172.249 635.336 172.582V177.582C626.169 177.082 613.086 176.832 596.086 176.832C578.253 176.832 565.086 177.082 556.586 177.582V172.582C562.586 172.249 566.919 171.582 569.586 170.582C572.419 169.582 574.336 167.665 575.336 164.832C576.336 161.999 576.836 157.415 576.836 151.082V20.332L516.586 177.832H512.586L445.086 16.832V136.582C445.086 146.415 445.586 153.665 446.586 158.332C447.586 162.832 449.753 166.165 453.086 168.332C456.419 170.332 461.836 171.749 469.336 172.582V177.582C462.836 177.082 453.836 176.832 442.336 176.832C433.169 176.832 425.919 177.082 420.586 177.582V172.582C426.086 171.749 430.086 170.332 432.586 168.332C435.253 166.332 437.003 163.165 437.836 158.832C438.836 154.499 439.336 148.082 439.336 139.582V27.082C439.336 20.7487 438.836 16.1654 437.836 13.332C437.003 10.4987 435.253 8.58203 432.586 7.58203C430.086 6.58202 426.086 5.91535 420.586 5.58203V0.58203C425.919 1.08202 433.169 1.33202 442.336 1.33202C457.669 1.33202 470.836 1.08202 481.836 0.58203L532.336 122.332L578.336 1.33202H596.086C613.086 1.33202 626.169 1.08202 635.336 0.58203V5.58203ZM807.775 139.582C807.775 154.915 808.359 167.582 809.525 177.582C798.192 177.082 779.109 176.832 752.275 176.832C715.942 176.832 688.775 177.082 670.775 177.582V172.582C676.275 172.249 680.275 171.582 682.775 170.582C685.442 169.582 687.192 167.665 688.025 164.832C689.025 161.999 689.525 157.415 689.525 151.082V27.082C689.525 20.7487 689.025 16.1654 688.025 13.332C687.192 10.4987 685.442 8.58203 682.775 7.58203C680.275 6.58202 676.275 5.91535 670.775 5.58203V0.58203C688.775 1.08202 715.942 1.33202 752.275 1.33202C776.775 1.33202 794.192 1.08202 804.525 0.58203C803.359 14.4154 802.775 26.7487 802.775 37.582C802.775 44.9154 803.025 50.582 803.525 54.582H797.775C795.275 36.7487 790.775 24.2487 784.275 17.082C777.775 9.91535 768.609 6.33202 756.775 6.33202H746.525C741.359 6.33202 737.609 6.74869 735.275 7.58203C732.942 8.41536 731.359 10.082 730.525 12.582C729.692 14.9154 729.275 18.7487 729.275 24.082V86.082H737.275C746.109 86.082 752.775 82.832 757.275 76.332C761.942 69.832 765.192 62.082 767.025 53.082H772.775C772.275 60.082 772.025 67.9154 772.025 76.582V88.582C772.025 97.082 772.525 108.915 773.525 124.082H767.775C764.275 102.082 754.109 91.082 737.275 91.082H729.275V154.082C729.275 159.415 729.692 163.332 730.525 165.832C731.359 168.165 732.942 169.749 735.275 170.582C737.609 171.415 741.359 171.832 746.525 171.832H758.775C770.609 171.832 780.109 167.832 787.275 159.832C794.609 151.665 799.775 137.915 802.775 118.582H808.525C808.025 124.082 807.775 131.082 807.775 139.582ZM906.473 106.082V149.582C906.473 156.249 907.139 161.165 908.473 164.332C909.973 167.332 912.473 169.332 915.973 170.332C919.639 171.332 925.389 171.915 933.223 172.082V177.582C912.723 177.082 897.473 176.832 887.473 176.832C879.139 176.832 868.639 176.999 855.973 177.332L847.973 177.582V172.582C853.473 172.249 857.473 171.582 859.973 170.582C862.639 169.582 864.389 167.665 865.223 164.832C866.223 161.999 866.723 157.415 866.723 151.082V27.082C866.723 20.7487 866.223 16.1654 865.223 13.332C864.389 10.4987 862.639 8.58203 859.973 7.58203C857.473 6.58202 853.473 5.91535 847.973 5.58203V0.58203C856.473 1.08202 869.139 1.33202 885.973 1.33202L913.723 1.08202C917.056 0.915359 920.889 0.832027 925.223 0.832027C947.723 0.832027 964.889 5.33202 976.723 14.332C988.556 23.1654 994.473 35.082 994.473 50.082C994.473 59.2487 992.139 68.082 987.473 76.582C982.806 84.9154 974.889 91.9154 963.723 97.582C952.723 103.249 938.056 106.082 919.723 106.082H906.473ZM921.973 5.58203C917.473 5.58203 914.139 6.16536 911.973 7.33202C909.973 8.49869 908.556 10.582 907.723 13.582C906.889 16.582 906.473 21.082 906.473 27.082V101.082H917.223C930.723 101.082 940.056 96.7487 945.223 88.082C950.389 79.4154 952.973 67.6654 952.973 52.832C952.973 36.6654 950.556 24.7487 945.723 17.082C941.056 9.41536 933.139 5.58203 921.973 5.58203Z" fill="url(#paint0_linear_2628_80)"/>
</g>
<defs>
<linearGradient id="paint0_linear_2628_80" x1="530" y1="73.582" x2="530" y2="177.491" gradientUnits="userSpaceOnUse">
<stop stop-color="#A89E94"/>
<stop offset="1" stop-color="#A1998D" stop-opacity="0"/>
</linearGradient>
</defs>
</svg>
