<svg width="1180" height="767" viewBox="0 0 1180 767" fill="none" xmlns="http://www.w3.org/2000/svg">
<g filter="url(#filter0_d_2428_23)">
<path d="M1120 161.055C1120 133.99 1120 120.458 1112.01 112.058C1104.01 103.659 1090.01 102.97 1062.01 101.593C900.49 93.6478 757.077 56.0003 590.002 56.0003C422.578 56.0003 280.143 93.687 117.994 101.606C89.9988 102.973 76.0013 103.656 68.0016 112.056C60.0018 120.456 60.0018 133.989 60.0018 161.055L60.0019 605C60.0019 632.107 60.0019 645.66 68.0372 654.067C76.0724 662.475 90.0405 663.107 117.976 664.372C273.092 671.396 432.195 703 590.002 703C750.542 703 909.741 671.544 1062.03 664.422C1089.98 663.115 1103.96 662.461 1111.98 654.057C1120 645.652 1120 632.102 1120 605L1120 161.055Z" fill="white"/>
</g>
<mask id="mask0_2428_23" style="mask-type:alpha" maskUnits="userSpaceOnUse" x="60" y="56" width="1061" height="648">
<path d="M1120 113.054C1120 107.532 1115.51 103.059 1109.98 103.009C928.328 101.375 773.425 56.0003 590.003 56.0003C406.276 56.0003 252.641 101.384 70.0242 103.01C64.5015 103.059 60.0028 107.532 60.0028 113.055L60.0029 651C60.0029 657.628 65.3722 662.994 71.9993 663.063C241.556 664.824 416.563 703 590.003 703C766.775 703 941.92 664.861 1108.01 663.066C1114.64 662.994 1120 657.628 1120 651L1120 113.054Z" fill="white"/>
</mask>
<g mask="url(#mask0_2428_23)">
<path opacity="0.48" d="M245.001 186.228C250.473 197.926 256.416 203.963 262.831 204.34V210C253.774 209.434 241.417 209.151 225.757 209.151C205.57 209.151 190.665 209.434 181.043 210V204.34C187.269 203.963 191.892 203.02 194.91 201.51C197.929 199.812 199.438 197.077 199.438 193.303C199.438 189.907 198.212 185.662 195.759 180.568L181.609 148.306H122.179L118.783 155.947C113.501 168.399 110.859 178.116 110.859 185.096C110.859 191.511 112.935 196.228 117.085 199.246C121.236 202.265 127.368 203.963 135.48 204.34V210C124.726 209.434 113.878 209.151 102.935 209.151C92.7475 209.151 85.1065 209.434 80.0125 210V204.34C84.5405 203.397 88.6912 200.567 92.4645 195.85C96.4265 190.945 100.577 183.681 104.916 174.059L164.629 37.3702C166.139 37.5589 168.308 37.6532 171.138 37.6532C174.157 37.6532 176.327 37.5589 177.647 37.3702L245.001 186.228ZM179.062 142.646L151.894 80.6692L124.726 142.646H179.062ZM456.955 197.548C452.239 203.208 446.956 207.359 441.107 210C435.259 212.642 428.089 213.962 419.599 213.962C409.411 213.962 401.204 211.793 394.978 207.453C388.752 203.114 384.413 195.096 381.96 183.398L374.602 150.57C373.093 144.156 371.301 139.062 369.225 135.288C367.339 131.326 364.131 128.119 359.603 125.666C355.264 123.214 349.227 121.987 341.491 121.987H334.699V180.002C334.699 187.172 335.171 192.36 336.114 195.567C337.246 198.775 339.227 200.944 342.057 202.076C344.887 203.208 349.51 203.963 355.924 204.34V210C346.302 209.434 332.341 209.151 314.04 209.151C294.23 209.151 279.609 209.434 270.175 210V204.34C276.59 203.963 281.212 203.208 284.042 202.076C286.872 200.944 288.759 198.775 289.702 195.567C290.834 192.36 291.4 187.172 291.4 180.002V67.9342C291.4 60.7649 290.834 55.5766 289.702 52.3692C288.759 49.1619 286.778 46.9922 283.759 45.8602C280.929 44.7282 276.401 43.9736 270.175 43.5962V37.9362C279.42 38.5022 294.042 38.7852 314.04 38.7852C332.341 38.7852 346.302 38.5022 355.924 37.9362V43.5962C349.51 43.9736 344.887 44.7282 342.057 45.8602C339.227 46.9922 337.246 49.1619 336.114 52.3692C335.171 55.5766 334.699 60.7649 334.699 67.9342V116.61C342.812 115.667 349.887 113.686 355.924 110.667C362.15 107.649 368.565 102.649 375.168 95.6682L391.016 78.6882C397.62 71.5189 400.921 64.9156 400.921 58.8782C400.921 54.3502 399.129 50.7656 395.544 48.1242C391.96 45.2942 387.243 43.6906 381.394 43.3132V37.9362C394.978 38.5022 408.751 38.7852 422.712 38.7852C434.221 38.7852 443.371 38.5022 450.163 37.9362V43.3132C443.56 44.8226 437.145 47.4639 430.919 51.2372C424.882 54.8219 418.467 59.9159 411.675 66.5192L359.603 117.742C375.64 118.874 389.13 122.082 400.072 127.364C411.015 132.647 418.184 141.609 421.58 154.249L428.089 180.285C430.165 188.398 432.146 193.869 434.032 196.699C436.108 199.341 438.655 200.661 441.673 200.661C443.937 200.473 445.918 199.907 447.616 198.963C449.314 197.831 451.107 196.228 452.993 194.152L456.955 197.548ZM670.622 43.5962C664.208 43.9736 659.585 44.7282 656.755 45.8602C653.925 46.9922 651.944 49.1619 650.812 52.3692C649.869 55.5766 649.397 60.7649 649.397 67.9342V180.002C649.397 187.172 649.869 192.454 650.812 195.85C651.944 199.058 653.925 201.322 656.755 202.642C659.774 203.774 664.396 204.34 670.622 204.34H679.395C678.075 218.113 677.414 230.376 677.414 241.13C677.414 248.866 677.697 254.997 678.263 259.525H671.754C668.924 241.413 663.642 228.584 655.906 221.037C648.171 213.679 637.417 210 623.644 210H571.855C562.233 210 550.442 209.812 536.48 209.434L511.859 209.151C493.37 209.151 479.597 209.434 470.541 210V204.34C476.956 203.963 481.578 203.208 484.408 202.076C487.238 200.944 489.125 198.775 490.068 195.567C491.2 192.36 491.766 187.172 491.766 180.002V67.9342C491.766 60.7649 491.2 55.5766 490.068 52.3692C489.125 49.1619 487.144 46.9922 484.125 45.8602C481.295 44.7282 476.767 43.9736 470.541 43.5962V37.9362C479.597 38.5022 493.37 38.7852 511.859 38.7852C531.103 38.7852 545.914 38.5022 556.29 37.9362V43.5962C549.876 43.9736 545.253 44.7282 542.423 45.8602C539.593 46.9922 537.612 49.1619 536.48 52.3692C535.537 55.5766 535.065 60.7649 535.065 67.9342V180.002C535.065 187.172 535.537 192.454 536.48 195.85C537.612 199.058 539.593 201.322 542.423 202.642C545.442 203.774 550.064 204.34 556.29 204.34H584.873C591.099 204.34 595.627 203.774 598.457 202.642C601.476 201.322 603.457 199.058 604.4 195.85C605.532 192.454 606.098 187.172 606.098 180.002V67.9342C606.098 60.7649 605.532 55.5766 604.4 52.3692C603.457 49.1619 601.476 46.9922 598.457 45.8602C595.627 44.7282 591.099 43.9736 584.873 43.5962V37.9362C595.25 38.5022 610.06 38.7852 629.304 38.7852C647.982 38.7852 661.755 38.5022 670.622 37.9362V43.5962ZM900.732 43.5962C894.318 43.9736 889.695 44.7282 886.865 45.8602C884.035 46.9922 882.054 49.1619 880.922 52.3692C879.979 55.5766 879.507 60.7649 879.507 67.9342V180.002C879.507 187.172 879.979 192.36 880.922 195.567C882.054 198.775 884.035 200.944 886.865 202.076C889.884 203.208 894.506 203.963 900.732 204.34V210C892.054 209.434 878.281 209.151 859.414 209.151C840.359 209.151 825.549 209.434 814.983 210V204.34C821.398 203.963 826.02 203.208 828.85 202.076C831.68 200.944 833.567 198.775 834.51 195.567C835.642 192.36 836.208 187.172 836.208 180.002V75.2922L757.817 186.228C758.195 191.322 758.949 195.096 760.081 197.548C761.402 200.001 763.477 201.699 766.307 202.642C769.137 203.397 773.382 203.963 779.042 204.34V210C768.666 209.434 753.855 209.151 734.611 209.151C716.122 209.151 702.349 209.434 693.293 210V204.34C699.708 203.963 704.33 203.208 707.16 202.076C709.99 200.944 711.877 198.775 712.82 195.567C713.952 192.36 714.518 187.172 714.518 180.002V67.9342C714.518 60.7649 713.952 55.5766 712.82 52.3692C711.877 49.1619 709.896 46.9922 706.877 45.8602C704.047 44.7282 699.519 43.9736 693.293 43.5962V37.9362C702.349 38.5022 716.122 38.7852 734.611 38.7852C753.855 38.7852 768.666 38.5022 779.042 37.9362V43.5962C772.628 43.9736 768.005 44.7282 765.175 45.8602C762.345 46.9922 760.364 49.1619 759.232 52.3692C758.289 55.5766 757.817 60.7649 757.817 67.9342V175.757L836.208 64.5382C836.02 58.5009 835.359 54.1616 834.227 51.5202C833.095 48.6902 831.114 46.8036 828.284 45.8602C825.454 44.7282 821.021 43.9736 814.983 43.5962V37.9362C825.36 38.5022 840.17 38.7852 859.414 38.7852C868.47 38.7852 878.47 38.5966 889.412 38.2192C892.62 38.0306 896.393 37.9362 900.732 37.9362V43.5962ZM1090.28 43.5962C1083.87 43.9736 1079.24 44.7282 1076.41 45.8602C1073.58 46.9922 1071.6 49.1619 1070.47 52.3692C1069.53 55.5766 1069.06 60.7649 1069.06 67.9342V180.002C1069.06 187.172 1069.53 192.36 1070.47 195.567C1071.6 198.775 1073.58 200.944 1076.41 202.076C1079.24 203.208 1083.87 203.963 1090.28 204.34V210C1081.6 209.434 1068.4 209.151 1050.66 209.151C1029.91 209.151 1013.96 209.434 1002.83 210V204.34C1009.63 203.963 1014.53 203.208 1017.55 202.076C1020.76 200.944 1022.93 198.775 1024.06 195.567C1025.19 192.36 1025.76 187.172 1025.76 180.002V130.477H1010.76C1003.02 130.477 996.985 133.307 992.645 138.967C988.495 144.439 985.287 153.117 983.023 165.003L978.495 187.077C976.797 196.322 972.835 203.114 966.609 207.453C960.572 211.793 951.988 213.962 940.856 213.962C925.952 213.962 914.443 208.774 906.33 198.397L910.009 194.718C913.783 198.869 917.65 200.944 921.612 200.944C924.631 200.944 927.084 199.812 928.97 197.548C930.857 195.096 932.366 191.134 933.498 185.662L938.309 163.871C940.385 152.74 945.479 144.627 953.591 139.533C961.893 134.251 973.684 130.666 988.966 128.779H989.532C969.156 126.893 954.44 121.987 945.384 114.063C936.328 105.951 931.8 95.9512 931.8 84.0652C931.8 69.1606 937.555 57.8406 949.063 50.1052C960.572 42.1812 979.439 38.2192 1005.66 38.2192C1010.57 38.2192 1014.91 38.3136 1018.68 38.5022L1052.36 38.7852C1068.77 38.7852 1081.41 38.5022 1090.28 37.9362V43.5962ZM977.08 83.7822C977.08 96.4229 979.816 106.422 985.287 113.78C990.759 120.95 1000.76 124.534 1015.29 124.534H1025.76V67.9342C1025.76 61.1422 1025.28 56.0482 1024.34 52.6522C1023.59 49.2562 1022.08 46.8979 1019.81 45.5772C1017.55 44.2566 1014.06 43.5962 1009.34 43.5962C997.834 43.5962 989.532 46.8979 984.438 53.5012C979.533 60.1046 977.08 70.1982 977.08 83.7822Z" fill="url(#paint0_linear_2428_23)"/>
<path opacity="0.29" d="M245.001 705.228C250.473 716.926 256.416 722.963 262.831 723.34V729C253.774 728.434 241.417 728.151 225.757 728.151C205.57 728.151 190.665 728.434 181.043 729V723.34C187.269 722.963 191.892 722.02 194.91 720.51C197.929 718.812 199.438 716.077 199.438 712.303C199.438 708.907 198.212 704.662 195.759 699.568L181.609 667.306H122.179L118.783 674.947C113.501 687.399 110.859 697.116 110.859 704.096C110.859 710.511 112.935 715.228 117.085 718.246C121.236 721.265 127.368 722.963 135.48 723.34V729C124.726 728.434 113.878 728.151 102.935 728.151C92.7475 728.151 85.1065 728.434 80.0125 729V723.34C84.5405 722.397 88.6912 719.567 92.4645 714.85C96.4265 709.945 100.577 702.681 104.916 693.059L164.629 556.37C166.139 556.559 168.308 556.653 171.138 556.653C174.157 556.653 176.327 556.559 177.647 556.37L245.001 705.228ZM179.062 661.646L151.894 599.669L124.726 661.646H179.062ZM456.955 716.548C452.239 722.208 446.956 726.359 441.107 729C435.259 731.642 428.089 732.962 419.599 732.962C409.411 732.962 401.204 730.793 394.978 726.453C388.752 722.114 384.413 714.096 381.96 702.398L374.602 669.57C373.093 663.156 371.301 658.062 369.225 654.288C367.339 650.326 364.131 647.119 359.603 644.666C355.264 642.214 349.227 640.987 341.491 640.987H334.699V699.002C334.699 706.172 335.171 711.36 336.114 714.567C337.246 717.775 339.227 719.944 342.057 721.076C344.887 722.208 349.51 722.963 355.924 723.34V729C346.302 728.434 332.341 728.151 314.04 728.151C294.23 728.151 279.609 728.434 270.175 729V723.34C276.59 722.963 281.212 722.208 284.042 721.076C286.872 719.944 288.759 717.775 289.702 714.567C290.834 711.36 291.4 706.172 291.4 699.002V586.934C291.4 579.765 290.834 574.577 289.702 571.369C288.759 568.162 286.778 565.992 283.759 564.86C280.929 563.728 276.401 562.974 270.175 562.596V556.936C279.42 557.502 294.042 557.785 314.04 557.785C332.341 557.785 346.302 557.502 355.924 556.936V562.596C349.51 562.974 344.887 563.728 342.057 564.86C339.227 565.992 337.246 568.162 336.114 571.369C335.171 574.577 334.699 579.765 334.699 586.934V635.61C342.812 634.667 349.887 632.686 355.924 629.667C362.15 626.649 368.565 621.649 375.168 614.668L391.016 597.688C397.62 590.519 400.921 583.916 400.921 577.878C400.921 573.35 399.129 569.766 395.544 567.124C391.96 564.294 387.243 562.691 381.394 562.313V556.936C394.978 557.502 408.751 557.785 422.712 557.785C434.221 557.785 443.371 557.502 450.163 556.936V562.313C443.56 563.823 437.145 566.464 430.919 570.237C424.882 573.822 418.467 578.916 411.675 585.519L359.603 636.742C375.64 637.874 389.13 641.082 400.072 646.364C411.015 651.647 418.184 660.609 421.58 673.249L428.089 699.285C430.165 707.398 432.146 712.869 434.032 715.699C436.108 718.341 438.655 719.661 441.673 719.661C443.937 719.473 445.918 718.907 447.616 717.963C449.314 716.831 451.107 715.228 452.993 713.152L456.955 716.548ZM670.622 562.596C664.208 562.974 659.585 563.728 656.755 564.86C653.925 565.992 651.944 568.162 650.812 571.369C649.869 574.577 649.397 579.765 649.397 586.934V699.002C649.397 706.172 649.869 711.454 650.812 714.85C651.944 718.058 653.925 720.322 656.755 721.642C659.774 722.774 664.396 723.34 670.622 723.34H679.395C678.075 737.113 677.414 749.376 677.414 760.13C677.414 767.866 677.697 773.997 678.263 778.525H671.754C668.924 760.413 663.642 747.584 655.906 740.037C648.171 732.679 637.417 729 623.644 729H571.855C562.233 729 550.442 728.812 536.48 728.434L511.859 728.151C493.37 728.151 479.597 728.434 470.541 729V723.34C476.956 722.963 481.578 722.208 484.408 721.076C487.238 719.944 489.125 717.775 490.068 714.567C491.2 711.36 491.766 706.172 491.766 699.002V586.934C491.766 579.765 491.2 574.577 490.068 571.369C489.125 568.162 487.144 565.992 484.125 564.86C481.295 563.728 476.767 562.974 470.541 562.596V556.936C479.597 557.502 493.37 557.785 511.859 557.785C531.103 557.785 545.914 557.502 556.29 556.936V562.596C549.876 562.974 545.253 563.728 542.423 564.86C539.593 565.992 537.612 568.162 536.48 571.369C535.537 574.577 535.065 579.765 535.065 586.934V699.002C535.065 706.172 535.537 711.454 536.48 714.85C537.612 718.058 539.593 720.322 542.423 721.642C545.442 722.774 550.064 723.34 556.29 723.34H584.873C591.099 723.34 595.627 722.774 598.457 721.642C601.476 720.322 603.457 718.058 604.4 714.85C605.532 711.454 606.098 706.172 606.098 699.002V586.934C606.098 579.765 605.532 574.577 604.4 571.369C603.457 568.162 601.476 565.992 598.457 564.86C595.627 563.728 591.099 562.974 584.873 562.596V556.936C595.25 557.502 610.06 557.785 629.304 557.785C647.982 557.785 661.755 557.502 670.622 556.936V562.596ZM900.732 562.596C894.318 562.974 889.695 563.728 886.865 564.86C884.035 565.992 882.054 568.162 880.922 571.369C879.979 574.577 879.507 579.765 879.507 586.934V699.002C879.507 706.172 879.979 711.36 880.922 714.567C882.054 717.775 884.035 719.944 886.865 721.076C889.884 722.208 894.506 722.963 900.732 723.34V729C892.054 728.434 878.281 728.151 859.414 728.151C840.359 728.151 825.549 728.434 814.983 729V723.34C821.398 722.963 826.02 722.208 828.85 721.076C831.68 719.944 833.567 717.775 834.51 714.567C835.642 711.36 836.208 706.172 836.208 699.002V594.292L757.817 705.228C758.195 710.322 758.949 714.096 760.081 716.548C761.402 719.001 763.477 720.699 766.307 721.642C769.137 722.397 773.382 722.963 779.042 723.34V729C768.666 728.434 753.855 728.151 734.611 728.151C716.122 728.151 702.349 728.434 693.293 729V723.34C699.708 722.963 704.33 722.208 707.16 721.076C709.99 719.944 711.877 717.775 712.82 714.567C713.952 711.36 714.518 706.172 714.518 699.002V586.934C714.518 579.765 713.952 574.577 712.82 571.369C711.877 568.162 709.896 565.992 706.877 564.86C704.047 563.728 699.519 562.974 693.293 562.596V556.936C702.349 557.502 716.122 557.785 734.611 557.785C753.855 557.785 768.666 557.502 779.042 556.936V562.596C772.628 562.974 768.005 563.728 765.175 564.86C762.345 565.992 760.364 568.162 759.232 571.369C758.289 574.577 757.817 579.765 757.817 586.934V694.757L836.208 583.538C836.02 577.501 835.359 573.162 834.227 570.52C833.095 567.69 831.114 565.804 828.284 564.86C825.454 563.728 821.021 562.974 814.983 562.596V556.936C825.36 557.502 840.17 557.785 859.414 557.785C868.47 557.785 878.47 557.597 889.412 557.219C892.62 557.031 896.393 556.936 900.732 556.936V562.596ZM1090.28 562.596C1083.87 562.974 1079.24 563.728 1076.41 564.86C1073.58 565.992 1071.6 568.162 1070.47 571.369C1069.53 574.577 1069.06 579.765 1069.06 586.934V699.002C1069.06 706.172 1069.53 711.36 1070.47 714.567C1071.6 717.775 1073.58 719.944 1076.41 721.076C1079.24 722.208 1083.87 722.963 1090.28 723.34V729C1081.6 728.434 1068.4 728.151 1050.66 728.151C1029.91 728.151 1013.96 728.434 1002.83 729V723.34C1009.63 722.963 1014.53 722.208 1017.55 721.076C1020.76 719.944 1022.93 717.775 1024.06 714.567C1025.19 711.36 1025.76 706.172 1025.76 699.002V649.477H1010.76C1003.02 649.477 996.985 652.307 992.645 657.967C988.495 663.439 985.287 672.117 983.023 684.003L978.495 706.077C976.797 715.322 972.835 722.114 966.609 726.453C960.572 730.793 951.988 732.962 940.856 732.962C925.952 732.962 914.443 727.774 906.33 717.397L910.009 713.718C913.783 717.869 917.65 719.944 921.612 719.944C924.631 719.944 927.084 718.812 928.97 716.548C930.857 714.096 932.366 710.134 933.498 704.662L938.309 682.871C940.385 671.74 945.479 663.627 953.591 658.533C961.893 653.251 973.684 649.666 988.966 647.779H989.532C969.156 645.893 954.44 640.987 945.384 633.063C936.328 624.951 931.8 614.951 931.8 603.065C931.8 588.161 937.555 576.841 949.063 569.105C960.572 561.181 979.439 557.219 1005.66 557.219C1010.57 557.219 1014.91 557.314 1018.68 557.502L1052.36 557.785C1068.77 557.785 1081.41 557.502 1090.28 556.936V562.596ZM977.08 602.782C977.08 615.423 979.816 625.422 985.287 632.78C990.759 639.95 1000.76 643.534 1015.29 643.534H1025.76V586.934C1025.76 580.142 1025.28 575.048 1024.34 571.652C1023.59 568.256 1022.08 565.898 1019.81 564.577C1017.55 563.257 1014.06 562.596 1009.34 562.596C997.834 562.596 989.532 565.898 984.438 572.501C979.533 579.105 977.08 589.198 977.08 602.782Z" fill="url(#paint1_linear_2428_23)"/>
</g>
<defs>
<filter id="filter0_d_2428_23" x="0.00195312" y="0.000244141" width="1180" height="767" filterUnits="userSpaceOnUse" color-interpolation-filters="sRGB">
<feFlood flood-opacity="0" result="BackgroundImageFix"/>
<feColorMatrix in="SourceAlpha" type="matrix" values="0 0 0 0 0 0 0 0 0 0 0 0 0 0 0 0 0 0 127 0" result="hardAlpha"/>
<feOffset dy="4"/>
<feGaussianBlur stdDeviation="30"/>
<feComposite in2="hardAlpha" operator="out"/>
<feColorMatrix type="matrix" values="0 0 0 0 0.866667 0 0 0 0 0.835294 0 0 0 0 0.796078 0 0 0 0.26 0"/>
<feBlend mode="normal" in2="BackgroundImageFix" result="effect1_dropShadow_2428_23"/>
<feBlend mode="normal" in="SourceGraphic" in2="effect1_dropShadow_2428_23" result="shape"/>
</filter>
<linearGradient id="paint0_linear_2428_23" x1="591.503" y1="-208.504" x2="591.503" y2="200.337" gradientUnits="userSpaceOnUse">
<stop stop-color="#A89E94"/>
<stop offset="1" stop-color="#A1998D" stop-opacity="0"/>
</linearGradient>
<linearGradient id="paint1_linear_2428_23" x1="591.503" y1="561.5" x2="591.503" y2="887" gradientUnits="userSpaceOnUse">
<stop stop-color="#A1998D" stop-opacity="0"/>
<stop offset="1" stop-color="#A89E94"/>
</linearGradient>
</defs>
</svg>
