<svg width="1060" height="340" viewBox="0 0 1060 340" fill="none" xmlns="http://www.w3.org/2000/svg">
<path d="M-7.22587e-06 82.9453C-4.84783e-06 55.7438 -3.65881e-06 42.143 8.23133 33.6967C16.4627 25.2504 30.3113 24.8934 58.0086 24.1793C219.523 20.0152 362.931 0.291047 530 0.291062C697.418 0.291077 839.849 20.0358 1001.99 24.1859C1029.69 24.8947 1043.53 25.2492 1051.77 33.6958C1060 42.1425 1060 55.7435 1060 82.9455L1060 260.333C1060 287.556 1060 301.167 1051.75 309.617C1043.5 318.067 1029.67 318.396 1002.01 319.052C846.899 322.733 687.801 339.291 530 339.291C369.465 339.291 210.273 322.81 57.9875 319.078C30.3214 318.4 16.4884 318.061 8.24418 309.612C-2.63031e-05 301.163 -2.51133e-05 287.553 -2.27336e-05 260.333L-7.22587e-06 82.9453Z" fill="white"/>
<mask id="mask0_2738_190" style="mask-type:alpha" maskUnits="userSpaceOnUse" x="0" y="0" width="1060" height="340">
<path d="M-7.22587e-06 82.9453C-4.84783e-06 55.7438 -3.65881e-06 42.143 8.23133 33.6967C16.4627 25.2504 30.3113 24.8934 58.0086 24.1793C219.523 20.0152 362.931 0.291047 530 0.291062C697.418 0.291077 839.849 20.0358 1001.99 24.1859C1029.69 24.8947 1043.53 25.2492 1051.77 33.6958C1060 42.1425 1060 55.7435 1060 82.9455L1060 260.333C1060 287.556 1060 301.167 1051.75 309.617C1043.5 318.067 1029.67 318.396 1002.01 319.052C846.899 322.733 687.801 339.291 530 339.291C369.465 339.291 210.273 322.81 57.9875 319.078C30.3214 318.4 16.4884 318.061 8.24418 309.612C-2.63031e-05 301.163 -2.51133e-05 287.553 -2.27336e-05 260.333L-7.22587e-06 82.9453Z" fill="white"/>
</mask>
<g mask="url(#mask0_2738_190)">
<path opacity="0.18" d="M191.148 156.291C193.315 161.791 195.815 165.791 198.648 168.291C201.482 170.791 204.232 172.124 206.898 172.291V177.291C196.898 176.791 184.232 176.541 168.898 176.541C151.898 176.541 139.232 176.791 130.898 177.291V172.291C137.232 171.958 141.732 171.208 144.398 170.041C147.065 168.708 148.398 166.458 148.398 163.291C148.398 160.291 147.398 156.291 145.398 151.291L130.398 110.291H75.8984L69.3984 127.541C64.7318 139.541 62.3984 148.791 62.3984 155.291C62.3984 161.458 64.2318 165.791 67.8984 168.291C71.7318 170.624 77.3151 171.958 84.6484 172.291V177.291C73.3151 176.791 62.9818 176.541 53.6484 176.541C45.9818 176.541 39.6484 176.791 34.6484 177.291V172.291C42.8151 170.791 49.9818 162.041 56.1484 146.041L113.148 -0.208994C114.982 -0.0423294 117.898 0.0410029 121.898 0.0410029C125.898 0.0410029 128.732 -0.0423294 130.398 -0.208994L191.148 156.291ZM128.648 105.291L103.898 37.791L77.8984 105.291H128.648ZM397.396 166.291C393.23 171.291 388.563 174.958 383.396 177.291C378.23 179.624 371.896 180.791 364.396 180.791C355.396 180.791 348.146 178.874 342.646 175.041C337.146 171.208 333.313 164.124 331.146 153.791L324.646 124.791C323.313 119.124 321.73 114.624 319.896 111.291C318.23 107.791 315.396 104.958 311.396 102.791C307.563 100.624 302.23 99.541 295.396 99.541H289.396V150.791C289.396 157.124 289.813 161.708 290.646 164.541C291.646 167.374 293.396 169.291 295.896 170.291C298.396 171.291 302.48 171.958 308.146 172.291V177.291C299.646 176.791 287.313 176.541 271.146 176.541C253.646 176.541 240.73 176.791 232.396 177.291V172.291C238.063 171.958 242.146 171.291 244.646 170.291C247.146 169.291 248.813 167.374 249.646 164.541C250.646 161.708 251.146 157.124 251.146 150.791V51.791C251.146 45.4577 250.646 40.8743 249.646 38.041C248.813 35.2077 247.063 33.291 244.396 32.291C241.896 31.291 237.896 30.6243 232.396 30.291V25.291C240.563 25.791 253.48 26.041 271.146 26.041C287.313 26.041 299.646 25.791 308.146 25.291V30.291C302.48 30.6243 298.396 31.291 295.896 32.291C293.396 33.291 291.646 35.2077 290.646 38.041C289.813 40.8743 289.396 45.4577 289.396 51.791V94.791C296.563 93.9577 302.813 92.2077 308.146 89.541C313.646 86.8743 319.313 82.4577 325.146 76.291L339.146 61.291C344.98 54.9577 347.896 49.1243 347.896 43.791C347.896 39.791 346.313 36.6243 343.146 34.291C339.98 31.791 335.813 30.3743 330.646 30.041V25.291C342.646 25.791 354.813 26.041 367.146 26.041C377.313 26.041 385.396 25.791 391.396 25.291V30.041C385.563 31.3743 379.896 33.7077 374.396 37.041C369.063 40.2077 363.396 44.7077 357.396 50.541L311.396 95.791C325.563 96.791 337.48 99.6243 347.146 104.291C356.813 108.958 363.146 116.874 366.146 128.041L371.896 151.041C373.73 158.208 375.48 163.041 377.146 165.541C378.98 167.874 381.23 169.041 383.896 169.041C385.896 168.874 387.646 168.374 389.146 167.541C390.646 166.541 392.23 165.124 393.896 163.291L397.396 166.291ZM604.898 30.291C599.232 30.6243 595.148 31.291 592.648 32.291C590.148 33.291 588.398 35.2077 587.398 38.041C586.565 40.8743 586.148 45.4577 586.148 51.791V150.791C586.148 157.124 586.565 161.791 587.398 164.791C588.398 167.624 590.148 169.624 592.648 170.791C595.315 171.791 599.398 172.291 604.898 172.291H612.648C611.482 184.458 610.898 195.291 610.898 204.791C610.898 211.624 611.148 217.041 611.648 221.041H605.898C603.398 205.041 598.732 193.708 591.898 187.041C585.065 180.541 575.565 177.291 563.398 177.291H517.648C509.148 177.291 498.732 177.124 486.398 176.791L464.648 176.541C448.315 176.541 436.148 176.791 428.148 177.291V172.291C433.815 171.958 437.898 171.291 440.398 170.291C442.898 169.291 444.565 167.374 445.398 164.541C446.398 161.708 446.898 157.124 446.898 150.791V51.791C446.898 45.4577 446.398 40.8743 445.398 38.041C444.565 35.2077 442.815 33.291 440.148 32.291C437.648 31.291 433.648 30.6243 428.148 30.291V25.291C436.148 25.791 448.315 26.041 464.648 26.041C481.648 26.041 494.732 25.791 503.898 25.291V30.291C498.232 30.6243 494.148 31.291 491.648 32.291C489.148 33.291 487.398 35.2077 486.398 38.041C485.565 40.8743 485.148 45.4577 485.148 51.791V150.791C485.148 157.124 485.565 161.791 486.398 164.791C487.398 167.624 489.148 169.624 491.648 170.791C494.315 171.791 498.398 172.291 503.898 172.291H529.148C534.648 172.291 538.648 171.791 541.148 170.791C543.815 169.624 545.565 167.624 546.398 164.791C547.398 161.791 547.898 157.124 547.898 150.791V51.791C547.898 45.4577 547.398 40.8743 546.398 38.041C545.565 35.2077 543.815 33.291 541.148 32.291C538.648 31.291 534.648 30.6243 529.148 30.291V25.291C538.315 25.791 551.398 26.041 568.398 26.041C584.898 26.041 597.065 25.791 604.898 25.291V30.291ZM826.926 30.291C821.259 30.6243 817.176 31.291 814.676 32.291C812.176 33.291 810.426 35.2077 809.426 38.041C808.592 40.8743 808.176 45.4577 808.176 51.791V150.791C808.176 157.124 808.592 161.708 809.426 164.541C810.426 167.374 812.176 169.291 814.676 170.291C817.342 171.291 821.426 171.958 826.926 172.291V177.291C819.259 176.791 807.092 176.541 790.426 176.541C773.592 176.541 760.509 176.791 751.176 177.291V172.291C756.842 171.958 760.926 171.291 763.426 170.291C765.926 169.291 767.592 167.374 768.426 164.541C769.426 161.708 769.926 157.124 769.926 150.791V58.291L700.676 156.291C701.009 160.791 701.676 164.124 702.676 166.291C703.842 168.458 705.676 169.958 708.176 170.791C710.676 171.458 714.426 171.958 719.426 172.291V177.291C710.259 176.791 697.176 176.541 680.176 176.541C663.842 176.541 651.676 176.791 643.676 177.291V172.291C649.342 171.958 653.426 171.291 655.926 170.291C658.426 169.291 660.092 167.374 660.926 164.541C661.926 161.708 662.426 157.124 662.426 150.791V51.791C662.426 45.4577 661.926 40.8743 660.926 38.041C660.092 35.2077 658.342 33.291 655.676 32.291C653.176 31.291 649.176 30.6243 643.676 30.291V25.291C651.676 25.791 663.842 26.041 680.176 26.041C697.176 26.041 710.259 25.791 719.426 25.291V30.291C713.759 30.6243 709.676 31.291 707.176 32.291C704.676 33.291 702.926 35.2077 701.926 38.041C701.092 40.8743 700.676 45.4577 700.676 51.791V147.041L769.926 48.791C769.759 43.4577 769.176 39.6243 768.176 37.291C767.176 34.791 765.426 33.1243 762.926 32.291C760.426 31.291 756.509 30.6243 751.176 30.291V25.291C760.342 25.791 773.426 26.041 790.426 26.041C798.426 26.041 807.259 25.8743 816.926 25.541C819.759 25.3743 823.092 25.291 826.926 25.291V30.291ZM1013.12 30.291C1007.45 30.6243 1003.37 31.291 1000.87 32.291C998.371 33.291 996.621 35.2077 995.621 38.041C994.788 40.8743 994.371 45.4577 994.371 51.791V150.791C994.371 157.124 994.788 161.708 995.621 164.541C996.621 167.374 998.371 169.291 1000.87 170.291C1003.37 171.291 1007.45 171.958 1013.12 172.291V177.291C1005.45 176.791 993.788 176.541 978.121 176.541C959.788 176.541 945.704 176.791 935.871 177.291V172.291C941.871 171.958 946.204 171.291 948.871 170.291C951.704 169.291 953.621 167.374 954.621 164.541C955.621 161.708 956.121 157.124 956.121 150.791V107.041H942.871C936.038 107.041 930.704 109.541 926.871 114.541C923.204 119.374 920.371 127.041 918.371 137.541L914.371 157.041C912.871 165.208 909.371 171.208 903.871 175.041C898.538 178.874 890.954 180.791 881.121 180.791C867.954 180.791 857.788 176.208 850.621 167.041L853.871 163.791C857.204 167.458 860.621 169.291 864.121 169.291C866.788 169.291 868.954 168.291 870.621 166.291C872.288 164.124 873.621 160.624 874.621 155.791L878.871 136.541C880.704 126.708 885.204 119.541 892.371 115.041C899.704 110.374 910.121 107.208 923.621 105.541H924.121C906.121 103.874 893.121 99.541 885.121 92.541C877.121 85.3743 873.121 76.541 873.121 66.041C873.121 52.8743 878.204 42.8743 888.371 36.041C898.538 29.041 915.204 25.541 938.371 25.541C942.704 25.541 946.538 25.6243 949.871 25.791L979.621 26.041C994.121 26.041 1005.29 25.791 1013.12 25.291V30.291ZM913.121 65.791C913.121 76.9577 915.538 85.791 920.371 92.291C925.204 98.6243 934.038 101.791 946.871 101.791H956.121V51.791C956.121 45.791 955.704 41.291 954.871 38.291C954.204 35.291 952.871 33.2077 950.871 32.041C948.871 30.8743 945.788 30.291 941.621 30.291C931.454 30.291 924.121 33.2077 919.621 39.041C915.288 44.8743 913.121 53.791 913.121 65.791Z" fill="url(#paint0_linear_2738_190)"/>
</g>
<defs>
<linearGradient id="paint0_linear_2738_190" x1="530" y1="73.291" x2="530" y2="177.2" gradientUnits="userSpaceOnUse">
<stop stop-color="#A89E94"/>
<stop offset="1" stop-color="#A1998D" stop-opacity="0"/>
</linearGradient>
</defs>
</svg>
