<svg width="1060" height="552" viewBox="0 0 1060 552" fill="none" xmlns="http://www.w3.org/2000/svg">
<path d="M-8.58013e-06 98.1452C-6.21028e-06 71.0373 -5.02536e-06 57.4834 8.06834 49.0693C16.1367 40.6552 30.0902 40.0695 57.9972 38.8982C219.516 32.1188 362.927 3.17281e-05 530 4.63341e-05C697.422 6.09705e-05 839.855 32.1523 1002 38.9088C1029.91 40.0716 1043.86 40.6529 1051.93 49.0677C1060 57.4824 1060 71.0367 1060 98.1453L1060 459.873C1060 487.016 1060 500.588 1051.9 509.009C1043.8 517.43 1029.87 517.968 1002.02 519.044C846.906 525.037 687.804 552 530 552C369.462 552 210.266 525.163 57.9769 519.086C30.1111 517.974 16.1782 517.418 8.08907 509C-4.37623e-05 500.582 -4.2576e-05 487.012 -4.02034e-05 459.873L-8.58013e-06 98.1452Z" fill="white"/>
<mask id="mask0_4133_5" style="mask-type:alpha" maskUnits="userSpaceOnUse" x="0" y="0" width="1060" height="552">
<path d="M-8.58013e-06 98.1452C-6.21028e-06 71.0373 -5.02536e-06 57.4834 8.06834 49.0693C16.1367 40.6552 30.0902 40.0695 57.9972 38.8982C219.516 32.1188 362.927 3.17281e-05 530 4.63341e-05C697.422 6.09705e-05 839.855 32.1523 1002 38.9088C1029.91 40.0716 1043.86 40.6529 1051.93 49.0677C1060 57.4824 1060 71.0367 1060 98.1453L1060 459.873C1060 487.016 1060 500.588 1051.9 509.009C1043.8 517.43 1029.87 517.968 1002.02 519.044C846.906 525.037 687.804 552 530 552C369.462 552 210.266 525.163 57.9769 519.086C30.1111 517.974 16.1782 517.418 8.08907 509C-4.37623e-05 500.582 -4.2576e-05 487.012 -4.02034e-05 459.873L-8.58013e-06 98.1452Z" fill="white"/>
</mask>
<g mask="url(#mask0_4133_5)">
<path opacity="0.18" d="M362.491 -0.597116C369.701 -0.597116 375.476 0.837884 379.816 3.70788C384.226 6.50789 386.431 10.3579 386.431 15.2579C386.361 20.5779 383.841 24.9879 378.871 28.4879C373.971 31.9879 368.336 34.4379 361.966 35.8379C366.656 35.9079 371.171 36.6779 375.511 38.1479C379.921 39.6179 383.491 41.8229 386.221 44.7629C389.021 47.6329 390.421 51.1329 390.421 55.2629C390.421 59.6729 388.846 63.5229 385.696 66.8129C382.616 70.0329 378.556 72.4829 373.516 74.1629C368.546 75.8429 363.226 76.6829 357.556 76.6829C349.576 76.6829 343.276 75.0379 338.656 71.7479C336.976 70.5579 335.576 69.1579 334.456 67.5479C333.406 65.8679 332.881 64.0479 332.881 62.0879C332.881 59.4979 333.721 57.4329 335.401 55.8929C337.151 54.2829 339.286 53.4779 341.806 53.4779C344.326 53.4779 346.321 54.2129 347.791 55.6829C349.331 57.1529 350.101 59.2179 350.101 61.8779C350.101 64.0479 349.366 65.9379 347.896 67.5479C346.496 69.0879 344.536 70.1379 342.016 70.6979C343.346 71.8179 345.236 72.7279 347.686 73.4279C350.136 74.0579 352.866 74.3729 355.876 74.3729C361.686 74.3729 366.201 72.7629 369.421 69.5429C372.711 66.2529 374.356 61.5629 374.356 55.4729C374.356 50.2929 373.166 45.9529 370.786 42.4529C368.406 38.8829 364.906 36.9929 360.286 36.7829C358.606 37.6929 357.101 38.1479 355.771 38.1479C355.141 38.1479 354.616 38.0079 354.196 37.7279C353.776 37.3779 353.566 36.9229 353.566 36.3629C353.566 35.2429 354.371 34.6829 355.981 34.6829C356.961 34.6829 358.431 34.8929 360.391 35.3129C364.031 33.8429 366.586 31.5329 368.056 28.3829C369.526 25.2329 370.261 21.4879 370.261 17.1479C370.261 12.0379 369.281 8.32789 367.321 6.01789C365.361 3.63789 362.456 2.44789 358.606 2.44789C353.006 2.44789 348.666 4.54789 345.586 8.74789C342.506 12.9479 340.756 18.3379 340.336 24.9179H337.921C337.921 12.9479 337.781 4.82789 337.501 0.557888H339.916C340.126 2.58789 340.406 4.05789 340.756 4.96789C341.176 5.80789 341.771 6.22789 342.541 6.22789C342.891 6.22789 343.276 6.12289 343.696 5.91289C344.116 5.70289 344.571 5.42289 345.061 5.07289C347.791 3.11289 350.311 1.67789 352.621 0.767885C355.001 -0.142116 358.291 -0.597116 362.491 -0.597116ZM464.117 66.3929C465.027 68.7029 466.077 70.3829 467.267 71.4329C468.457 72.4829 469.612 73.0429 470.732 73.1129V75.2129C466.532 75.0029 461.212 74.8979 454.772 74.8979C447.632 74.8979 442.312 75.0029 438.812 75.2129V73.1129C441.472 72.9729 443.362 72.6579 444.482 72.1679C445.602 71.6079 446.162 70.6629 446.162 69.3329C446.162 68.0729 445.742 66.3929 444.902 64.2929L438.602 47.0729H415.712L412.982 54.3179C411.022 59.3579 410.042 63.2429 410.042 65.9729C410.042 68.5629 410.812 70.3829 412.352 71.4329C413.962 72.4129 416.307 72.9729 419.387 73.1129V75.2129C414.627 75.0029 410.287 74.8979 406.367 74.8979C403.147 74.8979 400.487 75.0029 398.387 75.2129V73.1129C401.817 72.4829 404.827 68.8079 407.417 62.0879L431.357 0.662887C432.127 0.732886 433.352 0.767885 435.032 0.767885C436.712 0.767885 437.902 0.732886 438.602 0.662887L464.117 66.3929ZM437.867 44.9729L427.472 16.6229L416.552 44.9729H437.867ZM571.741 2.97289C569.361 3.11289 567.646 3.39289 566.596 3.81289C565.546 4.23289 564.811 5.03789 564.391 6.22789C564.041 7.41789 563.866 9.34289 563.866 12.0029V64.0829C563.866 66.7429 564.041 68.6679 564.391 69.8579C564.811 71.0479 565.546 71.8529 566.596 72.2729C567.716 72.6929 569.431 72.9729 571.741 73.1129V75.2129C567.891 75.0029 562.396 74.8979 555.256 74.8979C547.766 74.8979 542.236 75.0029 538.666 75.2129V73.1129C541.186 72.9729 543.006 72.6929 544.126 72.2729C545.316 71.8529 546.121 71.0479 546.541 69.8579C546.961 68.6679 547.171 66.7429 547.171 64.0829V9.16789L521.866 75.3179H520.186L491.836 7.69789V57.9929C491.836 62.1229 492.046 65.1679 492.466 67.1279C492.886 69.0179 493.796 70.4179 495.196 71.3279C496.596 72.1679 498.871 72.7629 502.021 73.1129V75.2129C499.291 75.0029 495.511 74.8979 490.681 74.8979C486.831 74.8979 483.786 75.0029 481.546 75.2129V73.1129C483.856 72.7629 485.536 72.1679 486.586 71.3279C487.706 70.4879 488.441 69.1579 488.791 67.3379C489.211 65.5179 489.421 62.8229 489.421 59.2529V12.0029C489.421 9.34289 489.211 7.41789 488.791 6.22789C488.441 5.03789 487.706 4.23289 486.586 3.81289C485.536 3.39289 483.856 3.11289 481.546 2.97289V0.87289C483.786 1.08289 486.831 1.18789 490.681 1.18789C497.121 1.18789 502.651 1.08289 507.271 0.87289L528.481 52.0079L547.801 1.18789H555.256C562.396 1.18789 567.891 1.08289 571.741 0.87289V2.97289ZM644.166 59.2529C644.166 65.6929 644.411 71.0129 644.901 75.2129C640.141 75.0029 632.126 74.8979 620.856 74.8979C605.596 74.8979 594.186 75.0029 586.626 75.2129V73.1129C588.936 72.9729 590.616 72.6929 591.666 72.2729C592.786 71.8529 593.521 71.0479 593.871 69.8579C594.291 68.6679 594.501 66.7429 594.501 64.0829V12.0029C594.501 9.34289 594.291 7.41789 593.871 6.22789C593.521 5.03789 592.786 4.23289 591.666 3.81289C590.616 3.39289 588.936 3.11289 586.626 2.97289V0.87289C594.186 1.08289 605.596 1.18789 620.856 1.18789C631.146 1.18789 638.461 1.08289 642.801 0.87289C642.311 6.68289 642.066 11.8629 642.066 16.4129C642.066 19.4929 642.171 21.8729 642.381 23.5529H639.966C638.916 16.0629 637.026 10.8129 634.296 7.80289C631.566 4.79289 627.716 3.28788 622.746 3.28788H618.441C616.271 3.28788 614.696 3.46289 613.716 3.81289C612.736 4.16289 612.071 4.86289 611.721 5.91289C611.371 6.89289 611.196 8.50289 611.196 10.7429V36.7829H614.556C618.266 36.7829 621.066 35.4179 622.956 32.6879C624.916 29.9579 626.281 26.7029 627.051 22.9229H629.466C629.256 25.8629 629.151 29.1529 629.151 32.7929V37.8329C629.151 41.4029 629.361 46.3729 629.781 52.7429H627.366C625.896 43.5029 621.626 38.8829 614.556 38.8829H611.196V65.3429C611.196 67.5829 611.371 69.2279 611.721 70.2779C612.071 71.2579 612.736 71.9229 613.716 72.2729C614.696 72.6229 616.271 72.7979 618.441 72.7979H623.586C628.556 72.7979 632.546 71.1179 635.556 67.7579C638.636 64.3279 640.806 58.5529 642.066 50.4329H644.481C644.271 52.7429 644.166 55.6829 644.166 59.2529ZM685.619 45.1829V63.4529C685.619 66.2529 685.899 68.3179 686.459 69.6479C687.089 70.9079 688.139 71.7479 689.609 72.1679C691.149 72.5879 693.564 72.8329 696.854 72.9029V75.2129C688.244 75.0029 681.839 74.8979 677.639 74.8979C674.139 74.8979 669.729 74.9679 664.409 75.1079L661.049 75.2129V73.1129C663.359 72.9729 665.039 72.6929 666.089 72.2729C667.209 71.8529 667.944 71.0479 668.294 69.8579C668.714 68.6679 668.924 66.7429 668.924 64.0829V12.0029C668.924 9.34289 668.714 7.41789 668.294 6.22789C667.944 5.03789 667.209 4.23289 666.089 3.81289C665.039 3.39289 663.359 3.11289 661.049 2.97289V0.87289C664.619 1.08289 669.939 1.18789 677.009 1.18789L688.664 1.08289C690.064 1.01289 691.674 0.977889 693.494 0.977889C702.944 0.977889 710.154 2.86789 715.124 6.64788C720.094 10.3579 722.579 15.3629 722.579 21.6629C722.579 25.5129 721.599 29.2229 719.639 32.7929C717.679 36.2929 714.354 39.2329 709.664 41.6129C705.044 43.9929 698.884 45.1829 691.184 45.1829H685.619ZM692.129 2.97289C690.239 2.97289 688.839 3.21789 687.929 3.70788C687.089 4.19789 686.494 5.07289 686.144 6.33289C685.794 7.59289 685.619 9.48289 685.619 12.0029V43.0829H690.134C695.804 43.0829 699.724 41.2629 701.894 37.6229C704.064 33.9829 705.149 29.0479 705.149 22.8179C705.149 16.0279 704.134 11.0229 702.104 7.80289C700.144 4.58289 696.819 2.97289 692.129 2.97289Z" fill="url(#paint0_linear_4133_5)"/>
<path opacity="0.18" d="M362.491 491.19C369.701 491.19 375.476 492.625 379.816 495.495C384.226 498.295 386.431 502.145 386.431 507.045C386.361 512.365 383.841 516.775 378.871 520.275C373.971 523.775 368.336 526.225 361.966 527.625C366.656 527.695 371.171 528.465 375.511 529.935C379.921 531.405 383.491 533.61 386.221 536.55C389.021 539.42 390.421 542.92 390.421 547.05C390.421 551.46 388.846 555.31 385.696 558.6C382.616 561.82 378.556 564.27 373.516 565.95C368.546 567.63 363.226 568.47 357.556 568.47C349.576 568.47 343.276 566.825 338.656 563.535C336.976 562.345 335.576 560.945 334.456 559.335C333.406 557.655 332.881 555.835 332.881 553.875C332.881 551.285 333.721 549.22 335.401 547.68C337.151 546.07 339.286 545.265 341.806 545.265C344.326 545.265 346.321 546 347.791 547.47C349.331 548.94 350.101 551.005 350.101 553.665C350.101 555.835 349.366 557.725 347.896 559.335C346.496 560.875 344.536 561.925 342.016 562.485C343.346 563.605 345.236 564.515 347.686 565.215C350.136 565.845 352.866 566.16 355.876 566.16C361.686 566.16 366.201 564.55 369.421 561.33C372.711 558.04 374.356 553.35 374.356 547.26C374.356 542.08 373.166 537.74 370.786 534.24C368.406 530.67 364.906 528.78 360.286 528.57C358.606 529.48 357.101 529.935 355.771 529.935C355.141 529.935 354.616 529.795 354.196 529.515C353.776 529.165 353.566 528.71 353.566 528.15C353.566 527.03 354.371 526.47 355.981 526.47C356.961 526.47 358.431 526.68 360.391 527.1C364.031 525.63 366.586 523.32 368.056 520.17C369.526 517.02 370.261 513.275 370.261 508.935C370.261 503.825 369.281 500.115 367.321 497.805C365.361 495.425 362.456 494.235 358.606 494.235C353.006 494.235 348.666 496.335 345.586 500.535C342.506 504.735 340.756 510.125 340.336 516.705H337.921C337.921 504.735 337.781 496.615 337.501 492.345H339.916C340.126 494.375 340.406 495.845 340.756 496.755C341.176 497.595 341.771 498.015 342.541 498.015C342.891 498.015 343.276 497.91 343.696 497.7C344.116 497.49 344.571 497.21 345.061 496.86C347.791 494.9 350.311 493.465 352.621 492.555C355.001 491.645 358.291 491.19 362.491 491.19ZM464.117 558.18C465.027 560.49 466.077 562.17 467.267 563.22C468.457 564.27 469.612 564.83 470.732 564.9V567C466.532 566.79 461.212 566.685 454.772 566.685C447.632 566.685 442.312 566.79 438.812 567V564.9C441.472 564.76 443.362 564.445 444.482 563.955C445.602 563.395 446.162 562.45 446.162 561.12C446.162 559.86 445.742 558.18 444.902 556.08L438.602 538.86H415.712L412.982 546.105C411.022 551.145 410.042 555.03 410.042 557.76C410.042 560.35 410.812 562.17 412.352 563.22C413.962 564.2 416.307 564.76 419.387 564.9V567C414.627 566.79 410.287 566.685 406.367 566.685C403.147 566.685 400.487 566.79 398.387 567V564.9C401.817 564.27 404.827 560.595 407.417 553.875L431.357 492.45C432.127 492.52 433.352 492.555 435.032 492.555C436.712 492.555 437.902 492.52 438.602 492.45L464.117 558.18ZM437.867 536.76L427.472 508.41L416.552 536.76H437.867ZM571.741 494.76C569.361 494.9 567.646 495.18 566.596 495.6C565.546 496.02 564.811 496.825 564.391 498.015C564.041 499.205 563.866 501.13 563.866 503.79V555.87C563.866 558.53 564.041 560.455 564.391 561.645C564.811 562.835 565.546 563.64 566.596 564.06C567.716 564.48 569.431 564.76 571.741 564.9V567C567.891 566.79 562.396 566.685 555.256 566.685C547.766 566.685 542.236 566.79 538.666 567V564.9C541.186 564.76 543.006 564.48 544.126 564.06C545.316 563.64 546.121 562.835 546.541 561.645C546.961 560.455 547.171 558.53 547.171 555.87V500.955L521.866 567.105H520.186L491.836 499.485V549.78C491.836 553.91 492.046 556.955 492.466 558.915C492.886 560.805 493.796 562.205 495.196 563.115C496.596 563.955 498.871 564.55 502.021 564.9V567C499.291 566.79 495.511 566.685 490.681 566.685C486.831 566.685 483.786 566.79 481.546 567V564.9C483.856 564.55 485.536 563.955 486.586 563.115C487.706 562.275 488.441 560.945 488.791 559.125C489.211 557.305 489.421 554.61 489.421 551.04V503.79C489.421 501.13 489.211 499.205 488.791 498.015C488.441 496.825 487.706 496.02 486.586 495.6C485.536 495.18 483.856 494.9 481.546 494.76V492.66C483.786 492.87 486.831 492.975 490.681 492.975C497.121 492.975 502.651 492.87 507.271 492.66L528.481 543.795L547.801 492.975H555.256C562.396 492.975 567.891 492.87 571.741 492.66V494.76ZM644.166 551.04C644.166 557.48 644.411 562.8 644.901 567C640.141 566.79 632.126 566.685 620.856 566.685C605.596 566.685 594.186 566.79 586.626 567V564.9C588.936 564.76 590.616 564.48 591.666 564.06C592.786 563.64 593.521 562.835 593.871 561.645C594.291 560.455 594.501 558.53 594.501 555.87V503.79C594.501 501.13 594.291 499.205 593.871 498.015C593.521 496.825 592.786 496.02 591.666 495.6C590.616 495.18 588.936 494.9 586.626 494.76V492.66C594.186 492.87 605.596 492.975 620.856 492.975C631.146 492.975 638.461 492.87 642.801 492.66C642.311 498.47 642.066 503.65 642.066 508.2C642.066 511.28 642.171 513.66 642.381 515.34H639.966C638.916 507.85 637.026 502.6 634.296 499.59C631.566 496.58 627.716 495.075 622.746 495.075H618.441C616.271 495.075 614.696 495.25 613.716 495.6C612.736 495.95 612.071 496.65 611.721 497.7C611.371 498.68 611.196 500.29 611.196 502.53V528.57H614.556C618.266 528.57 621.066 527.205 622.956 524.475C624.916 521.745 626.281 518.49 627.051 514.71H629.466C629.256 517.65 629.151 520.94 629.151 524.58V529.62C629.151 533.19 629.361 538.16 629.781 544.53H627.366C625.896 535.29 621.626 530.67 614.556 530.67H611.196V557.13C611.196 559.37 611.371 561.015 611.721 562.065C612.071 563.045 612.736 563.71 613.716 564.06C614.696 564.41 616.271 564.585 618.441 564.585H623.586C628.556 564.585 632.546 562.905 635.556 559.545C638.636 556.115 640.806 550.34 642.066 542.22H644.481C644.271 544.53 644.166 547.47 644.166 551.04ZM685.619 536.97V555.24C685.619 558.04 685.899 560.105 686.459 561.435C687.089 562.695 688.139 563.535 689.609 563.955C691.149 564.375 693.564 564.62 696.854 564.69V567C688.244 566.79 681.839 566.685 677.639 566.685C674.139 566.685 669.729 566.755 664.409 566.895L661.049 567V564.9C663.359 564.76 665.039 564.48 666.089 564.06C667.209 563.64 667.944 562.835 668.294 561.645C668.714 560.455 668.924 558.53 668.924 555.87V503.79C668.924 501.13 668.714 499.205 668.294 498.015C667.944 496.825 667.209 496.02 666.089 495.6C665.039 495.18 663.359 494.9 661.049 494.76V492.66C664.619 492.87 669.939 492.975 677.009 492.975L688.664 492.87C690.064 492.8 691.674 492.765 693.494 492.765C702.944 492.765 710.154 494.655 715.124 498.435C720.094 502.145 722.579 507.15 722.579 513.45C722.579 517.3 721.599 521.01 719.639 524.58C717.679 528.08 714.354 531.02 709.664 533.4C705.044 535.78 698.884 536.97 691.184 536.97H685.619ZM692.129 494.76C690.239 494.76 688.839 495.005 687.929 495.495C687.089 495.985 686.494 496.86 686.144 498.12C685.794 499.38 685.619 501.27 685.619 503.79V534.87H690.134C695.804 534.87 699.724 533.05 701.894 529.41C704.064 525.77 705.149 520.835 705.149 514.605C705.149 507.815 704.134 502.81 702.104 499.59C700.144 496.37 696.819 494.76 692.129 494.76Z" fill="url(#paint1_linear_4133_5)"/>
</g>
<defs>
<linearGradient id="paint0_linear_4133_5" x1="527.5" y1="28.8401" x2="527.5" y2="83.0002" gradientUnits="userSpaceOnUse">
<stop stop-color="#A89E94"/>
<stop offset="1" stop-color="#A1998D" stop-opacity="0"/>
</linearGradient>
<linearGradient id="paint1_linear_4133_5" x1="527.5" y1="520.627" x2="527.5" y2="574.787" gradientUnits="userSpaceOnUse">
<stop stop-color="#A89E94"/>
<stop offset="1" stop-color="#A1998D" stop-opacity="0"/>
</linearGradient>
</defs>
</svg>
