<svg width="1180" height="767" viewBox="0 0 1180 767" fill="none" xmlns="http://www.w3.org/2000/svg">
<g filter="url(#filter0_d_3228_8)">
<path d="M1120 161.054C1120 133.99 1120 120.457 1112 112.058C1104.01 103.659 1090.01 102.97 1062.01 101.593C900.488 93.6475 757.075 56 590 56C422.576 56.0001 280.141 93.6868 117.992 101.605C89.9968 102.973 75.9994 103.656 67.9996 112.056C59.9999 120.456 59.9999 133.989 59.9999 161.054L59.9999 605C59.9999 632.107 59.9999 645.66 68.0352 654.067C76.0704 662.474 90.0384 663.107 117.974 664.372C273.09 671.395 432.194 703 590 703C750.54 703 909.739 671.543 1062.03 664.422C1089.98 663.114 1103.96 662.461 1111.98 654.056C1120 645.652 1120 632.101 1120 605L1120 161.054Z" fill="white"/>
</g>
<mask id="mask0_3228_8" style="mask-type:alpha" maskUnits="userSpaceOnUse" x="63" y="56" width="1060" height="647">
<path d="M63 161.054C63 133.99 63 120.457 70.9962 112.058C78.9924 103.659 92.9917 102.97 120.99 101.593C282.512 93.6475 425.925 56 593 56C760.424 56.0001 902.859 93.6868 1065.01 101.605C1093 102.973 1107 103.656 1115 112.056C1123 120.456 1123 133.989 1123 161.054L1123 605C1123 632.107 1123 645.66 1114.96 654.067C1106.93 662.474 1092.96 663.107 1065.03 664.372C909.91 671.395 750.806 703 593 703C432.459 703 273.261 671.543 120.971 664.422C93.0174 663.114 79.0408 662.461 71.0204 654.056C62.9999 645.652 62.9999 632.101 63 605L63 161.054Z" fill="white"/>
</mask>
<g mask="url(#mask0_3228_8)">
<path opacity="0.18" d="M413.84 43.9018C420.02 43.9018 424.97 45.1318 428.69 47.5918C432.47 49.9918 434.36 53.2918 434.36 57.4918C434.3 62.0518 432.14 65.8318 427.88 68.8318C423.68 71.8318 418.85 73.9318 413.39 75.1318C417.41 75.1918 421.28 75.8518 425 77.1118C428.78 78.3718 431.84 80.2618 434.18 82.7818C436.58 85.2418 437.78 88.2418 437.78 91.7818C437.78 95.5618 436.43 98.8618 433.73 101.682C431.09 104.442 427.61 106.542 423.29 107.982C419.03 109.422 414.47 110.142 409.61 110.142C402.77 110.142 397.37 108.732 393.41 105.912C391.97 104.892 390.77 103.692 389.81 102.312C388.91 100.872 388.46 99.3118 388.46 97.6318C388.46 95.4118 389.18 93.6418 390.62 92.3218C392.12 90.9418 393.95 90.2518 396.11 90.2518C398.27 90.2518 399.98 90.8818 401.24 92.1418C402.56 93.4018 403.22 95.1718 403.22 97.4518C403.22 99.3118 402.59 100.932 401.33 102.312C400.13 103.632 398.45 104.532 396.29 105.012C397.43 105.972 399.05 106.752 401.15 107.352C403.25 107.892 405.59 108.162 408.17 108.162C413.15 108.162 417.02 106.782 419.78 104.022C422.6 101.202 424.01 97.1818 424.01 91.9618C424.01 87.5218 422.99 83.8018 420.95 80.8018C418.91 77.7418 415.91 76.1218 411.95 75.9418C410.51 76.7218 409.22 77.1118 408.08 77.1118C407.54 77.1118 407.09 76.9918 406.73 76.7518C406.37 76.4518 406.19 76.0618 406.19 75.5818C406.19 74.6218 406.88 74.1418 408.26 74.1418C409.1 74.1418 410.36 74.3218 412.04 74.6818C415.16 73.4218 417.35 71.4418 418.61 68.7418C419.87 66.0418 420.5 62.8318 420.5 59.1118C420.5 54.7318 419.66 51.5518 417.98 49.5718C416.3 47.5318 413.81 46.5118 410.51 46.5118C405.71 46.5118 401.99 48.3118 399.35 51.9118C396.71 55.5118 395.21 60.1318 394.85 65.7718H392.78C392.78 55.5118 392.66 48.5518 392.42 44.8918H394.49C394.67 46.6318 394.91 47.8918 395.21 48.6718C395.57 49.3918 396.08 49.7518 396.74 49.7518C397.04 49.7518 397.37 49.6618 397.73 49.4818C398.09 49.3018 398.48 49.0618 398.9 48.7618C401.24 47.0818 403.4 45.8518 405.38 45.0718C407.42 44.2918 410.24 43.9018 413.84 43.9018ZM481.841 79.7218C489.401 80.5018 494.741 82.1518 497.861 84.6718C500.981 87.1918 502.541 90.3418 502.541 94.1218C502.541 98.7418 500.471 102.372 496.331 105.012C492.191 107.592 486.281 108.882 478.601 108.882C476.921 108.882 475.481 108.852 474.281 108.792C470.201 108.672 466.241 108.612 462.401 108.612C457.061 108.612 452.981 108.702 450.161 108.882V107.082C452.201 106.962 453.671 106.722 454.571 106.362C455.471 106.002 456.071 105.312 456.371 104.292C456.731 103.272 456.911 101.622 456.911 99.3418V63.7018C456.911 61.4218 456.731 59.7718 456.371 58.7518C456.071 57.7318 455.471 57.0418 454.571 56.6818C453.671 56.3218 452.201 56.0818 450.161 55.9618V54.1618C452.981 54.3418 457.001 54.4318 462.221 54.4318L472.481 54.3418C473.681 54.2818 475.031 54.2518 476.531 54.2518C483.731 54.2518 489.071 55.3318 492.551 57.4918C496.091 59.5918 497.861 62.6218 497.861 66.5818C497.861 69.6418 496.601 72.2818 494.081 74.5018C491.561 76.6618 487.481 78.3418 481.841 79.5418V79.7218ZM475.361 55.9618C474.041 55.9618 473.051 56.1718 472.391 56.5918C471.731 57.0118 471.281 57.7618 471.041 58.8418C470.801 59.9218 470.681 61.5418 470.681 63.7018V79.5418H473.651C477.491 79.5418 480.131 78.4918 481.571 76.3918C483.071 74.2918 483.821 71.3518 483.821 67.5718C483.821 63.6718 483.161 60.7618 481.841 58.8418C480.521 56.9218 478.361 55.9618 475.361 55.9618ZM475.451 106.812C479.831 106.812 483.041 105.732 485.081 103.572C487.121 101.352 488.141 98.0818 488.141 93.7618C488.141 89.5618 487.091 86.4118 484.991 84.3118C482.951 82.1518 479.681 81.0718 475.181 81.0718H470.681V99.3418C470.681 101.502 470.801 103.092 471.041 104.112C471.281 105.132 471.731 105.852 472.391 106.272C473.051 106.632 474.071 106.812 475.451 106.812ZM546.498 52.9018C552.558 52.9018 557.868 54.0118 562.428 56.2318C566.988 58.3918 570.528 61.6018 573.048 65.8618C575.568 70.0618 576.828 75.1018 576.828 80.9818C576.828 86.7418 575.538 91.8418 572.958 96.2818C570.378 100.662 566.778 104.082 562.158 106.542C557.538 108.942 552.288 110.142 546.408 110.142C540.348 110.142 535.038 109.062 530.478 106.902C525.918 104.682 522.378 101.472 519.858 97.2718C517.338 93.0118 516.078 87.9418 516.078 82.0618C516.078 76.3018 517.368 71.2318 519.948 66.8518C522.528 62.4118 526.128 58.9918 530.748 56.5918C535.368 54.1318 540.618 52.9018 546.498 52.9018ZM546.138 54.5218C543.018 54.5218 540.258 55.6918 537.858 58.0318C535.518 60.3118 533.688 63.5218 532.368 67.6618C531.108 71.7418 530.478 76.4218 530.478 81.7018C530.478 87.0418 531.198 91.7518 532.638 95.8318C534.078 99.9118 536.028 103.062 538.488 105.282C541.008 107.442 543.768 108.522 546.768 108.522C549.888 108.522 552.618 107.382 554.958 105.102C557.358 102.762 559.188 99.5518 560.448 95.4718C561.768 91.3318 562.428 86.6218 562.428 81.3418C562.428 76.0018 561.708 71.2918 560.268 67.2118C558.828 63.1318 556.848 60.0118 554.328 57.8518C551.868 55.6318 549.138 54.5218 546.138 54.5218ZM653.778 55.9618C651.738 56.0818 650.268 56.3218 649.368 56.6818C648.468 57.0418 647.838 57.7318 647.478 58.7518C647.178 59.7718 647.028 61.4218 647.028 63.7018V99.3418C647.028 101.622 647.178 103.272 647.478 104.292C647.838 105.312 648.468 106.002 649.368 106.362C650.328 106.722 651.798 106.962 653.778 107.082V108.882C651.018 108.702 646.638 108.612 640.638 108.612C634.578 108.612 629.868 108.702 626.508 108.882V107.082C628.548 106.962 630.018 106.722 630.918 106.362C631.818 106.002 632.418 105.312 632.718 104.292C633.078 103.272 633.258 101.622 633.258 99.3418V81.8818H610.128V99.3418C610.128 101.622 610.278 103.272 610.578 104.292C610.938 105.312 611.568 106.002 612.468 106.362C613.428 106.722 614.898 106.962 616.878 107.082V108.882C613.578 108.702 608.868 108.612 602.748 108.612C596.868 108.612 592.488 108.702 589.608 108.882V107.082C591.648 106.962 593.118 106.722 594.018 106.362C594.918 106.002 595.518 105.312 595.818 104.292C596.178 103.272 596.358 101.622 596.358 99.3418V63.7018C596.358 61.4218 596.178 59.7718 595.818 58.7518C595.518 57.7318 594.888 57.0418 593.928 56.6818C593.028 56.3218 591.588 56.0818 589.608 55.9618V54.1618C592.488 54.3418 596.868 54.4318 602.748 54.4318C608.868 54.4318 613.578 54.3418 616.878 54.1618V55.9618C614.838 56.0818 613.368 56.3218 612.468 56.6818C611.568 57.0418 610.938 57.7318 610.578 58.7518C610.278 59.7718 610.128 61.4218 610.128 63.7018V80.0818H633.258V63.7018C633.258 61.4218 633.078 59.7718 632.718 58.7518C632.418 57.7318 631.788 57.0418 630.828 56.6818C629.928 56.3218 628.488 56.0818 626.508 55.9618V54.1618C629.868 54.3418 634.578 54.4318 640.638 54.4318C646.638 54.4318 651.018 54.3418 653.778 54.1618V55.9618ZM697.019 52.9018C703.079 52.9018 708.389 54.0118 712.949 56.2318C717.509 58.3918 721.049 61.6018 723.569 65.8618C726.089 70.0618 727.349 75.1018 727.349 80.9818C727.349 86.7418 726.059 91.8418 723.479 96.2818C720.899 100.662 717.299 104.082 712.679 106.542C708.059 108.942 702.809 110.142 696.929 110.142C690.869 110.142 685.559 109.062 680.999 106.902C676.439 104.682 672.899 101.472 670.379 97.2718C667.859 93.0118 666.599 87.9418 666.599 82.0618C666.599 76.3018 667.889 71.2318 670.469 66.8518C673.049 62.4118 676.649 58.9918 681.269 56.5918C685.889 54.1318 691.139 52.9018 697.019 52.9018ZM696.659 54.5218C693.539 54.5218 690.779 55.6918 688.379 58.0318C686.039 60.3118 684.209 63.5218 682.889 67.6618C681.629 71.7418 680.999 76.4218 680.999 81.7018C680.999 87.0418 681.719 91.7518 683.159 95.8318C684.599 99.9118 686.549 103.062 689.009 105.282C691.529 107.442 694.289 108.522 697.289 108.522C700.409 108.522 703.139 107.382 705.479 105.102C707.879 102.762 709.709 99.5518 710.969 95.4718C712.289 91.3318 712.949 86.6218 712.949 81.3418C712.949 76.0018 712.229 71.2918 710.789 67.2118C709.349 63.1318 707.369 60.0118 704.849 57.8518C702.389 55.6318 699.659 54.5218 696.659 54.5218ZM799.529 104.922C798.029 106.722 796.349 108.042 794.489 108.882C792.629 109.722 790.349 110.142 787.649 110.142C784.409 110.142 781.799 109.452 779.819 108.072C777.839 106.692 776.459 104.142 775.679 100.422L773.339 89.9818C772.859 87.9418 772.289 86.3218 771.629 85.1218C771.029 83.8618 770.009 82.8418 768.569 82.0618C767.189 81.2818 765.269 80.8918 762.809 80.8918H760.649V99.3418C760.649 101.622 760.799 103.272 761.099 104.292C761.459 105.312 762.089 106.002 762.989 106.362C763.889 106.722 765.359 106.962 767.399 107.082V108.882C764.339 108.702 759.899 108.612 754.079 108.612C747.779 108.612 743.129 108.702 740.129 108.882V107.082C742.169 106.962 743.639 106.722 744.539 106.362C745.439 106.002 746.039 105.312 746.339 104.292C746.699 103.272 746.879 101.622 746.879 99.3418V63.7018C746.879 61.4218 746.699 59.7718 746.339 58.7518C746.039 57.7318 745.409 57.0418 744.449 56.6818C743.549 56.3218 742.109 56.0818 740.129 55.9618V54.1618C743.069 54.3418 747.719 54.4318 754.079 54.4318C759.899 54.4318 764.339 54.3418 767.399 54.1618V55.9618C765.359 56.0818 763.889 56.3218 762.989 56.6818C762.089 57.0418 761.459 57.7318 761.099 58.7518C760.799 59.7718 760.649 61.4218 760.649 63.7018V79.1818C763.229 78.8818 765.479 78.2518 767.399 77.2918C769.379 76.3318 771.419 74.7418 773.519 72.5218L778.559 67.1218C780.659 64.8418 781.709 62.7418 781.709 60.8218C781.709 59.3818 781.139 58.2418 779.999 57.4018C778.859 56.5018 777.359 55.9918 775.499 55.8718V54.1618C779.819 54.3418 784.199 54.4318 788.639 54.4318C792.299 54.4318 795.209 54.3418 797.369 54.1618V55.8718C795.269 56.3518 793.229 57.1918 791.249 58.3918C789.329 59.5318 787.289 61.1518 785.129 63.2518L768.569 79.5418C773.669 79.9018 777.959 80.9218 781.439 82.6018C784.919 84.2818 787.199 87.1318 788.279 91.1518L790.349 99.4318C791.009 102.012 791.639 103.752 792.239 104.652C792.899 105.492 793.709 105.912 794.669 105.912C795.389 105.852 796.019 105.672 796.559 105.372C797.099 105.012 797.669 104.502 798.269 103.842L799.529 104.922Z" fill="url(#paint0_linear_3228_8)"/>
<path opacity="0.18" d="M413.605 646.326C419.065 646.326 423.475 647.376 426.835 649.476C430.255 651.576 431.965 654.486 431.965 658.206C431.965 662.286 429.985 665.616 426.025 668.196C422.065 670.716 417.175 672.336 411.355 673.056C418.015 673.056 423.685 674.256 428.365 676.656C433.045 679.056 435.385 682.656 435.385 687.456C435.385 692.496 433.045 696.456 428.365 699.336C423.685 702.156 417.295 703.566 409.195 703.566C403.315 703.566 398.665 702.576 395.245 700.596C393.865 699.756 392.785 698.736 392.005 697.536C391.225 696.336 390.835 695.046 390.835 693.666C390.835 691.806 391.435 690.306 392.635 689.166C393.895 687.966 395.575 687.366 397.675 687.366C399.775 687.366 401.485 687.936 402.805 689.076C404.185 690.216 404.875 691.746 404.875 693.666C404.875 695.286 404.365 696.666 403.345 697.806C402.325 698.886 401.035 699.636 399.475 700.056C400.075 700.536 401.125 700.956 402.625 701.316C404.125 701.676 405.685 701.856 407.305 701.856C411.925 701.856 415.375 700.596 417.655 698.076C419.935 695.556 421.075 692.166 421.075 687.906C421.075 684.486 420.355 681.546 418.915 679.086C417.535 676.626 415.555 675.036 412.975 674.316C412.075 674.016 411.055 673.866 409.915 673.866C408.475 674.646 407.185 675.036 406.045 675.036C404.785 675.036 404.155 674.526 404.155 673.506C404.155 672.546 404.815 672.066 406.135 672.066C407.035 672.066 408.325 672.246 410.005 672.606C412.765 671.586 414.715 670.026 415.855 667.926C416.995 665.826 417.565 663.036 417.565 659.556C417.565 655.836 416.935 653.106 415.675 651.366C414.475 649.626 412.465 648.756 409.645 648.756C405.805 648.756 402.745 650.226 400.465 653.166C398.245 656.106 396.985 660.036 396.685 664.956H394.615C394.615 656.436 394.465 650.436 394.165 646.956H396.235C396.415 648.336 396.655 649.356 396.955 650.016C397.255 650.616 397.705 650.916 398.305 650.916C398.965 650.916 399.955 650.526 401.275 649.746C403.075 648.666 404.845 647.826 406.585 647.226C408.325 646.626 410.665 646.326 413.605 646.326ZM479.555 673.146C487.115 673.926 492.455 675.576 495.575 678.096C498.695 680.616 500.255 683.766 500.255 687.546C500.255 692.166 498.185 695.796 494.045 698.436C489.905 701.016 483.995 702.306 476.315 702.306C474.635 702.306 473.195 702.276 471.995 702.216C467.915 702.096 463.955 702.036 460.115 702.036C454.775 702.036 450.695 702.126 447.875 702.306V700.506C449.915 700.386 451.385 700.146 452.285 699.786C453.185 699.426 453.785 698.736 454.085 697.716C454.445 696.696 454.625 695.046 454.625 692.766V657.126C454.625 654.846 454.445 653.196 454.085 652.176C453.785 651.156 453.185 650.466 452.285 650.106C451.385 649.746 449.915 649.506 447.875 649.386V647.586C450.695 647.766 454.715 647.856 459.935 647.856L470.195 647.766C471.395 647.706 472.745 647.676 474.245 647.676C481.445 647.676 486.785 648.756 490.265 650.916C493.805 653.016 495.575 656.046 495.575 660.006C495.575 663.066 494.315 665.706 491.795 667.926C489.275 670.086 485.195 671.766 479.555 672.966V673.146ZM473.075 649.386C471.755 649.386 470.765 649.596 470.105 650.016C469.445 650.436 468.995 651.186 468.755 652.266C468.515 653.346 468.395 654.966 468.395 657.126V672.966H471.365C475.205 672.966 477.845 671.916 479.285 669.816C480.785 667.716 481.535 664.776 481.535 660.996C481.535 657.096 480.875 654.186 479.555 652.266C478.235 650.346 476.075 649.386 473.075 649.386ZM473.165 700.236C477.545 700.236 480.755 699.156 482.795 696.996C484.835 694.776 485.855 691.506 485.855 687.186C485.855 682.986 484.805 679.836 482.705 677.736C480.665 675.576 477.395 674.496 472.895 674.496H468.395V692.766C468.395 694.926 468.515 696.516 468.755 697.536C468.995 698.556 469.445 699.276 470.105 699.696C470.765 700.056 471.785 700.236 473.165 700.236ZM544.213 646.326C550.273 646.326 555.583 647.436 560.143 649.656C564.703 651.816 568.243 655.026 570.763 659.286C573.283 663.486 574.543 668.526 574.543 674.406C574.543 680.166 573.253 685.266 570.673 689.706C568.093 694.086 564.493 697.506 559.873 699.966C555.253 702.366 550.003 703.566 544.123 703.566C538.063 703.566 532.753 702.486 528.193 700.326C523.633 698.106 520.093 694.896 517.573 690.696C515.053 686.436 513.793 681.366 513.793 675.486C513.793 669.726 515.083 664.656 517.663 660.276C520.243 655.836 523.843 652.416 528.463 650.016C533.083 647.556 538.333 646.326 544.213 646.326ZM543.853 647.946C540.733 647.946 537.973 649.116 535.573 651.456C533.233 653.736 531.403 656.946 530.083 661.086C528.823 665.166 528.193 669.846 528.193 675.126C528.193 680.466 528.913 685.176 530.353 689.256C531.793 693.336 533.743 696.486 536.203 698.706C538.723 700.866 541.483 701.946 544.483 701.946C547.603 701.946 550.333 700.806 552.673 698.526C555.073 696.186 556.903 692.976 558.163 688.896C559.483 684.756 560.143 680.046 560.143 674.766C560.143 669.426 559.423 664.716 557.983 660.636C556.543 656.556 554.563 653.436 552.043 651.276C549.583 649.056 546.853 647.946 543.853 647.946ZM651.493 649.386C649.453 649.506 647.983 649.746 647.083 650.106C646.183 650.466 645.553 651.156 645.193 652.176C644.893 653.196 644.743 654.846 644.743 657.126V692.766C644.743 695.046 644.893 696.696 645.193 697.716C645.553 698.736 646.183 699.426 647.083 699.786C648.043 700.146 649.513 700.386 651.493 700.506V702.306C648.733 702.126 644.353 702.036 638.353 702.036C632.293 702.036 627.583 702.126 624.223 702.306V700.506C626.263 700.386 627.733 700.146 628.633 699.786C629.533 699.426 630.133 698.736 630.433 697.716C630.793 696.696 630.973 695.046 630.973 692.766V675.306H607.843V692.766C607.843 695.046 607.993 696.696 608.293 697.716C608.653 698.736 609.283 699.426 610.183 699.786C611.143 700.146 612.613 700.386 614.593 700.506V702.306C611.293 702.126 606.583 702.036 600.463 702.036C594.583 702.036 590.203 702.126 587.323 702.306V700.506C589.363 700.386 590.833 700.146 591.733 699.786C592.633 699.426 593.233 698.736 593.533 697.716C593.893 696.696 594.073 695.046 594.073 692.766V657.126C594.073 654.846 593.893 653.196 593.533 652.176C593.233 651.156 592.603 650.466 591.643 650.106C590.743 649.746 589.303 649.506 587.323 649.386V647.586C590.203 647.766 594.583 647.856 600.463 647.856C606.583 647.856 611.293 647.766 614.593 647.586V649.386C612.553 649.506 611.083 649.746 610.183 650.106C609.283 650.466 608.653 651.156 608.293 652.176C607.993 653.196 607.843 654.846 607.843 657.126V673.506H630.973V657.126C630.973 654.846 630.793 653.196 630.433 652.176C630.133 651.156 629.503 650.466 628.543 650.106C627.643 649.746 626.203 649.506 624.223 649.386V647.586C627.583 647.766 632.293 647.856 638.353 647.856C644.353 647.856 648.733 647.766 651.493 647.586V649.386ZM694.734 646.326C700.794 646.326 706.104 647.436 710.664 649.656C715.224 651.816 718.764 655.026 721.284 659.286C723.804 663.486 725.064 668.526 725.064 674.406C725.064 680.166 723.774 685.266 721.194 689.706C718.614 694.086 715.014 697.506 710.394 699.966C705.774 702.366 700.524 703.566 694.644 703.566C688.584 703.566 683.274 702.486 678.714 700.326C674.154 698.106 670.614 694.896 668.094 690.696C665.574 686.436 664.314 681.366 664.314 675.486C664.314 669.726 665.604 664.656 668.184 660.276C670.764 655.836 674.364 652.416 678.984 650.016C683.604 647.556 688.854 646.326 694.734 646.326ZM694.374 647.946C691.254 647.946 688.494 649.116 686.094 651.456C683.754 653.736 681.924 656.946 680.604 661.086C679.344 665.166 678.714 669.846 678.714 675.126C678.714 680.466 679.434 685.176 680.874 689.256C682.314 693.336 684.264 696.486 686.724 698.706C689.244 700.866 692.004 701.946 695.004 701.946C698.124 701.946 700.854 700.806 703.194 698.526C705.594 696.186 707.424 692.976 708.684 688.896C710.004 684.756 710.664 680.046 710.664 674.766C710.664 669.426 709.944 664.716 708.504 660.636C707.064 656.556 705.084 653.436 702.564 651.276C700.104 649.056 697.374 647.946 694.374 647.946ZM797.244 698.346C795.744 700.146 794.064 701.466 792.204 702.306C790.344 703.146 788.064 703.566 785.364 703.566C782.124 703.566 779.514 702.876 777.534 701.496C775.554 700.116 774.174 697.566 773.394 693.846L771.054 683.406C770.574 681.366 770.004 679.746 769.344 678.546C768.744 677.286 767.724 676.266 766.284 675.486C764.904 674.706 762.984 674.316 760.524 674.316H758.364V692.766C758.364 695.046 758.514 696.696 758.814 697.716C759.174 698.736 759.804 699.426 760.704 699.786C761.604 700.146 763.074 700.386 765.114 700.506V702.306C762.054 702.126 757.614 702.036 751.794 702.036C745.494 702.036 740.844 702.126 737.844 702.306V700.506C739.884 700.386 741.354 700.146 742.254 699.786C743.154 699.426 743.754 698.736 744.054 697.716C744.414 696.696 744.594 695.046 744.594 692.766V657.126C744.594 654.846 744.414 653.196 744.054 652.176C743.754 651.156 743.124 650.466 742.164 650.106C741.264 649.746 739.824 649.506 737.844 649.386V647.586C740.784 647.766 745.434 647.856 751.794 647.856C757.614 647.856 762.054 647.766 765.114 647.586V649.386C763.074 649.506 761.604 649.746 760.704 650.106C759.804 650.466 759.174 651.156 758.814 652.176C758.514 653.196 758.364 654.846 758.364 657.126V672.606C760.944 672.306 763.194 671.676 765.114 670.716C767.094 669.756 769.134 668.166 771.234 665.946L776.274 660.546C778.374 658.266 779.424 656.166 779.424 654.246C779.424 652.806 778.854 651.666 777.714 650.826C776.574 649.926 775.074 649.416 773.214 649.296V647.586C777.534 647.766 781.914 647.856 786.354 647.856C790.014 647.856 792.924 647.766 795.084 647.586V649.296C792.984 649.776 790.944 650.616 788.964 651.816C787.044 652.956 785.004 654.576 782.844 656.676L766.284 672.966C771.384 673.326 775.674 674.346 779.154 676.026C782.634 677.706 784.914 680.556 785.994 684.576L788.064 692.856C788.724 695.436 789.354 697.176 789.954 698.076C790.614 698.916 791.424 699.336 792.384 699.336C793.104 699.276 793.734 699.096 794.274 698.796C794.814 698.436 795.384 697.926 795.984 697.266L797.244 698.346Z" fill="url(#paint1_linear_3228_8)"/>
</g>
<defs>
<filter id="filter0_d_3228_8" x="0" y="0" width="1180" height="767" filterUnits="userSpaceOnUse" color-interpolation-filters="sRGB">
<feFlood flood-opacity="0" result="BackgroundImageFix"/>
<feColorMatrix in="SourceAlpha" type="matrix" values="0 0 0 0 0 0 0 0 0 0 0 0 0 0 0 0 0 0 127 0" result="hardAlpha"/>
<feOffset dy="4"/>
<feGaussianBlur stdDeviation="30"/>
<feComposite in2="hardAlpha" operator="out"/>
<feColorMatrix type="matrix" values="0 0 0 0 0.866667 0 0 0 0 0.835294 0 0 0 0 0.796078 0 0 0 0.26 0"/>
<feBlend mode="normal" in2="BackgroundImageFix" result="effect1_dropShadow_3228_8"/>
<feBlend mode="normal" in="SourceGraphic" in2="effect1_dropShadow_3228_8" result="shape"/>
</filter>
<linearGradient id="paint0_linear_3228_8" x1="593.5" y1="81.2388" x2="593.5" y2="137.652" gradientUnits="userSpaceOnUse">
<stop stop-color="#A89E94"/>
<stop offset="1" stop-color="#A1998D" stop-opacity="0"/>
</linearGradient>
<linearGradient id="paint1_linear_3228_8" x1="593.5" y1="674.663" x2="593.5" y2="731.076" gradientUnits="userSpaceOnUse">
<stop stop-color="#A89E94"/>
<stop offset="1" stop-color="#A1998D" stop-opacity="0"/>
</linearGradient>
</defs>
</svg>
