<svg width="673" height="220" viewBox="0 0 673 220" fill="none" xmlns="http://www.w3.org/2000/svg">
<path d="M0.500024 73.9999C0.500025 60.4171 0.501007 50.2784 1.50756 42.4808C2.51253 34.6957 4.51201 29.3201 8.45371 25.2197C12.3935 21.1213 17.7776 18.9064 25.7082 17.5869C33.6491 16.2657 44.0631 15.8535 58.0116 15.3027C95.5328 13.8209 131.725 11.1665 167.933 8.51093C177.127 7.83665 186.321 7.1623 195.539 6.50705C241.063 3.27092 287.157 0.500025 336.5 0.500029C385.958 0.500034 431.983 3.27517 477.444 6.51449C486.552 7.16352 495.639 7.8312 504.725 8.49893C540.987 11.1636 577.257 13.8289 614.988 15.3112C628.935 15.8592 639.348 16.2692 647.289 17.589C655.219 18.9071 660.604 21.1214 664.544 25.22C668.487 29.3207 670.487 34.6963 671.492 42.4814C672.499 50.2788 672.5 60.4174 672.5 74L672.5 148.399C672.5 162.004 672.499 172.159 671.487 179.968C670.477 187.765 668.467 193.148 664.505 197.253C660.544 201.356 655.157 203.558 647.237 204.849C639.307 206.141 628.916 206.509 614.998 207C579.139 208.265 542.998 210.448 506.722 212.64C450.12 216.06 393.19 219.5 336.5 219.5C278.106 219.5 220.016 215.99 162.852 212.536C127.498 210.4 92.4984 208.285 58.0004 207.035C44.0769 206.531 33.6818 206.153 25.7496 204.854C17.828 203.557 12.4419 201.352 8.4859 197.25C4.52818 193.147 2.52065 187.764 1.51163 179.967C0.501001 172.158 0.500016 162.003 0.500018 148.399L0.500024 73.9999Z" stroke="#9D9387"/>
</svg>
