<?xml version="1.0" standalone="no"?>
<!DOCTYPE svg PUBLIC "-//W3C//DTD SVG 20010904//EN"
 "http://www.w3.org/TR/2001/REC-SVG-20010904/DTD/svg10.dtd">
<svg version="1.0" xmlns="http://www.w3.org/2000/svg"
 width="361.000000pt" height="361.000000pt" viewBox="0 0 361.000000 361.000000"
 preserveAspectRatio="xMidYMid meet">
<metadata>
Created by potrace 1.14, written by Peter Selinger 2001-2017
</metadata>
<g transform="translate(0.000000,361.000000) scale(0.100000,-0.100000)"
fill="#000000" stroke="none">
<path d="M1555 2931 c-3 -5 -2 -12 3 -15 5 -3 9 1 9 9 0 17 -3 19 -12 6z"/>
<path d="M540 2897 c0 -8 4 -17 9 -19 7 -3 27 -31 76 -106 6 -9 18 -25 28 -36
9 -11 17 -26 17 -33 0 -7 3 -13 8 -13 4 0 22 -22 41 -49 34 -50 71 -79 56 -44
-38 89 -43 121 -20 129 8 4 13 9 10 13 -2 4 10 16 27 26 28 16 57 18 317 17
157 -1 289 -1 293 -2 4 0 8 -282 8 -627 0 -480 -3 -630 -13 -642 -10 -12 -9
-13 1 -7 11 7 13 -20 10 -146 -3 -146 -4 -157 -28 -191 -28 -41 -81 -67 -136
-67 -24 0 -34 -4 -32 -12 4 -10 69 -13 279 -14 152 0 282 -4 290 -9 12 -8 12
-6 0 8 -7 9 -10 18 -5 18 9 1 -66 18 -95 21 -26 3 -88 74 -94 109 -4 19 -6
377 -7 797 l0 762 83 0 c415 2 400 3 392 -10 -3 -5 0 -8 7 -5 7 3 18 1 24 -3
13 -8 45 -68 39 -73 -2 -3 -6 -17 -9 -33 -3 -16 -10 -34 -16 -40 -5 -5 -10
-15 -10 -21 0 -14 37 -14 37 0 0 9 79 134 92 145 4 3 30 39 59 82 52 77 53 95
4 77 -24 -9 -47 -13 -162 -26 -149 -18 -1438 -8 -1469 11 -3 2 -22 7 -42 10
-20 3 -43 8 -52 12 -11 4 -17 1 -17 -9z"/>
<path d="M1590 2586 c0 -2 8 -10 18 -17 15 -13 16 -12 3 4 -13 16 -21 21 -21
13z"/>
<path d="M1630 2509 c0 -5 5 -7 10 -4 6 3 10 8 10 11 0 2 -4 4 -10 4 -5 0 -10
-5 -10 -11z"/>
<path d="M2248 2502 c-84 -3 -102 -16 -38 -26 42 -7 60 -27 60 -68 0 -26 -116
-175 -132 -170 -5 1 -7 -1 -4 -6 5 -8 -20 -46 -56 -84 -10 -10 -18 -21 -18
-24 0 -3 -6 -11 -12 -18 -7 -7 -24 -28 -38 -46 -14 -18 -38 -50 -55 -70 -16
-20 -43 -53 -60 -74 -16 -22 -34 -44 -40 -50 -5 -6 -23 -28 -38 -49 -16 -20
-32 -35 -38 -32 -5 4 -6 -2 -2 -11 5 -14 3 -16 -11 -11 -10 4 -15 3 -11 -4 9
-13 -14 -41 -28 -32 -6 3 -7 1 -3 -6 5 -7 -7 -30 -29 -56 -20 -25 -29 -42 -21
-39 9 3 16 2 16 -4 0 -9 15 -27 96 -113 13 -14 24 -28 24 -31 0 -4 15 -22 33
-40 57 -61 77 -87 73 -100 -1 -7 -1 -10 1 -5 10 17 24 5 18 -15 -4 -15 -3 -19
3 -10 6 9 15 5 35 -19 14 -18 24 -37 20 -42 -3 -6 -1 -7 4 -4 11 7 160 -162
156 -175 -2 -5 1 -7 6 -5 5 1 33 -21 62 -48 111 -104 279 -213 376 -244 23 -8
40 -18 36 -24 -3 -6 -2 -7 4 -4 5 3 27 1 49 -4 41 -10 58 -14 109 -24 34 -7
157 -7 201 0 16 3 44 7 62 10 17 3 32 12 32 19 0 9 -24 15 -78 19 -85 7 -246
52 -237 67 3 6 0 7 -8 4 -14 -5 -116 45 -148 72 -8 8 -19 14 -23 14 -11 0 -68
42 -99 72 -15 16 -30 28 -35 29 -4 1 -6 5 -4 11 1 5 -2 7 -6 4 -11 -7 -62 38
-62 54 0 6 -4 9 -8 6 -9 -5 -92 78 -92 91 0 5 -9 14 -20 21 -11 7 -20 16 -20
21 0 5 -15 24 -33 42 -53 56 -112 131 -109 141 1 5 -2 7 -7 4 -5 -3 -20 9 -34
27 -14 17 -37 46 -51 62 -14 17 -26 36 -26 43 0 7 -4 11 -9 7 -5 -3 -20 9 -32
27 -13 18 -30 38 -38 44 -8 6 -11 16 -7 23 5 7 2 10 -6 9 -7 -2 -12 3 -11 9 2
7 -2 12 -8 10 -6 -1 -16 6 -22 15 -9 14 -8 21 7 35 10 10 15 12 11 4 -6 -10
-4 -12 4 -7 7 5 10 10 7 13 -5 6 50 82 68 95 6 4 14 4 20 1 5 -3 6 -2 3 4 -9
14 22 55 35 47 7 -5 9 -1 5 9 -3 9 -3 17 1 19 7 3 56 58 135 151 27 31 54 54
60 50 5 -3 7 -2 4 4 -8 13 22 55 34 47 5 -3 8 -1 7 4 -4 12 162 208 174 205 4
-2 8 3 8 10 0 29 120 85 200 93 46 5 57 10 48 20 -7 6 -322 11 -440 6z"/>
<path d="M1356 2412 c-3 -5 1 -9 9 -9 8 0 12 4 9 9 -3 4 -7 8 -9 8 -2 0 -6 -4
-9 -8z"/>
<path d="M1614 2032 c4 -3 14 -7 22 -8 9 -1 13 0 10 4 -4 3 -14 7 -22 8 -9 1
-13 0 -10 -4z"/>
<path d="M1715 1989 c-3 -4 2 -6 10 -5 21 3 28 13 10 13 -9 0 -18 -4 -20 -8z"/>
<path d="M1790 1993 c0 -6 8 -17 18 -24 16 -13 16 -13 2 6 -8 11 -16 22 -17
24 -2 2 -3 0 -3 -6z"/>
<path d="M1650 1949 c0 -5 5 -7 10 -4 6 3 10 8 10 11 0 2 -4 4 -10 4 -5 0 -10
-5 -10 -11z"/>
<path d="M1750 1946 c0 -2 8 -10 18 -17 15 -13 16 -12 3 4 -13 16 -21 21 -21
13z"/>
<path d="M1809 1927 c6 -8 7 -18 3 -22 -4 -5 -1 -5 6 -1 10 6 10 11 1 22 -6 8
-14 14 -16 14 -3 0 0 -6 6 -13z"/>
<path d="M1626 1892 c-3 -5 1 -9 9 -9 8 0 12 4 9 9 -3 4 -7 8 -9 8 -2 0 -6 -4
-9 -8z"/>
<path d="M1710 1826 c0 -2 8 -10 18 -17 15 -13 16 -12 3 4 -13 16 -21 21 -21
13z"/>
<path d="M1596 1788 c3 -5 10 -6 15 -3 13 9 11 12 -6 12 -8 0 -12 -4 -9 -9z"/>
<path d="M1666 1772 c-3 -5 1 -9 9 -9 8 0 12 4 9 9 -3 4 -7 8 -9 8 -2 0 -6 -4
-9 -8z"/>
<path d="M1355 1750 c-3 -5 -1 -10 4 -10 6 0 11 5 11 10 0 6 -2 10 -4 10 -3 0
-8 -4 -11 -10z"/>
<path d="M1939 1758 c-5 -18 -6 -38 -1 -34 7 8 12 36 6 36 -2 0 -4 -1 -5 -2z"/>
<path d="M1633 1733 c4 -3 1 -13 -6 -22 -11 -14 -10 -14 5 -2 16 12 16 31 1
31 -4 0 -3 -3 0 -7z"/>
<path d="M1345 1690 c-3 -6 1 -7 9 -4 18 7 21 14 7 14 -6 0 -13 -4 -16 -10z"/>
<path d="M1905 1690 c-3 -6 1 -7 9 -4 18 7 21 14 7 14 -6 0 -13 -4 -16 -10z"/>
<path d="M1667 1669 c7 -7 15 -10 18 -7 3 3 -2 9 -12 12 -14 6 -15 5 -6 -5z"/>
<path d="M1594 1630 c0 -13 4 -16 10 -10 7 7 7 13 0 20 -6 6 -10 3 -10 -10z"/>
<path d="M1634 1626 c1 -8 5 -18 8 -22 4 -3 5 1 4 10 -1 8 -5 18 -8 22 -4 3
-5 -1 -4 -10z"/>
<path d="M1596 1592 c-3 -5 1 -9 9 -9 8 0 12 4 9 9 -3 4 -7 8 -9 8 -2 0 -6 -4
-9 -8z"/>
<path d="M2030 1571 c0 -6 4 -13 10 -16 6 -3 7 1 4 9 -7 18 -14 21 -14 7z"/>
<path d="M1599 1558 c-7 -23 -4 -35 7 -35 9 0 11 4 4 12 -5 7 -7 15 -3 18 3 4
3 7 0 7 -4 0 -7 -1 -8 -2z"/>
<path d="M1617 1503 c-10 -9 -9 -23 1 -23 5 0 9 7 9 15 0 17 -1 18 -10 8z"/>
<path d="M1675 1491 c3 -3 17 -6 31 -7 13 0 22 2 19 5 -3 3 -17 6 -31 7 -13 0
-22 -2 -19 -5z"/>
<path d="M1595 1450 c-3 -5 -1 -10 4 -10 6 0 11 5 11 10 0 6 -2 10 -4 10 -3 0
-8 -4 -11 -10z"/>
<path d="M1705 1430 c-3 -6 1 -7 9 -4 18 7 21 14 7 14 -6 0 -13 -4 -16 -10z"/>
<path d="M1790 1432 c0 -5 7 -9 15 -9 8 0 12 4 9 9 -3 4 -9 8 -15 8 -5 0 -9
-4 -9 -8z"/>
<path d="M1636 1377 c3 -10 9 -15 12 -12 3 3 0 11 -7 18 -10 9 -11 8 -5 -6z"/>
<path d="M1665 1330 c-3 -6 1 -7 9 -4 18 7 21 14 7 14 -6 0 -13 -4 -16 -10z"/>
<path d="M1875 1330 c3 -5 8 -10 11 -10 2 0 4 5 4 10 0 6 -5 10 -11 10 -5 0
-7 -4 -4 -10z"/>
<path d="M1810 1309 c0 -5 5 -7 10 -4 6 3 10 8 10 11 0 2 -4 4 -10 4 -5 0 -10
-5 -10 -11z"/>
<path d="M1675 1301 c-3 -5 -2 -12 3 -15 5 -3 9 1 9 9 0 17 -3 19 -12 6z"/>
<path d="M1734 1266 c1 -8 5 -18 8 -22 4 -3 5 1 4 10 -1 8 -5 18 -8 22 -4 3
-5 -1 -4 -10z"/>
<path d="M1846 1268 c3 -5 10 -6 15 -3 13 9 11 12 -6 12 -8 0 -12 -4 -9 -9z"/>
<path d="M2007 1209 c7 -7 15 -10 18 -7 3 3 -2 9 -12 12 -14 6 -15 5 -6 -5z"/>
<path d="M1873 1165 c0 -8 4 -12 9 -9 5 3 6 10 3 15 -9 13 -12 11 -12 -6z"/>
<path d="M1835 1099 c-4 -6 -5 -12 -2 -15 2 -3 7 2 10 11 7 17 1 20 -8 4z"/>
</g>
</svg>
