<svg width="369" height="510" viewBox="0 0 369 510" fill="none" xmlns="http://www.w3.org/2000/svg">
<path d="M262.459 344.474C273.897 333.019 292.443 333.019 303.882 344.474L360.066 400.736C371.504 412.19 371.504 430.762 360.066 442.216C348.627 453.671 330.081 453.671 318.643 442.216L262.459 385.954C251.02 374.5 251.02 355.928 262.459 344.474Z" fill="#24A048"/>
<path d="M339.709 451.164C323.533 451.164 310.419 438.031 310.419 421.832V30.7479C310.419 14.5487 323.533 1.41661 339.709 1.41661C355.886 1.41661 369 14.5487 369 30.7479L369 421.832C369 438.031 355.886 451.164 339.709 451.164Z" fill="#4BB854"/>
<path d="M103.315 265.698C91.876 254.244 91.876 235.672 103.315 224.218L318.642 8.59095C330.081 -2.86364 348.626 -2.86366 360.065 8.59094C371.504 20.0455 371.504 38.6171 360.065 50.0717L144.738 265.698C133.299 277.153 114.753 277.153 103.315 265.698Z" fill="#21AB9D"/>
<path d="M103.315 265.698C91.876 254.244 91.876 235.672 103.315 224.218C114.753 212.763 133.299 212.763 144.738 224.218C156.176 235.672 156.176 254.244 144.738 265.698C133.299 277.153 114.753 277.153 103.315 265.698Z" fill="#209583" fill-opacity="0.5"/>
<path d="M106.541 165.526C95.1027 176.981 76.5569 176.981 65.1182 165.526L8.93423 109.264C-2.50446 97.8096 -2.50444 79.2381 8.93424 67.7835C20.3729 56.3289 38.9187 56.3289 50.3574 67.7835L106.541 124.046C117.98 135.5 117.98 154.072 106.541 165.526Z" fill="#F58615"/>
<path d="M29.2906 58.8365C45.4674 58.8365 58.5812 71.9685 58.5812 88.1678L58.5813 479.252C58.5813 495.451 45.4674 508.583 29.2907 508.583C13.1139 508.583 5.33346e-05 495.451 5.12133e-05 479.252L0 88.1678C-2.12132e-06 71.9685 13.1139 58.8365 29.2906 58.8365Z" fill="#FA961D"/>
<path d="M265.685 244.302C277.124 255.756 277.124 274.328 265.685 285.782L50.3582 501.409C38.9195 512.864 20.3737 512.864 8.93501 501.409C-2.50368 489.954 -2.50368 471.383 8.93501 459.928L224.262 244.302C235.701 232.847 254.247 232.847 265.685 244.302Z" fill="#E11F28"/>
<path d="M265.685 244.302C277.124 255.756 277.124 274.328 265.685 285.782C254.247 297.237 235.701 297.237 224.262 285.782C212.824 274.328 212.823 255.756 224.262 244.302C235.701 232.847 254.247 232.847 265.685 244.302Z" fill="#CA202A" fill-opacity="0.5"/>
</svg>
