<svg width="66" height="64" viewBox="0 0 66 64" fill="none" xmlns="http://www.w3.org/2000/svg">
<path d="M58.0485 0.0243068L58.4528 0.00145015C61.4208 -0.0683058 64.1379 2.38754 64.1133 5.41668C64.1005 7.0043 63.3337 8.52912 62.5178 9.85956L63.8766 10.6181C66.2903 11.9094 66.2402 12.0467 64.9 14.6026L62.2614 19.4849C61.9502 20.1032 61.6307 20.8834 60.9156 21.1272C60.0741 21.414 59.3435 20.8387 59.19 20.0085L59.1813 19.9571C59.0733 19.3387 59.4952 18.792 59.777 18.2821L62.568 13.045L61.4372 12.4178C61.0256 13.3843 60.5346 14.304 60.0462 15.2328L57.152 20.6477C56.9124 21.0693 56.6229 21.5372 56.4734 22.0025C57.1079 21.9825 57.8414 21.9087 58.4665 22.0345L58.5296 22.0482C61.3776 22.6361 61.628 25.0477 61.6316 27.4343L61.635 54.7006C61.6346 55.9637 61.8585 58.3459 60.3824 58.9124C60.2889 58.9484 60.3286 59.1724 60.3358 59.2679C60.4102 60.242 60.473 61.5098 59.932 62.3741L59.8953 62.4317C59.0057 63.8601 57.8844 64 56.3985 64L19.5459 63.9988L2.79768 63.9077C1.41915 63.5916 0.28545 62.2818 0.20926 60.8568L0.181663 27.2855C0.174891 24.199 1.6997 23.1797 4.78437 23.2458C4.68499 22.5709 4.718 21.3239 4.77303 20.6435L4.77946 20.5708C4.86141 19.5357 6.31816 19.6374 6.96966 19.6366L9.36744 19.6393L9.36676 16.9151C9.3671 16.4816 9.27229 15.7565 9.45988 15.3727L9.48562 15.3222C9.93734 14.3737 10.9324 14.5569 11.8167 14.5608C18.2285 14.5886 24.912 15.9999 29.895 20.2744L30.8381 21.1434C30.9926 21.2899 31.1926 21.4426 31.313 21.6167L31.4868 21.8454C31.6816 21.9537 42.6216 21.8737 43.7898 21.8708C43.955 21.6597 44.0226 21.3099 44.1487 21.0581L52.8037 4.54575C54.0375 2.12156 54.9506 0.318569 58.0485 0.0243068ZM12.1445 17.3519L12.1526 51.7147C15.956 51.7406 20.0093 52.6447 23.3677 54.4577L26.1888 56.1315C27.216 56.7772 28.5967 56.3724 29.7567 56.5869L29.7582 27.3517C29.7582 26.7153 29.9732 24.1373 29.5973 23.7745L28.6126 22.7881C24.2299 18.7323 17.9286 17.3375 12.1445 17.3519ZM32.5186 24.5708C32.3087 24.7782 32.4443 25.5443 32.4428 25.8447L32.4377 56.505L58.905 56.4772L58.9033 29.227C58.903 28.2353 59.3009 25.2204 58.318 24.8049L58.2508 24.7757C57.9494 24.6802 57.4334 24.7311 57.1096 24.7284L55.4927 24.6727L55.0701 24.6256L45.5357 42.6433C44.6694 44.3139 45.1147 43.7865 43.5831 44.9612L36.5111 50.1404C35.5791 50.8227 34.2163 52.0761 33.48 50.2869L33.4514 50.2198C33.3452 49.9508 33.3549 49.6594 33.3743 49.3748L34.2402 41.0195C34.291 40.3961 34.2224 39.6853 34.4875 39.1052L42.2476 24.5728L32.5186 24.5708ZM53.9561 8.33983L38.581 37.3427C38.3609 37.765 38.1189 38.1828 37.9413 38.6249C39.3051 38.8675 39.6832 39.1968 40.8433 39.9315L43.0799 41.267C43.2656 41.1092 43.3665 40.8879 43.4805 40.6765L57.878 13.4388C58.2676 12.726 58.5901 11.9444 59.0315 11.2642L53.9561 8.33983ZM3.66133 26.055L2.97122 26.1007C2.91535 26.9234 2.93127 27.7515 2.9311 28.5757L2.93618 58.6325C2.93669 59.3025 2.90807 59.9873 2.95091 60.6551C3.00373 61.4769 4.13405 61.2375 4.686 61.2377L54.584 61.2374C54.9345 61.2374 57.2654 61.3113 57.4398 61.1534C57.5211 61.0797 57.5688 60.8876 57.6132 60.7838C57.6496 60.4453 57.7826 59.5239 57.5886 59.2221L32.5559 59.2281C32.5188 59.3126 32.5254 59.3264 32.5224 59.4139C32.4898 60.349 30.6332 61.1947 29.8195 59.2728C28.9467 59.1738 28.0593 59.2105 27.1816 59.2102L7.22634 59.2117C6.80357 59.2119 6.1971 59.2955 5.81056 59.1305L5.74216 59.1022C5.0187 58.7879 4.87377 58.3829 4.86141 57.66L4.84075 28.9844C4.84075 28.0127 4.90509 26.9892 4.82077 26.0235L3.66133 26.055ZM7.52636 22.2995L7.54735 55.6176C7.54752 55.9015 7.51975 56.2217 7.56174 56.5007L19.9226 56.4892C20.3201 56.4897 20.7631 56.531 21.1543 56.5112L21.2932 56.4807C18.4239 55.1036 15.165 54.4148 11.986 54.3947C11.4855 54.3915 10.6012 54.5572 10.1649 54.2785L10.1202 54.2504C9.8239 54.0591 9.6253 53.7743 9.53269 53.4382L9.5188 53.3939C9.4565 53.1843 9.47411 52.9303 9.47089 52.7121L9.45193 22.7221C9.45091 22.6158 9.47021 22.4524 9.42196 22.3591L7.52636 22.2995ZM58.606 2.72617C56.7763 2.8733 56.206 3.8382 55.4799 5.33981C55.3891 5.52792 55.252 5.74717 55.1998 5.94578L58.7828 7.95549L60.1215 8.7626L60.5974 7.6167C61.0558 6.60795 61.6255 5.66929 61.1929 4.53931C60.7871 3.47977 59.7553 2.69112 58.606 2.72617ZM36.8951 41.4949L36.4925 46.2214C36.4746 46.4073 36.4326 46.6265 36.4593 46.8113L38.9299 45.0006L41.092 43.3262C40.5826 43.0685 40.1239 42.7734 39.6691 42.4264C39.0867 41.9818 38.8696 41.5088 38.1023 41.4963L36.8951 41.4949Z" fill="white"/>
</svg>
