<svg width="59" height="62" viewBox="0 0 59 62" fill="none" xmlns="http://www.w3.org/2000/svg">
<g filter="url(#filter0_dd_268_578)">
<path d="M39.3855 33.2211C38.7412 32.2853 37.8294 31.7797 36.6695 31.7042C36.4006 31.6866 36.1278 31.6979 35.8577 31.7004C35.7836 31.7004 35.7434 31.6715 35.7044 31.6111C35.6161 31.474 35.5317 31.3306 35.42 31.2124C35.0718 30.8414 34.6172 30.7017 34.1146 30.7017C30.6205 30.6992 27.1278 30.7005 23.6338 30.7005C23.0389 30.7005 22.444 30.703 21.8491 30.7005C20.9308 30.6967 20.1359 31.4237 20.1346 32.3394C20.1333 33.1658 20.1372 33.9922 20.1346 34.8185C20.1346 34.8739 20.1151 34.9494 20.0761 34.9833C19.1396 35.7959 18.8746 36.8285 19.0513 37.987C19.1799 38.8284 19.5124 39.5982 20.0229 40.3001C20.849 41.4396 21.905 42.2786 23.2766 42.7314C23.9715 42.9603 24.6781 43.0672 25.412 42.9415C25.5886 42.9113 25.7744 42.905 25.9549 42.9138C26.3615 42.9339 26.768 42.9918 27.1733 42.9943C28.6527 43.0043 30.1322 42.9981 31.6129 42.9981C32.7767 42.9981 33.9392 42.9993 35.103 42.9981C35.7044 42.9981 36.0759 42.4471 35.807 41.9516C35.6576 41.6761 35.4044 41.5755 35.0952 41.5767C34.5419 41.5805 33.9899 41.583 33.4365 41.5855C33.3885 41.5855 33.3404 41.5855 33.282 41.5855C33.2911 41.5566 33.2924 41.5516 33.2937 41.5491C33.308 41.5365 33.3222 41.5252 33.3378 41.5138C34.312 40.7642 35.0238 39.8271 35.4563 38.6976C35.5031 38.5744 35.5641 38.5429 35.6927 38.5404C36.1421 38.5303 36.598 38.5517 37.0384 38.48C38.3035 38.2725 39.2179 37.592 39.7076 36.4373C40.1804 35.3217 40.0843 34.2362 39.3868 33.2236L39.3855 33.2211ZM23.8026 41.4183C22.4258 40.9516 21.4464 40.0548 20.8074 38.7995C20.5307 38.2561 20.4034 37.68 20.484 37.0738C20.5086 36.8901 20.5827 36.7128 20.6385 36.5342C20.6619 36.4587 20.7048 36.4336 20.7931 36.47C21.6374 36.8134 22.2764 37.3581 22.6284 38.1907C22.8622 38.7429 23.0831 39.2988 23.3298 39.8447C23.6208 40.4887 23.9897 41.0824 24.5716 41.5277C24.5807 41.534 24.5859 41.544 24.6106 41.573C24.317 41.5642 24.0559 41.5038 23.8026 41.4183ZM26.4004 40.6988C26.3589 40.7931 26.3134 40.8195 26.2017 40.7818C25.4379 40.5202 24.9496 39.9919 24.6495 39.285C24.456 38.8297 24.2858 38.3643 24.0949 37.9077C23.7845 37.1694 23.3571 36.5027 22.7427 35.9606C22.6336 35.865 22.5141 35.7795 22.3713 35.6663C22.7272 35.699 23.0454 35.7594 23.3545 35.865C24.304 36.1908 25.0509 36.782 25.6666 37.5367C26.0978 38.0662 26.4095 38.6611 26.529 39.3316C26.6121 39.7944 26.5966 40.256 26.3991 40.6988H26.4004ZM34.438 36.3807C34.4289 37.6926 33.9886 38.8599 33.0767 39.8334C32.1909 40.7805 31.0894 41.3705 29.7672 41.5315C29.4814 41.5667 29.1892 41.5604 28.8995 41.5667C28.5033 41.5755 28.1072 41.578 27.7097 41.5843C27.6694 41.5843 27.6279 41.5843 27.5616 41.5843C27.7967 41.212 27.9175 40.8283 27.9838 40.4309C28.1007 39.734 28.0085 39.0561 27.7656 38.3957C27.1759 36.7983 26.09 35.6097 24.5443 34.8286C23.7663 34.4349 22.9272 34.2186 22.0361 34.2563C21.8959 34.2626 21.7556 34.2815 21.601 34.2953C21.5984 34.2576 21.5945 34.2186 21.5945 34.1808C21.5945 33.601 21.5932 33.0224 21.5919 32.4425C21.5919 32.3985 21.5919 32.3532 21.5984 32.3105C21.6127 32.2073 21.6725 32.1407 21.7816 32.1281C21.8491 32.1205 21.9179 32.118 21.9868 32.118C25.9406 32.118 29.8958 32.118 33.8496 32.118C33.96 32.118 34.0704 32.1168 34.1808 32.1243C34.3315 32.1344 34.4159 32.2149 34.4328 32.3608C34.438 32.4048 34.4367 32.4488 34.4367 32.4929C34.4367 33.7884 34.4445 35.0827 34.4354 36.3782L34.438 36.3807ZM38.5035 35.4059C38.371 36.2726 37.7424 36.9254 36.8669 37.0788C36.5513 37.1342 36.2227 37.1115 35.8992 37.1241C35.8889 37.1241 35.8798 37.1153 35.8863 37.1191V33.1042C36.0837 33.1042 36.2564 33.1067 36.4305 33.1042C36.7981 33.0979 37.1384 33.196 37.4579 33.3607C38.2892 33.7909 38.6191 34.6525 38.5035 35.4059Z" fill="white"/>
<path d="M27.4344 24.3347C27.5162 24.4253 27.598 24.5158 27.6759 24.6102C28.3202 25.3888 28.376 26.551 27.8071 27.3736C27.7487 27.4579 27.6785 27.5396 27.611 27.6176C27.55 27.688 27.4876 27.761 27.4318 27.8377C27.2629 28.0691 27.2395 28.2981 27.3616 28.5182C27.4928 28.7547 27.711 28.8767 28.0253 28.8918H28.0279C28.0279 28.8918 28.0292 28.8918 28.0305 28.8918C28.1656 28.8918 28.3747 28.8364 28.6086 28.5773C29.4048 27.6893 29.7243 26.6642 29.5567 25.5309C29.4437 24.7662 29.0917 24.0882 28.4826 23.458C27.7409 22.6908 27.5798 21.6531 28.0617 20.75C28.1461 20.5915 28.2643 20.4418 28.3773 20.2972C28.4241 20.238 28.4696 20.1789 28.515 20.1198C28.628 19.9676 28.7267 19.7978 28.6852 19.5827C28.6319 19.3022 28.4553 19.1098 28.1734 19.028C27.8292 18.9287 27.5915 19.1123 27.4227 19.2834C26.1861 20.5387 26.0328 22.4757 27.059 23.8882C27.1733 24.0467 27.3071 24.1938 27.4356 24.336L27.4344 24.3347Z" fill="white"/>
<path d="M23.5805 25.5812C24.0144 26.0353 24.1443 26.5573 23.9702 27.1321C23.8923 27.3899 23.7286 27.5937 23.5546 27.7962C23.3701 28.0113 23.3415 28.2566 23.4701 28.5044C23.5935 28.7408 23.8026 28.8716 24.0754 28.8842H24.078C24.078 28.8842 24.0845 28.8842 24.0884 28.8842C24.2975 28.8842 24.4807 28.7987 24.6482 28.6226C25.4237 27.8088 25.6445 26.8466 25.3055 25.7623C25.1522 25.2743 24.8223 24.8882 24.5261 24.5649C23.9767 23.9674 23.9832 23.1297 24.5417 22.5285C24.6041 22.4618 24.6495 22.404 24.6859 22.3461C24.8729 22.0493 24.8119 21.677 24.5417 21.4632C24.2715 21.2481 23.8741 21.2606 23.6156 21.4908C22.7843 22.2329 22.483 23.5096 22.8999 24.5259C23.0649 24.9284 23.287 25.273 23.5805 25.5812Z" fill="white"/>
<path d="M31.8233 25.8692C31.9298 26.4843 31.8025 27.0302 31.4453 27.4906C31.3232 27.6478 31.1933 27.839 31.2037 28.1044C31.2128 28.4503 31.3466 28.6918 31.6012 28.8213C31.7025 28.8729 31.8038 28.8993 31.8999 28.8993C32.0753 28.8993 32.239 28.815 32.3766 28.6515C33.1469 27.7383 33.4197 26.6768 33.1885 25.4944C33.0741 24.9121 32.8131 24.3687 32.3676 23.7863C31.9805 23.2807 31.8532 22.7059 31.9883 22.0795C32.0662 21.7172 32.2455 21.4342 32.4117 21.2053C32.6416 20.8871 32.6637 20.516 32.4715 20.2154C32.3429 20.0142 32.1519 19.8909 31.948 19.8771C31.7467 19.8632 31.5518 19.9538 31.3986 20.1311C30.8751 20.7374 30.5855 21.4908 30.5361 22.3725C30.4842 23.297 30.7478 24.1247 31.3193 24.8316C31.6025 25.1812 31.7623 25.512 31.8246 25.8718L31.8233 25.8692Z" fill="white"/>
</g>
<defs>
<filter id="filter0_dd_268_578" x="0" y="0" width="59" height="62" filterUnits="userSpaceOnUse" color-interpolation-filters="sRGB">
<feFlood flood-opacity="0" result="BackgroundImageFix"/>
<feColorMatrix in="SourceAlpha" type="matrix" values="0 0 0 0 0 0 0 0 0 0 0 0 0 0 0 0 0 0 127 0" result="hardAlpha"/>
<feOffset/>
<feGaussianBlur stdDeviation="6"/>
<feComposite in2="hardAlpha" operator="out"/>
<feColorMatrix type="matrix" values="0 0 0 0 0.95 0 0 0 0 0.547485 0 0 0 0 0.419583 0 0 0 1 0"/>
<feBlend mode="normal" in2="BackgroundImageFix" result="effect1_dropShadow_268_578"/>
<feColorMatrix in="SourceAlpha" type="matrix" values="0 0 0 0 0 0 0 0 0 0 0 0 0 0 0 0 0 0 127 0" result="hardAlpha"/>
<feOffset/>
<feGaussianBlur stdDeviation="9.5"/>
<feComposite in2="hardAlpha" operator="out"/>
<feColorMatrix type="matrix" values="0 0 0 0 0.95 0 0 0 0 0.547485 0 0 0 0 0.419583 0 0 0 1 0"/>
<feBlend mode="normal" in2="effect1_dropShadow_268_578" result="effect2_dropShadow_268_578"/>
<feBlend mode="normal" in="SourceGraphic" in2="effect2_dropShadow_268_578" result="shape"/>
</filter>
</defs>
</svg>
