<svg width="60" height="60" viewBox="0 0 60 60" fill="none" xmlns="http://www.w3.org/2000/svg">
<g filter="url(#filter0_dd_268_601)">
<path d="M29.9764 36.2855C29.5644 36.265 29.2439 36.0856 28.9758 35.8015C28.5395 35.3381 28.105 34.8738 27.6687 34.4104C26.8073 33.4948 25.9468 32.5782 25.0835 31.6645C24.6303 31.1852 24.1763 30.7068 23.7175 30.2322C23.4438 29.9491 23.2663 29.6239 23.2915 29.225C23.3036 29.0409 23.3513 28.8438 23.4372 28.6812C23.9464 27.7189 24.4659 26.7622 24.9929 25.8083C25.233 25.3738 25.617 25.1524 26.114 25.1356C26.2766 25.13 26.4401 25.1318 26.6027 25.1318C28.9347 25.1318 31.2667 25.1318 33.5987 25.1337C33.7725 25.1337 33.9491 25.1412 34.1191 25.172C34.5293 25.2458 34.8189 25.4962 35.0142 25.8522C35.5243 26.7827 36.0344 27.7142 36.5296 28.6541C36.8202 29.2063 36.7501 29.6884 36.3241 30.1528C35.7999 30.7246 35.2618 31.2833 34.7283 31.8476C33.6763 32.9622 32.6242 34.0759 31.5731 35.1914C31.3573 35.4204 31.1527 35.6586 30.9331 35.8838C30.6687 36.1547 30.3408 36.2864 29.9746 36.2855H29.9764ZM28.2928 29.7314C28.8599 31.2066 29.4214 32.6679 29.9942 34.1562C30.5688 32.6614 31.1303 31.201 31.6955 29.7314H28.2928ZM31.6825 28.6046C31.6638 28.5551 31.6526 28.5224 31.6395 28.4916C31.3452 27.7834 31.0499 27.0761 30.7566 26.367C30.7313 26.3072 30.7257 26.2483 30.6314 26.2492C30.2119 26.2558 29.7933 26.253 29.3738 26.2511C29.3009 26.2511 29.2664 26.2763 29.2383 26.3455C28.9422 27.0696 28.6404 27.7918 28.3414 28.5149C28.3302 28.542 28.3227 28.5701 28.3124 28.6046H31.6825ZM31.9282 26.2511C31.9366 26.2838 31.9403 26.3062 31.9478 26.3268C32.244 27.063 32.542 27.7993 32.8363 28.5355C32.8643 28.6056 32.912 28.6093 32.9737 28.6093C33.6996 28.6084 34.4246 28.6093 35.1506 28.6084C35.1824 28.6084 35.2151 28.6028 35.2515 28.5999C35.2431 28.5775 35.2403 28.5663 35.2347 28.557C34.846 27.8422 34.4536 27.1294 34.0696 26.4127C34.0023 26.2876 33.921 26.2474 33.7846 26.2492C33.2259 26.2558 32.6672 26.252 32.1085 26.253C32.0506 26.253 31.9936 26.253 31.9272 26.253L31.9282 26.2511ZM28.0648 26.2567C28.0144 26.2539 27.9836 26.2511 27.9527 26.2511C27.3781 26.2511 26.8045 26.2567 26.2299 26.2464C26.0654 26.2436 25.9757 26.3062 25.901 26.4445C25.5432 27.1097 25.1788 27.7722 24.8163 28.4346C24.7873 28.4869 24.7593 28.5402 24.7266 28.5999C24.7612 28.6037 24.7761 28.6065 24.791 28.6065C25.5404 28.6065 26.2887 28.6065 27.038 28.6084C27.1062 28.6084 27.1315 28.5794 27.1539 28.5224C27.3183 28.1048 27.4837 27.6871 27.6509 27.2704C27.7846 26.9369 27.9219 26.6052 28.0648 26.2567ZM35.2094 29.7379C35.1739 29.7314 35.1627 29.7277 35.1515 29.7277C34.4181 29.7277 33.6856 29.7258 32.9522 29.7295C32.9195 29.7295 32.869 29.7678 32.8569 29.7996C32.7793 29.9939 32.713 30.192 32.6382 30.3873C32.2215 31.4711 31.803 32.5548 31.3854 33.6386C31.3601 33.7031 31.3414 33.7704 31.3199 33.8367C31.3256 33.8376 31.3312 33.8386 31.3358 33.8404C32.6233 32.4782 33.9098 31.1151 35.2104 29.7389L35.2094 29.7379ZM28.6637 33.8461C28.6703 33.8423 28.6777 33.8376 28.6843 33.8339C28.5927 33.6059 28.4965 33.3789 28.4087 33.1491C27.9882 32.0457 27.5687 30.9422 27.152 29.837C27.1221 29.7575 27.0894 29.7239 26.9979 29.7239C26.2953 29.7286 25.5936 29.7258 24.891 29.7267C24.8593 29.7267 24.8275 29.7314 24.7817 29.7351C26.0841 31.1151 27.3744 32.4801 28.6637 33.8461Z" fill="white"/>
<path d="M40.9937 29.8678C40.9563 32.2325 40.3556 34.274 39.1083 36.122C38.1366 37.5618 36.879 38.6876 35.3851 39.5546C34.1649 40.2628 32.8447 40.6861 31.4479 40.8898C30.523 41.0243 29.599 41.0346 28.6759 40.9253C27.6986 40.8085 26.755 40.5459 25.8431 40.175C25.5488 40.0554 25.417 39.7602 25.5179 39.4705C25.617 39.1856 25.8954 39.0436 26.2037 39.1389C26.4364 39.2108 26.6578 39.3173 26.8895 39.3921C28.0676 39.7686 29.2729 39.9312 30.5118 39.8648C31.803 39.7966 33.0325 39.4967 34.1911 38.9268C35.1235 38.4671 35.9821 37.8972 36.7426 37.1778C37.8806 36.1005 38.7383 34.8401 39.2793 33.3705C39.6025 32.4894 39.8015 31.5794 39.8492 30.6377C39.88 30.0238 39.8679 29.4119 39.8034 28.8018C39.7174 27.987 39.5016 27.2041 39.2073 26.4426C38.9438 25.7606 38.6131 25.1131 38.2076 24.504C38.0927 24.3311 38.0021 24.1527 38.0665 23.9387C38.1347 23.7136 38.288 23.5743 38.5215 23.5435C38.7467 23.5136 38.9252 23.6089 39.0494 23.793C39.3428 24.2265 39.6175 24.6703 39.8473 25.143C40.4154 26.3109 40.7835 27.5358 40.9171 28.8279C40.9573 29.2213 40.975 29.6165 40.9937 29.8678Z" fill="white"/>
<path d="M29.9895 19C31.475 19.0159 32.8989 19.3167 34.2677 19.8876C34.5031 19.9857 34.7358 20.0941 34.96 20.2146C35.1814 20.3332 35.2748 20.5528 35.2347 20.7939C35.1973 21.0144 35.0282 21.1863 34.7974 21.2386C34.6395 21.275 34.4975 21.2208 34.363 21.1498C33.8603 20.8845 33.3287 20.692 32.7868 20.5285C32.0571 20.3071 31.3078 20.1903 30.5463 20.1492C29.3532 20.0847 28.1826 20.2062 27.0446 20.5734C24.6808 21.3367 22.8374 22.7755 21.5425 24.8964C20.8847 25.9736 20.4344 27.1387 20.2457 28.3935C20.099 29.3726 20.0775 30.3546 20.2036 31.3403C20.3167 32.2241 20.5717 33.065 20.9006 33.889C20.9529 34.0208 20.9838 34.1768 20.9688 34.316C20.9445 34.558 20.7409 34.7196 20.4783 34.7533C20.2653 34.7813 20.0242 34.6533 19.9364 34.43C19.771 34.0133 19.6085 33.5938 19.4739 33.1659C19.2647 32.4988 19.1376 31.8121 19.06 31.1179C18.9825 30.4256 18.9825 29.7323 19.046 29.0381C19.1217 28.2206 19.2796 27.4199 19.5375 26.6407C19.9925 25.2673 20.6839 24.0247 21.6172 22.9175C22.4357 21.9459 23.398 21.1508 24.4921 20.5061C25.1461 20.1202 25.8365 19.8128 26.5541 19.5774C27.3538 19.3149 28.1714 19.1159 29.016 19.0598C29.3411 19.0383 29.6662 19.0206 29.9914 19.0009L29.9895 19Z" fill="white"/>
<path d="M26.6634 37.246C26.6634 37.5356 26.484 37.7683 26.1794 37.8327C25.7814 37.9168 25.3927 38.0289 25.0508 38.2457C24.2426 38.7577 23.7316 39.4836 23.5447 40.4301C23.4587 40.8655 23.0551 41.0869 22.6805 40.9084C22.4833 40.815 22.3908 40.6478 22.3544 40.4422C22.26 39.905 22.061 39.4117 21.7069 38.9941C21.2155 38.4129 20.6157 37.9981 19.8514 37.857C19.7907 37.8458 19.7299 37.8318 19.6711 37.814C19.3945 37.729 19.2292 37.5057 19.2394 37.2366C19.2506 36.9451 19.4235 36.7209 19.7113 36.6658C20.3765 36.5378 20.9585 36.2491 21.4444 35.7773C21.9312 35.3036 22.2348 34.7318 22.3572 34.0609C22.4319 33.6517 22.7599 33.4396 23.1299 33.5499C23.3952 33.6284 23.5111 33.8292 23.5615 34.089C23.7895 35.2578 24.4463 36.0641 25.5824 36.4574C25.7908 36.5294 26.0056 36.5808 26.2168 36.6471C26.4933 36.734 26.6634 36.9648 26.6634 37.246ZM22.9551 38.9137C23.3382 38.184 23.882 37.6524 24.5846 37.2432C23.8652 36.8601 23.3653 36.2902 22.9477 35.6138C22.5459 36.3154 22.0274 36.8666 21.3098 37.2441C22.019 37.6524 22.5543 38.1934 22.9542 38.9146L22.9551 38.9137Z" fill="white"/>
<path d="M36.2344 21.7104C36.2344 21.6048 36.2344 21.5049 36.2344 21.4049C36.2362 21.0517 36.4745 20.7995 36.8034 20.8004C37.1164 20.8004 37.3499 21.0564 37.3518 21.3993C37.3518 21.5002 37.3518 21.6002 37.3518 21.7141C37.406 21.7169 37.4546 21.7188 37.5022 21.7216C37.6218 21.7291 37.7442 21.7235 37.861 21.7478C38.1142 21.801 38.302 22.0654 38.2824 22.3177C38.2618 22.5915 38.032 22.8222 37.7592 22.8353C37.6284 22.8418 37.4976 22.8362 37.3518 22.8362C37.3518 22.9596 37.3518 23.0708 37.3518 23.1819C37.3518 23.522 37.1341 23.7621 36.8239 23.7687C36.5053 23.7752 36.2437 23.5192 36.2344 23.1894C36.2316 23.0773 36.2344 22.9652 36.2344 22.8353C36.1008 22.8353 35.9746 22.8418 35.8485 22.8344C35.5551 22.8176 35.316 22.5756 35.3066 22.2953C35.2973 22.0178 35.515 21.7721 35.8102 21.7366C35.9447 21.7207 36.0802 21.7198 36.2344 21.7104Z" fill="white"/>
<path d="M26.6802 23.1184C26.6765 22.8091 26.9166 22.5588 27.224 22.5531C27.5239 22.5475 27.7817 22.7998 27.7864 23.1025C27.7911 23.4127 27.5416 23.6696 27.2333 23.6715C26.9241 23.6734 26.6849 23.4333 26.6802 23.1184Z" fill="white"/>
<path d="M34.4639 34.928C34.4639 34.6374 34.7115 34.3908 35.0058 34.3879C35.3094 34.3842 35.5794 34.6486 35.5757 34.9467C35.572 35.2419 35.3029 35.5063 35.0123 35.5007C34.7012 35.4942 34.4629 35.2447 34.4639 34.928Z" fill="white"/>
</g>
<defs>
<filter id="filter0_dd_268_601" x="0" y="0" width="59.9937" height="59.9998" filterUnits="userSpaceOnUse" color-interpolation-filters="sRGB">
<feFlood flood-opacity="0" result="BackgroundImageFix"/>
<feColorMatrix in="SourceAlpha" type="matrix" values="0 0 0 0 0 0 0 0 0 0 0 0 0 0 0 0 0 0 127 0" result="hardAlpha"/>
<feOffset/>
<feGaussianBlur stdDeviation="6"/>
<feComposite in2="hardAlpha" operator="out"/>
<feColorMatrix type="matrix" values="0 0 0 0 0.95 0 0 0 0 0.547485 0 0 0 0 0.419583 0 0 0 1 0"/>
<feBlend mode="normal" in2="BackgroundImageFix" result="effect1_dropShadow_268_601"/>
<feColorMatrix in="SourceAlpha" type="matrix" values="0 0 0 0 0 0 0 0 0 0 0 0 0 0 0 0 0 0 127 0" result="hardAlpha"/>
<feOffset/>
<feGaussianBlur stdDeviation="9.5"/>
<feComposite in2="hardAlpha" operator="out"/>
<feColorMatrix type="matrix" values="0 0 0 0 0.95 0 0 0 0 0.547485 0 0 0 0 0.419583 0 0 0 1 0"/>
<feBlend mode="normal" in2="effect1_dropShadow_268_601" result="effect2_dropShadow_268_601"/>
<feBlend mode="normal" in="SourceGraphic" in2="effect2_dropShadow_268_601" result="shape"/>
</filter>
</defs>
</svg>
