<svg width="69" height="64" viewBox="0 0 69 64" fill="none" xmlns="http://www.w3.org/2000/svg">
<path d="M42.1165 19.9993L45.1682 23.109C45.1164 23.2055 45.0737 23.2758 45.0737 23.3891L34.0127 34.2874C33.7918 34.4986 33.5336 34.7983 33.2614 34.9399L33.0942 35.0222C32.3524 34.4583 30.7559 32.7465 30.2112 32.0612C30.2943 31.8835 30.1917 31.8087 30.1348 31.6702L30.252 31.5532C31.5647 29.9703 33.1527 28.5985 34.6069 27.1444L41.0218 20.7724C41.2716 20.5454 41.5522 20.2512 41.8577 20.1129C42.0118 20.1119 42.0029 20.1057 42.1167 19.9993M42.1167 19.9993C42.0031 20.1057 42.012 20.1119 41.8579 20.1129C42.3005 21.0785 44.2386 22.7089 45.0739 23.3891C45.0739 23.2758 45.1166 23.2055 45.1684 23.109L42.1167 19.9993Z" fill="white"/>
<path d="M30.252 31.5537C30.526 31.7006 30.7157 32.0259 30.9224 32.2585L31.9259 33.3524C32.3903 33.8555 32.9744 34.3019 33.2614 34.9405L33.0942 35.0227C32.3524 34.4589 30.7559 32.7471 30.2112 32.0618C30.2943 31.884 30.1917 31.8093 30.1348 31.6707L30.252 31.5537Z" fill="white"/>
<path d="M63.5578 20.7511C64.2187 20.7685 66.1649 22.8705 66.6554 23.3715C68.8807 25.6453 68.5035 25.8034 66.6232 27.5773L58.4065 35.7058C58.0167 36.0548 57.5953 36.4859 57.0385 36.4736C56.193 36.1474 55.5643 35.3668 54.9224 34.7564L53.4702 33.3399C53.2014 33.0696 52.29 32.2653 52.4234 31.8137C52.5309 31.4498 54.1226 30.0633 54.516 29.6841L62.5257 21.6892C62.8319 21.3864 63.1794 20.9505 63.5578 20.7511Z" fill="white"/>
<path d="M33.0942 35.0219C33.762 35.604 34.8407 36.6102 35.1036 37.4152L35.0533 37.5091C34.8086 37.9001 34.3709 38.2418 34.0428 38.5647L11.6064 60.8248C9.78068 62.6132 8.41008 64.7942 5.44214 63.7107C4.10361 63.2219 1.83787 60.9536 1.26209 59.6931C-0.0119551 56.9036 1.68774 55.6377 3.45226 53.8778L26.9315 30.4472C27.8691 29.4758 27.7748 29.7819 28.7847 30.7369L30.2113 32.0609C30.756 32.7462 32.3521 34.4579 33.0942 35.0219Z" fill="white"/>
<path d="M42.1164 19.9986L42.0789 19.9474C41.3874 19.0142 40.3881 18.2394 39.5668 17.4166L37.5508 15.1948C36.2594 13.8945 34.3555 13.2108 32.5696 12.9607C28.927 12.4506 25.5723 14.5083 23.1525 17.0523C22.8621 17.3574 22.4892 18.036 22.0564 18.1124L21.9154 18.0766C21.7048 17.4874 23.0112 14.362 23.3282 13.6905C23.9862 12.2967 24.8431 11.0769 25.776 9.8588C29.7088 4.72373 35.4678 0.619085 42.0543 0.051668C44.1288 -0.126951 46.2823 0.175694 48.2877 0.68016C48.8123 0.812034 51.5069 1.3861 50.9818 1.8544L47.911 4.6084C47.4883 5.01477 47.0488 5.41586 46.6525 5.84748C48.1749 7.09183 49.5433 8.5114 50.9298 9.90197L59.2019 18.2658C60.0525 19.1069 60.9473 19.9229 61.7044 20.8514L53.084 29.4367C52.8876 29.636 52.6472 29.9149 52.3883 30.0275L45.1681 23.1083L42.1164 19.9986Z" fill="white"/>
</svg>
