<svg width="59" height="67" viewBox="0 0 59 67" fill="none" xmlns="http://www.w3.org/2000/svg">
<path d="M14.3942 0.858536L14.2529 0.717378L14.1116 0.858401L11.9475 3.01701L11.8057 3.15854L11.9475 3.30014L15.1674 6.51501L15.3087 6.65614L15.45 6.51498L17.611 4.35637L17.7526 4.21491L17.611 4.07341L14.3942 0.858536ZM42.6357 0.858552L42.4944 0.717294L42.353 0.858468L39.133 4.07334L38.9913 4.21489L39.1331 4.35643L41.2956 6.51503L41.4369 6.65609L41.5782 6.51501L44.7965 3.30167L44.9382 3.16022L44.7966 3.01869L42.6357 0.858552ZM28.3709 1.75802L28.3703 1.75803C27.8626 1.76418 27.3475 1.79315 26.8284 1.85571L26.8227 1.85537C26.8112 1.8548 26.7887 1.85398 26.7616 1.85819C20.436 2.58515 15.4083 7.68879 14.5342 13.9732L14.5342 13.9734C13.8355 19.0365 15.9263 23.6268 19.4056 26.581C20.7699 27.7442 21.6942 29.3387 22.025 31.0993V40.2924V40.4924H22.225H25.6167C26.1963 41.4116 27.2057 42.0277 28.3728 42.0277C29.5398 42.0277 30.5492 41.4116 31.1289 40.4924H34.5206H34.7206V40.2924V34.3513H34.865V34.1513V32.3274C34.865 30.1458 36.0019 27.9266 37.8749 26.1902L37.875 26.1903L37.8804 26.1849C40.4551 23.6099 42.4053 19.9457 42.4053 15.7295C42.4053 8.03528 36.0667 1.68635 28.3709 1.75802ZM35.2934 23.8357L35.3381 23.8803C33.3813 25.7457 32.1016 28.2093 31.7019 30.8823H25.3276C24.9576 28.2738 23.8126 25.7497 21.6803 23.9248L21.6796 23.9243C19.0101 21.6606 17.4246 18.2564 17.9552 14.4136C18.6145 9.66596 22.4723 5.84959 27.1929 5.32715L27.1929 5.32723L27.1985 5.32646C27.5884 5.27215 27.9811 5.23996 28.3747 5.23005L28.4192 5.22893L28.421 5.22802C34.2265 5.17206 38.9314 9.92756 38.9314 15.7295C38.9314 18.8805 37.4701 21.663 35.4352 23.6942L35.2934 23.8357ZM6.85547 15.5295H6.65547V15.7295V18.8V19H6.85547H11.4663H11.6663V18.8V15.7295V15.5295H11.4663H6.85547ZM45.2792 15.5295H45.0792V15.7295V18.8V19H45.2792H49.8901H50.0901V18.8V15.7295V15.5295H49.8901H45.2792ZM15.4501 28.0146L15.3088 27.8733L15.1674 28.0145L11.949 31.2278L11.8073 31.3693L11.949 31.5109L14.1115 33.671L14.2529 33.8123L14.3942 33.6709L17.6095 30.4561L17.751 30.3146L17.6095 30.1732L15.4501 28.0146ZM41.5782 28.0145L41.4368 27.8734L41.2955 28.0145L39.1346 30.1731L38.9929 30.3146L39.1345 30.4561L42.3514 33.671L42.4927 33.8122L42.6341 33.671L44.7966 31.5109L44.9383 31.3693L44.7965 31.2278L41.5782 28.0145ZM31.2467 34.3528V37.0234H25.4989V34.3528H31.2467Z" fill="white" stroke="white" stroke-width="0.4"/>
<path d="M37.9624 54.0966C32.3969 54.785 28.8071 52.3465 26.744 50.1109C25.0027 48.224 23.1378 46.2424 20.5747 46.0884C16.8282 45.8633 10.5691 46.5918 2.5713 51.5916C2.49573 51.6388 2.45844 51.732 2.48317 51.8177L4.83136 59.9469C4.86363 60.0586 4.98404 60.1194 5.09306 60.0789L14.6091 56.5492C14.6608 56.53 14.718 56.533 14.7673 56.5574L31.7558 64.9594C31.808 64.9852 31.8689 64.987 31.9225 64.9642L57.5602 54.0962" stroke="white" stroke-width="3"/>
</svg>
