<svg width="55" height="54" viewBox="0 0 55 54" fill="none" xmlns="http://www.w3.org/2000/svg">
<g filter="url(#filter0_dd_268_598)">
<path d="M27.5135 21.0711C27.6653 20.8941 27.8065 20.7186 27.9576 20.5537C28.6522 19.7976 29.4639 19.2833 30.4194 19.1055C32.21 18.7719 33.7176 19.3744 34.9115 20.9235C35.4023 21.5598 35.7112 22.3114 35.883 23.1338C36.0995 24.17 36.0036 25.1791 35.6939 26.1739C35.4722 26.8863 35.1266 27.5099 34.6851 28.0739C34.0645 28.8677 33.3773 29.5846 32.6761 30.2835C31.668 31.2881 30.6478 32.2776 29.627 33.2664C29.1023 33.7747 28.5649 34.2673 28.0335 34.7673C27.7878 34.9985 27.5128 35.0633 27.2132 34.9352C27.1246 34.8976 27.0414 34.8336 26.9675 34.7658C25.4639 33.3726 23.9703 31.9643 22.526 30.4928C21.91 29.8648 21.3081 29.2179 20.7161 28.5619C20.222 28.0152 19.7898 27.406 19.4962 26.692C19.1526 25.8561 18.9628 24.9765 19.0061 24.0487C19.0574 22.9417 19.385 21.9492 19.9889 21.0688C20.5976 20.1817 21.386 19.5943 22.3202 19.2509C22.9315 19.0265 23.5654 18.9482 24.2047 19.034C25.1849 19.1658 26.0725 19.5604 26.8183 20.309C27.0414 20.5326 27.2471 20.7789 27.4609 21.0146C27.4729 21.0274 27.4849 21.0402 27.5135 21.0703V21.0711ZM33.6896 26.7907C34.1431 26.1649 34.4128 25.4404 34.48 24.6241C34.5513 23.7573 34.3708 22.9643 33.9353 22.2534C33.5345 21.5997 32.9838 21.1532 32.3225 20.8866C31.9104 20.7209 31.4822 20.6847 31.0474 20.7126C30.3116 20.7593 29.673 21.0756 29.1309 21.6268C28.774 21.9906 28.4471 22.392 28.1028 22.7723C28.0282 22.8544 27.9463 22.9334 27.8558 22.9899C27.5601 23.1729 27.1839 23.0923 26.9215 22.7979C26.6292 22.4695 26.3402 22.1367 26.0472 21.8098C25.4006 21.0876 24.6315 20.6915 23.7126 20.7028C23.2285 20.7036 22.763 20.803 22.3275 21.053C21.2921 21.6479 20.6682 22.5825 20.5303 23.8959C20.4371 24.783 20.6282 25.6076 21.043 26.366C21.2968 26.8299 21.627 27.2245 21.9733 27.5965C22.6046 28.275 23.2411 28.9483 23.899 29.5937C25.0577 30.7316 26.2337 31.8469 27.4023 32.9712C27.5022 33.0669 27.5048 33.0653 27.6034 32.9712C28.3632 32.249 29.1269 31.5313 29.8814 30.8023C30.8636 29.8542 31.8404 28.8986 32.7647 27.8781" fill="white"/>
</g>
<defs>
<filter id="filter0_dd_268_598" x="0" y="0" width="55" height="54" filterUnits="userSpaceOnUse" color-interpolation-filters="sRGB">
<feFlood flood-opacity="0" result="BackgroundImageFix"/>
<feColorMatrix in="SourceAlpha" type="matrix" values="0 0 0 0 0 0 0 0 0 0 0 0 0 0 0 0 0 0 127 0" result="hardAlpha"/>
<feOffset/>
<feGaussianBlur stdDeviation="6"/>
<feComposite in2="hardAlpha" operator="out"/>
<feColorMatrix type="matrix" values="0 0 0 0 0.95 0 0 0 0 0.547485 0 0 0 0 0.419583 0 0 0 1 0"/>
<feBlend mode="normal" in2="BackgroundImageFix" result="effect1_dropShadow_268_598"/>
<feColorMatrix in="SourceAlpha" type="matrix" values="0 0 0 0 0 0 0 0 0 0 0 0 0 0 0 0 0 0 127 0" result="hardAlpha"/>
<feOffset/>
<feGaussianBlur stdDeviation="9.5"/>
<feComposite in2="hardAlpha" operator="out"/>
<feColorMatrix type="matrix" values="0 0 0 0 0.95 0 0 0 0 0.547485 0 0 0 0 0.419583 0 0 0 1 0"/>
<feBlend mode="normal" in2="effect1_dropShadow_268_598" result="effect2_dropShadow_268_598"/>
<feBlend mode="normal" in="SourceGraphic" in2="effect2_dropShadow_268_598" result="shape"/>
</filter>
</defs>
</svg>
