<svg width="53" height="48" viewBox="0 0 53 48" fill="none" xmlns="http://www.w3.org/2000/svg">
<g filter="url(#filter0_dd_268_698)">
<path d="M26.4821 19C28.5204 19 30.5587 19 32.5971 19C32.9013 19 33.1896 19.0529 33.4392 19.2296C33.8226 19.5015 34.0006 19.8682 34 20.3196C33.9988 21.4631 34 22.606 34 23.7495C34 25.0574 33.9994 26.3647 34 27.6726C34 27.9524 33.9424 28.2148 33.7721 28.4483C33.5408 28.766 33.219 28.9432 32.8155 28.9838C32.6852 28.9972 32.5524 28.9983 32.4209 28.9983C28.4147 28.9989 24.4091 28.9983 20.4029 29C19.8655 29 19.4597 28.7955 19.179 28.3608C19.0481 28.158 19.0029 27.9345 19.0023 27.7049C18.9999 25.2106 18.9982 22.7158 19.0035 20.2204C19.0046 19.5656 19.5848 19.0206 20.2719 19.0039C20.333 19.0022 20.3941 19 20.4551 19C22.4641 19 24.4731 19 26.4826 19H26.4821ZM32.4826 19.8381H20.5285C20.5456 19.8576 20.555 19.8699 20.5661 19.881C20.7599 20.0671 20.9525 20.2538 21.1475 20.4388C22.2703 21.5043 23.3949 22.5681 24.5165 23.6347C25.0456 24.1374 25.5712 24.6439 26.0968 25.1505C26.2084 25.258 26.3358 25.3215 26.4979 25.3204C26.6735 25.3193 26.808 25.2446 26.9278 25.1287C27.3805 24.6913 27.8357 24.2555 28.292 23.8208C29.4606 22.7069 30.6304 21.594 31.8002 20.4812C32.0221 20.27 32.2459 20.0616 32.4831 19.8387L32.4826 19.8381ZM32.4679 28.1624L32.4925 28.1362C31.2311 26.9582 29.9697 25.7796 28.7042 24.5977C28.7024 24.5988 28.6848 24.6138 28.6678 24.63C28.2779 25 27.8868 25.3689 27.4998 25.7412C27.2966 25.9368 27.0576 26.0694 26.7757 26.1229C26.2759 26.2171 25.8519 26.0738 25.4967 25.7345C25.1972 25.4486 24.8971 25.1638 24.5976 24.8785C24.4948 24.7804 24.392 24.6818 24.2857 24.5793C23.0302 25.7746 21.7817 26.9632 20.5221 28.1624H32.4685H32.4679ZM19.8861 20.4171V27.5645C21.1404 26.3787 22.4013 25.1872 23.6738 23.9841C22.4118 22.7955 21.1487 21.6057 19.8861 20.4171ZM29.3138 23.9947C30.591 25.2023 31.8513 26.3937 33.1156 27.5885V20.4171C31.8518 21.6063 30.5881 22.7955 29.3138 23.9947Z" fill="white"/>
</g>
<defs>
<filter id="filter0_dd_268_698" x="0" y="0" width="53" height="48" filterUnits="userSpaceOnUse" color-interpolation-filters="sRGB">
<feFlood flood-opacity="0" result="BackgroundImageFix"/>
<feColorMatrix in="SourceAlpha" type="matrix" values="0 0 0 0 0 0 0 0 0 0 0 0 0 0 0 0 0 0 127 0" result="hardAlpha"/>
<feOffset/>
<feGaussianBlur stdDeviation="6"/>
<feComposite in2="hardAlpha" operator="out"/>
<feColorMatrix type="matrix" values="0 0 0 0 0.95 0 0 0 0 0.547485 0 0 0 0 0.419583 0 0 0 1 0"/>
<feBlend mode="normal" in2="BackgroundImageFix" result="effect1_dropShadow_268_698"/>
<feColorMatrix in="SourceAlpha" type="matrix" values="0 0 0 0 0 0 0 0 0 0 0 0 0 0 0 0 0 0 127 0" result="hardAlpha"/>
<feOffset/>
<feGaussianBlur stdDeviation="9.5"/>
<feComposite in2="hardAlpha" operator="out"/>
<feColorMatrix type="matrix" values="0 0 0 0 0.95 0 0 0 0 0.547485 0 0 0 0 0.419583 0 0 0 1 0"/>
<feBlend mode="normal" in2="effect1_dropShadow_268_698" result="effect2_dropShadow_268_698"/>
<feBlend mode="normal" in="SourceGraphic" in2="effect2_dropShadow_268_698" result="shape"/>
</filter>
</defs>
</svg>
