<svg width="17" height="17" viewBox="0 0 17 17" fill="none" xmlns="http://www.w3.org/2000/svg">
<path opacity="0.5" d="M8.50817 0.000549316C13.277 0.0271201 17.0925 3.90513 16.9982 8.67857C16.9072 13.2866 13.1641 17.0577 8.36532 16.9999C3.77649 16.9441 -0.105443 13.1856 0.00218579 8.27735C0.100513 3.81147 3.7373 0.024463 8.50817 0.000549316ZM14.1693 13.4195C14.8416 12.6429 15.3393 11.784 15.6415 10.8169C16.1657 9.13958 16.1458 7.47027 15.5186 5.8242C14.344 2.74 11.1225 0.512702 7.32824 1.0853C3.99507 1.58815 1.25918 4.39137 1.01469 7.94921C0.903077 9.576 1.26582 11.0892 2.12885 12.4769C2.3348 12.8077 2.55936 13.1259 2.82976 13.4128C3.38385 11.4433 4.60829 10.0994 6.50308 9.33354C5.54174 8.63274 4.98698 7.70276 4.9345 6.5177C4.88201 5.32534 5.34508 4.33491 6.27055 3.59159C7.73948 2.41119 9.77978 2.55267 11.0773 3.90911C11.7184 4.57936 12.0712 5.38712 12.0705 6.31909C12.0699 7.5812 11.5258 8.57893 10.5033 9.32823C12.3894 10.0961 13.6152 11.4433 14.1693 13.4195ZM8.47628 16.0022C8.47628 16.0115 8.4776 16.0201 8.4776 16.0294C8.91742 15.9862 9.36189 15.9689 9.79639 15.8952C10.6129 15.7564 11.3896 15.4913 12.1131 15.0795C12.5157 14.8503 12.9043 14.6039 13.2584 14.3056C13.287 14.2817 13.3109 14.2319 13.3083 14.1967C13.299 14.0897 13.2784 13.9834 13.2564 13.8778C13.0658 12.9505 12.6545 12.1374 11.9868 11.4619C10.775 10.235 9.30741 9.78126 7.61724 10.0603C6.78013 10.1984 6.04201 10.5671 5.38959 11.1164C4.91058 11.5197 4.52259 11.9913 4.22362 12.538C3.93794 13.0601 3.76719 13.6207 3.68747 14.2093C3.68348 14.2405 3.71205 14.287 3.73929 14.3089C4.11333 14.6125 4.51262 14.8769 4.93782 15.1074C5.45869 15.3897 6.00348 15.6049 6.57218 15.761C7.19403 15.9317 7.8305 16.0055 8.47628 16.0022ZM8.49421 8.95425C9.85684 8.96487 11.0707 7.87281 11.0866 6.39216C11.1019 4.95667 9.92992 3.78755 8.50484 3.78423C7.07976 3.78091 5.89983 4.94139 5.91445 6.38086C5.92907 7.90204 7.14886 8.9589 8.49421 8.95425Z" fill="white"/>
</svg>
