<svg width="17" height="17" viewBox="0 0 17 17" fill="none" xmlns="http://www.w3.org/2000/svg">
<path d="M12.2192 16.9992C11.6917 16.9839 11.1629 16.8822 10.6408 16.7388C9.81463 16.5116 9.04104 16.1575 8.28608 15.761C7.50051 15.3484 6.75619 14.8702 6.04779 14.3354C5.25425 13.7369 4.51524 13.0766 3.84343 12.3453C2.82372 11.2339 1.93307 10.0269 1.21003 8.7017C0.906712 8.1457 0.649958 7.56712 0.443756 6.96794C0.268817 6.45778 0.118489 5.94031 0.0473162 5.40424C-0.0464724 4.70077 -0.0198657 4.0086 0.338659 3.37289C0.455729 3.16563 0.603396 2.96901 0.766362 2.79563C1.16347 2.37448 1.5772 1.96994 1.98561 1.56008C2.26565 1.27909 2.59291 1.07981 2.98736 1.0074C3.45896 0.921048 3.88533 1.04726 4.24319 1.34951C4.5771 1.63116 4.88774 1.94071 5.19704 2.2496C5.65135 2.7033 6.09967 3.1643 6.54334 3.62863C6.80741 3.90497 6.95973 4.23711 6.99432 4.62106C7.02492 4.95718 6.93911 5.2674 6.76018 5.5444C6.63646 5.73571 6.4868 5.9144 6.32849 6.07914C6.01254 6.40862 5.68328 6.72615 5.35668 7.04566C5.31345 7.08818 5.31012 7.12139 5.33473 7.1752C5.60213 7.75179 5.96331 8.26793 6.3704 8.75219C6.95774 9.451 7.59696 10.0987 8.30936 10.6713C8.77232 11.0433 9.26055 11.3761 9.80332 11.6238C9.86585 11.6524 9.89246 11.6265 9.9297 11.59C10.3055 11.2213 10.6793 10.8513 11.0592 10.4873C11.2793 10.276 11.5288 10.104 11.8281 10.0276C12.3403 9.89607 12.8139 9.99106 13.211 10.3411C13.5595 10.648 13.8875 10.9788 14.2174 11.3063C14.6045 11.6903 14.9856 12.0815 15.3668 12.4708C15.555 12.6634 15.7273 12.868 15.8364 13.1191C16.0273 13.5582 16.0014 13.99 15.8031 14.4185C15.6801 14.6842 15.4898 14.8981 15.287 15.1046C14.963 15.4341 14.6417 15.7663 14.3218 16.0997C13.7518 16.6949 13.054 16.9905 12.2165 17.0005L12.2192 16.9992ZM0.969238 4.78115C0.983872 4.96316 0.989858 5.14584 1.01513 5.32652C1.075 5.75431 1.18675 6.16948 1.32976 6.57801C1.58252 7.29742 1.91311 7.98096 2.28361 8.64524C2.67539 9.34738 3.13901 10.0017 3.64388 10.6274C4.12945 11.2293 4.6363 11.8098 5.19638 12.3453C5.98925 13.1039 6.84666 13.7814 7.77722 14.3607C8.40182 14.7493 9.05168 15.094 9.72683 15.391C10.4765 15.7204 11.2461 15.9649 12.0689 16.0267C12.6975 16.0738 13.2296 15.8985 13.6526 15.4149C13.8529 15.1864 14.0744 14.9758 14.2879 14.7586C14.4316 14.6124 14.5839 14.4743 14.7222 14.3235C14.8054 14.2325 14.8812 14.1308 14.9411 14.0232C15.0349 13.8551 15.0495 13.6718 14.957 13.4984C14.9018 13.3948 14.8346 13.2925 14.7522 13.2101C14.1269 12.5784 13.497 11.9507 12.8677 11.3229C12.7853 11.2406 12.7041 11.1569 12.615 11.0831C12.3955 10.9038 12.1401 10.8838 11.8973 11.0306C11.8061 11.0858 11.721 11.1562 11.6445 11.2313C11.3279 11.5415 11.0166 11.8563 10.7026 12.1692C10.5949 12.2768 10.4918 12.3904 10.3754 12.4874C10.1319 12.69 9.85587 12.7405 9.57185 12.587C9.15612 12.3625 8.73706 12.1393 8.34129 11.8822C7.8158 11.5415 7.33755 11.1376 6.88523 10.7018C6.34179 10.1784 5.82296 9.63501 5.37264 9.02719C4.99283 8.51504 4.6383 7.98893 4.39086 7.39773C4.33232 7.25757 4.29574 7.11475 4.30572 6.96263C4.32035 6.73279 4.45671 6.57203 4.61302 6.42124C4.97354 6.07316 5.33274 5.72376 5.69059 5.37302C5.75778 5.30726 5.8223 5.23751 5.8795 5.16377C6.09967 4.87946 6.101 4.58851 5.87751 4.30619C5.80101 4.20921 5.70589 4.1275 5.61876 4.03915C5.03008 3.44529 4.44141 2.85143 3.85141 2.25823C3.78489 2.19181 3.71571 2.12604 3.63988 2.07224C3.43967 1.92942 3.21551 1.90019 2.99534 2.00382C2.86563 2.06427 2.74656 2.15992 2.6428 2.26023C2.27297 2.61893 1.90845 2.98296 1.5486 3.35163C1.42754 3.47585 1.31313 3.6107 1.21868 3.75484C1.01513 4.06506 0.969903 4.41779 0.968573 4.78115H0.969238Z" fill="#CECDCB"/>
<path d="M17.0011 7.58705C16.9998 7.81091 16.8315 7.99425 16.596 8.04008C16.3971 8.07861 16.163 7.9524 16.0885 7.75046C16.0426 7.6269 16.0147 7.49604 15.99 7.36584C15.8796 6.78394 15.6708 6.23591 15.4426 5.69253C15.1373 4.96582 14.7162 4.31217 14.2001 3.72163C13.8103 3.2759 13.3859 2.86272 12.9083 2.50534C12.4008 2.12538 11.8667 1.79457 11.2866 1.54015C10.692 1.27909 10.0774 1.08114 9.43549 0.970868C9.35966 0.957583 9.28316 0.93699 9.21399 0.905105C9.01443 0.813435 8.90734 0.608838 8.94193 0.402913C8.98051 0.176395 9.13683 0.0149766 9.36365 0.00169114C9.47939 -0.00561588 9.60045 0.0216194 9.71552 0.0495189C10.0647 0.133882 10.4173 0.208945 10.7578 0.320543C11.117 0.43812 11.4676 0.584925 11.8148 0.735051C12.4746 1.02002 13.068 1.4146 13.6307 1.85834C14.0976 2.22701 14.5293 2.63089 14.9125 3.08459C15.4067 3.67048 15.8384 4.30021 16.1716 4.99106C16.3419 5.34379 16.5002 5.70449 16.6293 6.07449C16.7949 6.54879 16.9086 7.03968 16.9964 7.53523C17.0004 7.55716 16.9998 7.57908 17.0004 7.58771L17.0011 7.58705Z" fill="#CECDCB"/>
<path d="M9.32374 3.08061C9.43682 3.10452 9.59446 3.13242 9.75011 3.17161C10.4585 3.3503 11.1064 3.65454 11.7004 4.081C12.0609 4.33941 12.3815 4.64099 12.6655 4.97645C13.3088 5.73638 13.7205 6.61123 13.9041 7.59103C13.9619 7.89793 13.8116 8.13042 13.5243 8.18556C13.3034 8.22807 13.068 8.09522 12.9948 7.86936C12.9429 7.70994 12.9196 7.54121 12.8717 7.37979C12.3855 5.73903 11.3246 4.65826 9.68958 4.14544C9.51331 4.0903 9.32706 4.06905 9.14813 4.02388C8.91067 3.96409 8.77165 3.74554 8.80491 3.49843C8.83684 3.26461 9.04902 3.07662 9.3244 3.07994L9.32374 3.08061Z" fill="#CECDCB"/>
</svg>
