<svg width="51" height="51" viewBox="0 0 51 51" fill="none" xmlns="http://www.w3.org/2000/svg">
<g filter="url(#filter0_dd_268_686)">
<path d="M28.3433 31.999C27.9399 31.9873 27.5355 31.9096 27.1362 31.7999C26.5045 31.6261 25.9129 31.3554 25.3356 31.0521C24.7348 30.7367 24.1657 30.3709 23.6239 29.962C23.0171 29.5043 22.452 28.9994 21.9382 28.4401C21.1585 27.5903 20.4774 26.6673 19.9245 25.6539C19.6925 25.2287 19.4962 24.7862 19.3385 24.3281C19.2047 23.9379 19.0898 23.5422 19.0353 23.1323C18.9636 22.5943 18.984 22.065 19.2581 21.5789C19.3477 21.4204 19.4606 21.27 19.5852 21.1375C19.8889 20.8154 20.2053 20.506 20.5176 20.1926C20.7317 19.9778 20.982 19.8254 21.2836 19.77C21.6442 19.704 21.9703 19.8005 22.244 20.0316C22.4993 20.247 22.7368 20.4837 22.9734 20.7199C23.3208 21.0669 23.6636 21.4194 24.0029 21.7745C24.2048 21.9858 24.3213 22.2398 24.3478 22.5334C24.3712 22.7904 24.3055 23.0276 24.1687 23.2395C24.0741 23.3858 23.9597 23.5224 23.8386 23.6484C23.597 23.9003 23.3452 24.1432 23.0954 24.3875C23.0624 24.42 23.0598 24.4454 23.0787 24.4865C23.2831 24.9275 23.5593 25.3222 23.8706 25.6925C24.3198 26.2269 24.8086 26.7221 25.3534 27.16C25.7074 27.4445 26.0808 27.699 26.4958 27.8885C26.5436 27.9103 26.564 27.8905 26.5925 27.8625C26.8799 27.5806 27.1657 27.2977 27.4562 27.0193C27.6245 26.8578 27.8153 26.7262 28.0442 26.6678C28.4358 26.5672 28.798 26.6398 29.1017 26.9076C29.3682 27.1422 29.619 27.3952 29.8713 27.6456C30.1673 27.9392 30.4588 28.2384 30.7502 28.5361C30.8942 28.6834 31.0259 28.8399 31.1093 29.0319C31.2553 29.3677 31.2355 29.6979 31.0839 30.0255C30.9898 30.2287 30.8443 30.3923 30.6892 30.5502C30.4415 30.8022 30.1958 31.0562 29.9511 31.3112C29.5152 31.7663 28.9816 31.9924 28.3412 32L28.3433 31.999ZM19.7403 22.6558C19.7515 22.795 19.7561 22.9347 19.7754 23.0728C19.8212 23.4 19.9067 23.7175 20.016 24.0299C20.2093 24.58 20.4621 25.1027 20.7454 25.6107C21.045 26.1476 21.3996 26.648 21.7857 27.1265C22.157 27.5867 22.5446 28.0307 22.9729 28.4401C23.5792 29.0202 24.2348 29.5384 24.9464 29.9813C25.4241 30.2785 25.921 30.5421 26.4373 30.7692C27.0106 31.0211 27.5991 31.2081 28.2283 31.2553C28.709 31.2914 29.1159 31.1573 29.4394 30.7875C29.5925 30.6127 29.7619 30.4517 29.9252 30.2856C30.0351 30.1738 30.1515 30.0682 30.2573 29.9529C30.3209 29.8833 30.3789 29.8055 30.4247 29.7233C30.4964 29.5947 30.5076 29.4545 30.4369 29.322C30.3947 29.2427 30.3433 29.1645 30.2802 29.1015C29.8021 28.6184 29.3204 28.1384 28.8392 27.6583C28.7761 27.5953 28.7141 27.5313 28.6459 27.475C28.4781 27.3378 28.2827 27.3226 28.0971 27.4348C28.0274 27.477 27.9623 27.5308 27.9038 27.5882C27.6617 27.8255 27.4236 28.0662 27.1835 28.3055C27.1011 28.3878 27.0223 28.4747 26.9333 28.5488C26.7471 28.7038 26.536 28.7424 26.3188 28.625C26.0009 28.4533 25.6804 28.2826 25.3778 28.0861C24.976 27.8255 24.6102 27.5166 24.2643 27.1834C23.8488 26.7831 23.452 26.3676 23.1077 25.9028C22.8172 25.5111 22.5461 25.1088 22.3569 24.6567C22.3121 24.5495 22.2841 24.4403 22.2918 24.324C22.303 24.1482 22.4072 24.0253 22.5268 23.91C22.8025 23.6438 23.0771 23.3766 23.3508 23.1084C23.4022 23.0581 23.4515 23.0048 23.4953 22.9484C23.6636 22.731 23.6646 22.5085 23.4937 22.2926C23.4352 22.2184 23.3625 22.156 23.2959 22.0884C22.8457 21.6343 22.3955 21.1801 21.9444 20.7265C21.8935 20.6757 21.8406 20.6254 21.7826 20.5843C21.6295 20.4751 21.4581 20.4527 21.2897 20.532C21.1905 20.5782 21.0995 20.6513 21.0201 20.728C20.7373 21.0023 20.4586 21.2807 20.1834 21.5626C20.0908 21.6576 20.0033 21.7607 19.9311 21.871C19.7754 22.1082 19.7409 22.3779 19.7398 22.6558H19.7403Z" fill="white"/>
<path d="M32 24.8015C31.999 24.9727 31.8703 25.1129 31.6902 25.1479C31.5381 25.1774 31.3591 25.0809 31.3021 24.9264C31.267 24.832 31.2457 24.7319 31.2268 24.6323C31.1424 24.1873 30.9827 23.7683 30.8082 23.3527C30.5747 22.797 30.2528 22.2972 29.858 21.8456C29.56 21.5047 29.2354 21.1888 28.8702 20.9155C28.4821 20.6249 28.0737 20.3719 27.6301 20.1774C27.1754 19.9778 26.7054 19.8264 26.2145 19.7421C26.1565 19.7319 26.098 19.7161 26.0451 19.6918C25.8926 19.6217 25.8107 19.4652 25.8371 19.3077C25.8666 19.1345 25.9861 19.0111 26.1596 19.0009C26.2481 18.9953 26.3407 19.0162 26.4287 19.0375C26.6957 19.102 26.9653 19.1594 27.2257 19.2447C27.5004 19.3347 27.7685 19.4469 28.034 19.5617C28.5386 19.7796 28.9923 20.0814 29.4226 20.4207C29.7797 20.7026 30.1098 21.0115 30.4028 21.3584C30.7807 21.8065 31.1109 22.288 31.3657 22.8163C31.4959 23.0861 31.617 23.3619 31.7157 23.6448C31.8423 24.0075 31.9293 24.3829 31.9964 24.7619C31.9995 24.7786 31.999 24.7954 31.9995 24.802L32 24.8015Z" fill="white"/>
<path d="M26.1291 21.3554C26.2155 21.3737 26.3361 21.395 26.4551 21.425C26.9968 21.5616 27.4923 21.7943 27.9465 22.1204C28.2222 22.318 28.4674 22.5486 28.6846 22.8051C29.1764 23.3863 29.4913 24.0553 29.6317 24.8045C29.6759 25.0392 29.561 25.217 29.3412 25.2592C29.1724 25.2917 28.9923 25.1901 28.9364 25.0174C28.8967 24.8955 28.8789 24.7664 28.8423 24.643C28.4704 23.3883 27.6591 22.5618 26.4088 22.1697C26.274 22.1275 26.1316 22.1113 25.9948 22.0767C25.8132 22.031 25.7069 21.8639 25.7323 21.6749C25.7567 21.4961 25.919 21.3523 26.1296 21.3549L26.1291 21.3554Z" fill="white"/>
</g>
<defs>
<filter id="filter0_dd_268_686" x="0" y="0" width="51" height="51" filterUnits="userSpaceOnUse" color-interpolation-filters="sRGB">
<feFlood flood-opacity="0" result="BackgroundImageFix"/>
<feColorMatrix in="SourceAlpha" type="matrix" values="0 0 0 0 0 0 0 0 0 0 0 0 0 0 0 0 0 0 127 0" result="hardAlpha"/>
<feOffset/>
<feGaussianBlur stdDeviation="6"/>
<feComposite in2="hardAlpha" operator="out"/>
<feColorMatrix type="matrix" values="0 0 0 0 0.95 0 0 0 0 0.547485 0 0 0 0 0.419583 0 0 0 1 0"/>
<feBlend mode="normal" in2="BackgroundImageFix" result="effect1_dropShadow_268_686"/>
<feColorMatrix in="SourceAlpha" type="matrix" values="0 0 0 0 0 0 0 0 0 0 0 0 0 0 0 0 0 0 127 0" result="hardAlpha"/>
<feOffset/>
<feGaussianBlur stdDeviation="9.5"/>
<feComposite in2="hardAlpha" operator="out"/>
<feColorMatrix type="matrix" values="0 0 0 0 0.95 0 0 0 0 0.547485 0 0 0 0 0.419583 0 0 0 1 0"/>
<feBlend mode="normal" in2="effect1_dropShadow_268_686" result="effect2_dropShadow_268_686"/>
<feBlend mode="normal" in="SourceGraphic" in2="effect2_dropShadow_268_686" result="shape"/>
</filter>
</defs>
</svg>
