<svg width="66" height="60" viewBox="0 0 66 60" fill="none" xmlns="http://www.w3.org/2000/svg">
<g filter="url(#filter0_dd_268_577)">
<path d="M38.2515 36.5854H24.4767C24.4668 37.0793 24.4394 37.5699 24.617 38.0462C24.993 39.0516 25.9412 39.8653 27.181 39.8785C27.728 39.884 28.275 39.8785 28.8209 39.8807C29.004 39.8807 29.1761 39.9215 29.3033 40.0659C29.4425 40.2236 29.4732 40.4099 29.4041 40.6039C29.3219 40.8354 29.1355 40.9699 28.9042 40.9699C28.0898 40.9699 27.2665 41.0714 26.4641 40.9016C24.9251 40.5764 23.7762 39.4033 23.4583 37.8588C23.4496 37.818 23.4353 37.7783 23.4342 37.7375C23.4331 37.6405 23.3849 37.6118 23.2928 37.5931C22.2514 37.3803 21.3953 36.4652 21.2451 35.398C21.21 35.1544 21.1925 34.9063 21.1914 34.6594C21.1859 33.2625 21.187 31.8657 21.1925 30.4678C21.1925 30.341 21.1509 30.2847 21.0434 30.2318C20.492 29.9617 19.9461 29.6784 19.3937 29.4083C19.1141 29.2738 18.9957 29.0577 19.0001 28.7512C19.0067 28.2937 19.0012 27.835 19.0023 27.3775C19.0023 26.9123 19.2259 26.6885 19.6929 26.6885C20.1983 26.6885 20.7047 26.6863 21.21 26.6896C21.2999 26.6896 21.346 26.6598 21.4074 26.5881C21.5696 26.3985 21.7384 26.2078 21.9357 26.0578C22.4564 25.6576 23.0626 25.4361 23.6885 25.2552C24.7069 24.9609 25.7439 24.7735 26.7941 24.6566C27.215 24.6092 27.637 24.5783 28.0689 24.5386V23.391C28.0251 23.391 27.978 23.391 27.9297 23.391C27.6239 23.391 27.3191 23.3965 27.0133 23.3888C26.6965 23.381 26.4586 23.1672 26.4389 22.8893C26.4181 22.5994 26.6066 22.3734 26.9245 22.3094C26.9914 22.2962 27.0604 22.2918 27.1273 22.2918C27.6107 22.2907 28.0931 22.2918 28.5765 22.2918C29.825 22.2918 31.0736 22.2918 32.3222 22.2918C32.5447 22.2918 32.7508 22.337 32.8889 22.5332C33.0084 22.7041 33.027 22.8882 32.9306 23.0779C32.8188 23.2983 32.6225 23.3843 32.3912 23.3899C32.0547 23.3976 31.7171 23.3921 31.3707 23.3921V24.5475C31.6349 24.5651 31.9012 24.5772 32.1665 24.6026C33.5565 24.7338 34.9278 24.9587 36.2509 25.425C36.8286 25.629 37.3921 25.8638 37.8229 26.328C37.8876 26.3985 37.9643 26.4647 38.006 26.5484C38.0706 26.6785 38.166 26.694 38.2932 26.6929C38.781 26.6874 39.2688 26.6896 39.7555 26.6907C40.2104 26.6907 40.4362 26.9178 40.4373 27.3753C40.4373 27.8284 40.4285 28.2826 40.4406 28.7358C40.4494 29.0753 40.3069 29.3013 40.0087 29.4469C39.5538 29.6674 39.1021 29.8945 38.6494 30.1194C38.519 30.1844 38.3425 30.2208 38.2756 30.3266C38.2087 30.4325 38.2504 30.6089 38.2504 30.7555C38.2504 32.0156 38.2526 33.2747 38.2482 34.5348C38.2482 34.8446 38.2241 35.1555 38.2109 35.4873H38.3677C40.6642 35.4873 42.9608 35.4873 45.2573 35.4873C46.0531 35.4873 46.6396 35.882 46.9016 36.5898C47.2622 37.5655 46.5903 38.6558 45.562 38.7573C45.3812 38.7749 45.1992 38.7848 45.0172 38.7848C43.0485 38.787 41.0797 38.787 39.112 38.7848C39.0057 38.7848 38.9487 38.8113 38.8928 38.9138C38.3403 39.9435 37.505 40.6171 36.366 40.8839C36.1106 40.9435 35.8443 40.9744 35.5823 40.981C35.0309 40.9953 34.4795 40.992 33.9281 40.981C33.7966 40.9788 33.6552 40.9402 33.539 40.8795C33.346 40.7792 33.2594 40.5532 33.3 40.3393C33.3427 40.1144 33.4841 39.9755 33.7001 39.9182C33.7911 39.8939 33.8886 39.8873 33.984 39.8873C34.4992 39.884 35.0133 39.8851 35.5286 39.8862C36.7727 39.8884 38.0958 38.9414 38.2263 37.4519C38.2482 37.2061 38.2438 36.958 38.2504 36.7111C38.2504 36.6758 38.2504 36.6394 38.2504 36.5909L38.2515 36.5854ZM23.3772 36.5038C23.3772 36.3528 23.3739 36.2249 23.3772 36.0981C23.3893 35.7277 23.6085 35.5039 23.9768 35.484C24.0317 35.4807 24.0865 35.4829 24.1413 35.4829C28.3879 35.4829 32.6357 35.4829 36.8824 35.4829C36.9185 35.4829 36.9602 35.4939 36.9909 35.4807C37.0325 35.462 37.0928 35.43 37.0994 35.3947C37.1279 35.247 37.1553 35.0971 37.1553 34.9471C37.1586 32.611 37.1575 30.2748 37.1575 27.9387C37.1575 27.8902 37.1575 27.8428 37.1575 27.7942H22.2832V27.9486C22.2832 30.2803 22.281 32.6121 22.2876 34.9427C22.2876 35.1389 22.3304 35.3451 22.4016 35.5292C22.5759 35.9845 22.8916 36.3131 23.3761 36.5027L23.3772 36.5038ZM23.0122 26.6355C23.0166 26.6488 23.021 26.662 23.0264 26.6752H36.4241C36.3945 26.6278 36.3573 26.6069 36.3178 26.5937C35.8026 26.4305 35.294 26.2353 34.7689 26.113C33.9544 25.9222 33.1301 25.7712 32.2904 25.7216C31.5768 25.6797 30.8642 25.6091 30.1495 25.5937C28.8593 25.565 27.5724 25.6367 26.292 25.8087C25.4611 25.92 24.6389 26.0733 23.8398 26.3335C23.5603 26.4239 23.2873 26.5341 23.0122 26.6355ZM41.5357 37.6757C41.5708 37.6779 41.5927 37.6802 41.6146 37.6802C42.8632 37.6802 44.1118 37.6824 45.3603 37.6813C45.6815 37.6813 45.9073 37.4519 45.9051 37.1388C45.9029 36.8059 45.6782 36.581 45.3439 36.581C44.1227 36.581 42.9016 36.581 41.6804 36.581C41.6333 36.581 41.585 36.581 41.5368 36.581V37.6746L41.5357 37.6757ZM39.3576 36.5854C39.3422 36.9459 39.328 37.3075 39.3126 37.6724H40.4285V36.5854H39.3576ZM30.2613 23.3965H29.1827V24.478H30.2613V23.3965ZM38.257 29.1095C38.6154 28.9287 38.952 28.76 39.2863 28.588C39.3126 28.5748 39.3411 28.5351 39.3411 28.5064C39.3455 28.2705 39.3433 28.0346 39.3433 27.7942H38.2559V29.1095H38.257ZM20.0963 27.7931C20.0963 27.9629 20.1117 28.1283 20.093 28.2893C20.07 28.4899 20.127 28.6167 20.3276 28.6773C20.4219 28.706 20.5063 28.7666 20.5951 28.8118C20.788 28.9089 20.9809 29.0048 21.1794 29.104V27.7931H20.0963Z" fill="white"/>
<path d="M37.7418 24.489C37.3844 24.4736 37.1663 24.2564 37.1575 23.9179C37.1345 22.9963 36.4647 22.477 35.9407 22.3392C35.8278 22.3094 35.705 22.3149 35.591 22.2863C35.4441 22.2488 35.283 22.2201 35.1624 22.1374C34.9947 22.0228 34.9322 21.8321 34.9848 21.6259C35.0407 21.4076 35.1854 21.2687 35.4047 21.2202C35.511 21.197 35.6217 21.1981 35.7303 21.1827C36.4976 21.0802 37.1038 20.4209 37.1619 19.6414C37.1717 19.508 37.2035 19.3669 37.2638 19.249C37.3592 19.0626 37.5839 18.9722 37.7736 19.0075C38.0125 19.0516 38.1693 19.1894 38.223 19.4276C38.2515 19.5521 38.2559 19.6811 38.2756 19.8079C38.3929 20.5488 39.0276 21.1342 39.7664 21.1893C39.83 21.1937 39.8936 21.2036 39.9561 21.2125C40.2247 21.2511 40.4176 21.4561 40.4318 21.7163C40.445 21.9633 40.2575 22.2036 39.9977 22.2598C39.887 22.2841 39.773 22.2951 39.6601 22.3105C38.884 22.4153 38.2811 23.0768 38.2504 23.8584C38.2373 24.1847 38.0991 24.3898 37.8371 24.4681C37.7988 24.4791 37.7582 24.4846 37.7418 24.4879V24.489ZM38.1868 21.735C38.0312 21.5884 37.847 21.4164 37.699 21.2775C37.5587 21.4131 37.3789 21.5884 37.2266 21.735C37.3844 21.896 37.5565 22.0702 37.7034 22.2201C37.858 22.0647 38.0323 21.8894 38.1857 21.735H38.1868Z" fill="white"/>
<path d="M44.8254 29.986C44.8133 30.2142 44.821 30.4226 44.7892 30.6243C44.741 30.9275 44.4878 31.1149 44.2071 31.0851C43.932 31.0554 43.7248 30.8128 43.7204 30.513C43.7182 30.3443 43.7204 30.1745 43.7204 29.986C43.5516 29.986 43.3894 29.9893 43.2282 29.986C43.0342 29.9805 42.8588 29.9275 42.7371 29.7622C42.5069 29.4502 42.656 29.0213 43.0342 28.9243C43.1515 28.8945 43.2776 28.8956 43.3992 28.889C43.499 28.8835 43.5987 28.889 43.7204 28.889C43.7204 28.7314 43.7171 28.577 43.7204 28.4238C43.727 28.1978 43.7917 27.9982 43.9978 27.8747C44.3639 27.6542 44.7925 27.9254 44.8122 28.3918C44.8188 28.5516 44.8122 28.7115 44.8122 28.889C44.9734 28.889 45.1268 28.8857 45.2803 28.889C45.4787 28.8945 45.6596 28.9474 45.7857 29.115C46.0202 29.4259 45.8602 29.8724 45.4754 29.9551C45.3132 29.9904 45.1411 29.9783 44.9734 29.9871C44.9219 29.9893 44.8692 29.9871 44.8254 29.9871V29.986Z" fill="white"/>
<path d="M23.3772 23.3888C23.3772 23.5663 23.3805 23.725 23.3772 23.8849C23.3674 24.2299 23.1437 24.4813 22.8467 24.489C22.5419 24.4967 22.292 24.2542 22.2843 23.9378C22.2799 23.7603 22.2843 23.5828 22.2843 23.3888C22.1067 23.3888 21.939 23.3932 21.7724 23.3888C21.4096 23.3766 21.1607 23.1164 21.1914 22.7857C21.2166 22.5134 21.4633 22.3061 21.791 22.2918C21.95 22.2852 22.1089 22.2907 22.2843 22.2907C22.2843 22.1264 22.2799 21.9732 22.2843 21.8188C22.292 21.5928 22.3589 21.3944 22.566 21.2731C22.9355 21.057 23.3586 21.3304 23.3761 21.7979C23.3816 21.9566 23.3761 22.1165 23.3761 22.2896C23.5417 22.2896 23.6951 22.2863 23.8486 22.2896C24.1544 22.2973 24.3737 22.4528 24.4405 22.7041C24.5326 23.0503 24.2695 23.3689 23.8716 23.3865C23.7127 23.3932 23.5537 23.3877 23.375 23.3877L23.3772 23.3888Z" fill="white"/>
<path d="M30.8138 40.4231C30.8182 40.1332 31.0637 39.884 31.3455 39.884C31.6393 39.884 31.9056 40.1486 31.898 40.4352C31.8903 40.7384 31.6382 40.9854 31.3422 40.9799C31.0539 40.9744 30.8094 40.7164 30.8138 40.4242V40.4231Z" fill="white"/>
<path d="M29.7176 34.3826C29.4195 34.3826 29.1849 34.1445 29.1739 33.8281C29.1487 33.1247 28.8133 32.6209 28.1873 32.3232C28.0163 32.2416 27.8113 32.2339 27.6239 32.1832C27.4726 32.1424 27.306 32.1182 27.181 32.0344C27.0122 31.9219 26.9486 31.7301 27.0002 31.5239C27.055 31.3056 27.1986 31.1656 27.4167 31.116C27.5219 31.0918 27.6338 31.0929 27.7412 31.0785C28.5041 30.9804 29.1202 30.3156 29.1761 29.5428C29.186 29.4094 29.2134 29.265 29.2759 29.1503C29.3767 28.9662 29.5521 28.8714 29.768 28.9C30.0158 28.9331 30.189 29.0886 30.2372 29.3168C30.2635 29.4413 30.2712 29.5703 30.2898 29.696C30.4016 30.4667 31.1087 31.062 31.8004 31.0862C31.8859 31.0896 31.9736 31.1017 32.0569 31.1237C32.2805 31.1833 32.4493 31.4071 32.4482 31.6298C32.4471 31.8679 32.2739 32.0928 32.0361 32.1501C31.9221 32.1777 31.8026 32.1876 31.6864 32.2042C30.8905 32.3166 30.3096 32.956 30.2668 33.7697C30.2471 34.139 30.0289 34.3826 29.7176 34.3815V34.3826ZM30.1901 31.6397C30.0443 31.4853 29.8722 31.3034 29.7341 31.1579C29.5707 31.3134 29.3931 31.4809 29.2408 31.6243C29.3997 31.7852 29.5729 31.9605 29.7209 32.1104C29.8733 31.9572 30.0476 31.7819 30.1901 31.6397Z" fill="white"/>
</g>
<defs>
<filter id="filter0_dd_268_577" x="0" y="0" width="66" height="60" filterUnits="userSpaceOnUse" color-interpolation-filters="sRGB">
<feFlood flood-opacity="0" result="BackgroundImageFix"/>
<feColorMatrix in="SourceAlpha" type="matrix" values="0 0 0 0 0 0 0 0 0 0 0 0 0 0 0 0 0 0 127 0" result="hardAlpha"/>
<feOffset/>
<feGaussianBlur stdDeviation="6"/>
<feComposite in2="hardAlpha" operator="out"/>
<feColorMatrix type="matrix" values="0 0 0 0 0.95 0 0 0 0 0.547485 0 0 0 0 0.419583 0 0 0 1 0"/>
<feBlend mode="normal" in2="BackgroundImageFix" result="effect1_dropShadow_268_577"/>
<feColorMatrix in="SourceAlpha" type="matrix" values="0 0 0 0 0 0 0 0 0 0 0 0 0 0 0 0 0 0 127 0" result="hardAlpha"/>
<feOffset/>
<feGaussianBlur stdDeviation="9.5"/>
<feComposite in2="hardAlpha" operator="out"/>
<feColorMatrix type="matrix" values="0 0 0 0 0.95 0 0 0 0 0.547485 0 0 0 0 0.419583 0 0 0 1 0"/>
<feBlend mode="normal" in2="effect1_dropShadow_268_577" result="effect2_dropShadow_268_577"/>
<feBlend mode="normal" in="SourceGraphic" in2="effect2_dropShadow_268_577" result="shape"/>
</filter>
</defs>
</svg>
