<svg width="45" height="40" viewBox="0 0 45 40" fill="none" xmlns="http://www.w3.org/2000/svg">
<path d="M0 39.9909C3.62142 34.9029 9.42542 26.5512 7.14567 19.8643C6.83137 18.3301 5.79603 17.1613 5.01029 15.8737C3.89175 14.0382 2.96735 12.2027 2.66229 9.99277C2.38497 8.01116 2.74549 6.17566 3.55897 4.58672C4.73296 2.28549 6.88683 0.824398 9.48442 0.267356C11.2685 -0.10705 13.0526 -0.161841 14.846 0.58697C17.3511 1.628 19.0243 3.35392 20.1059 5.75559C21.4555 8.75084 21.0857 11.7643 20.2538 14.7779C19.8378 16.2937 15.2342 27.6355 0 40V39.9909Z" fill="#C5B49E"/>
<path d="M24 39.9909C27.6214 34.9029 33.4254 26.5512 31.1457 19.8643C30.8314 18.3301 29.796 17.1613 29.0103 15.8737C27.8918 14.0382 26.9673 12.2027 26.6623 9.99277C26.385 8.01116 26.7455 6.17566 27.559 4.58672C28.733 2.28549 30.8868 0.824398 33.4844 0.267356C35.2685 -0.10705 37.0526 -0.161841 38.846 0.58697C41.3511 1.628 43.0243 3.35392 44.1059 5.75559C45.4555 8.75084 45.0857 11.7643 44.2538 14.7779C43.8378 16.2937 39.2342 27.6355 24 40V39.9909Z" fill="#C5B49E"/>
</svg>
