<svg width="63" height="63" viewBox="0 0 63 63" fill="none" xmlns="http://www.w3.org/2000/svg">
<g filter="url(#filter0_dd_268_688)">
<path d="M31.5172 19C24.5887 19.0186 19.14 24.5751 19.0029 31.1784C18.8531 38.3467 24.5456 43.863 31.2214 43.9942C38.3653 44.1353 43.8826 38.4495 43.9981 31.7287C44.1186 24.6984 38.4387 19.0186 31.5172 19ZM31.5142 42.5429C25.428 42.5557 20.3582 37.5408 20.4581 31.3145C20.5531 25.3849 25.4427 20.3651 31.6905 20.4611C37.529 20.5502 42.5351 25.333 42.538 31.4526C42.5674 37.7366 37.4261 42.5302 31.5142 42.5429Z" fill="white"/>
<path d="M33.0262 25.2831C31.9196 25.2645 30.813 25.2733 29.7065 25.2762L29.7104 25.2723C29.3265 25.2723 28.3805 25.2664 28.2777 25.2645C28.025 25.2606 27.7724 25.2527 27.5207 25.2694C27.2181 25.2899 26.9978 25.4535 26.8969 25.7404C26.7931 26.0342 26.8538 26.3025 27.0869 26.5199C27.2387 26.6619 27.4218 26.7305 27.6304 26.7295C27.886 26.7295 28.1406 26.7295 28.4109 26.7295C28.4109 28.2954 28.4109 29.8622 28.4148 31.4281C28.4148 31.5241 28.3903 31.5564 28.2914 31.5534C28.0593 31.5466 27.8272 31.5495 27.5951 31.5534C27.175 31.5583 26.8538 31.8766 26.8528 32.284C26.8528 32.6894 27.175 33.0086 27.5951 33.0155C27.8233 33.0194 28.0505 33.0204 28.2787 33.0155C28.3746 33.0135 28.4128 33.0341 28.4109 33.1418C28.405 33.6138 28.406 34.0859 28.4138 34.5579C28.4158 34.6715 28.3776 34.696 28.2747 34.694C28.0221 34.6901 27.7694 34.6822 27.5178 34.6989C27.2152 34.7195 26.9948 34.883 26.894 35.1699C26.7902 35.4637 26.8509 35.732 27.0839 35.9494C27.2357 36.0914 27.4189 36.16 27.6274 36.159C27.883 36.159 28.1376 36.159 28.4079 36.159C28.4079 36.2511 28.4079 36.3265 28.4079 36.4028C28.4109 36.8749 28.4079 37.3469 28.4197 37.8179C28.4275 38.1274 28.6733 38.4084 28.9749 38.4848C29.4332 38.6013 29.872 38.2439 29.8739 37.7484C29.8759 37.2558 29.8749 36.7642 29.8769 36.2716C29.8769 36.2373 29.8818 36.2021 29.8857 36.159H30.0286C30.9932 36.159 31.9578 36.159 32.9224 36.159C33.0076 36.159 33.0938 36.158 33.178 36.1424C33.4561 36.0914 33.6491 35.9328 33.745 35.6645C33.839 35.401 33.7901 35.1592 33.6118 34.9466C33.4434 34.7469 33.2191 34.6891 32.9675 34.6901C31.9706 34.693 30.9737 34.692 29.9767 34.695C29.9043 34.695 29.8671 34.6891 29.869 34.598C29.8759 34.1143 29.8749 33.6295 29.8759 33.1457C29.8759 33.1066 29.8759 33.0674 29.8759 33.0214C29.9297 33.0194 29.9689 33.0155 30.0091 33.0155C30.9815 33.0155 31.9539 33.0214 32.9263 33.0086C33.2495 33.0047 33.5805 32.9842 33.8929 32.9097C35.1317 32.615 36.063 31.9148 36.584 30.7328C37.0883 29.59 37.0765 28.4432 36.4762 27.3396C35.7369 25.9803 34.5598 25.3076 33.0243 25.2821L33.0262 25.2831ZM35.4735 29.3001C35.3951 30.5575 34.4129 31.3409 33.558 31.5113C33.415 31.5397 33.2671 31.5515 33.1222 31.5515C32.0685 31.5564 31.0148 31.5554 29.9611 31.5593C29.8798 31.5593 29.868 31.528 29.868 31.4584C29.87 30.6858 29.869 29.9131 29.869 29.1405C29.869 29.1405 29.87 29.1405 29.871 29.1405C29.871 28.3678 29.872 27.5952 29.869 26.8225C29.869 26.75 29.8945 26.7305 29.9611 26.7314C31.0912 26.7432 32.2242 26.7128 33.3514 26.7755C34.5921 26.845 35.5498 28.0584 35.4725 29.3011L35.4735 29.3001Z" fill="white"/>
</g>
<defs>
<filter id="filter0_dd_268_688" x="0" y="0" width="63" height="62.9968" filterUnits="userSpaceOnUse" color-interpolation-filters="sRGB">
<feFlood flood-opacity="0" result="BackgroundImageFix"/>
<feColorMatrix in="SourceAlpha" type="matrix" values="0 0 0 0 0 0 0 0 0 0 0 0 0 0 0 0 0 0 127 0" result="hardAlpha"/>
<feOffset/>
<feGaussianBlur stdDeviation="6"/>
<feComposite in2="hardAlpha" operator="out"/>
<feColorMatrix type="matrix" values="0 0 0 0 0.95 0 0 0 0 0.547485 0 0 0 0 0.419583 0 0 0 1 0"/>
<feBlend mode="normal" in2="BackgroundImageFix" result="effect1_dropShadow_268_688"/>
<feColorMatrix in="SourceAlpha" type="matrix" values="0 0 0 0 0 0 0 0 0 0 0 0 0 0 0 0 0 0 127 0" result="hardAlpha"/>
<feOffset/>
<feGaussianBlur stdDeviation="9.5"/>
<feComposite in2="hardAlpha" operator="out"/>
<feColorMatrix type="matrix" values="0 0 0 0 0.95 0 0 0 0 0.547485 0 0 0 0 0.419583 0 0 0 1 0"/>
<feBlend mode="normal" in2="effect1_dropShadow_268_688" result="effect2_dropShadow_268_688"/>
<feBlend mode="normal" in="SourceGraphic" in2="effect2_dropShadow_268_688" result="shape"/>
</filter>
</defs>
</svg>
