<svg width="66" height="65" viewBox="0 0 66 65" fill="none" xmlns="http://www.w3.org/2000/svg">
<path d="M31.2982 19.3218C36.1295 18.8936 40.6688 22.126 42.4662 26.5174C43.8428 29.881 43.4591 33.3913 42.1004 36.658C42.939 37.6631 43.8864 38.5613 44.8167 39.48L62.0756 56.6466C62.8065 57.3261 63.7599 58.0956 64.2104 59.005C64.941 60.48 64.3125 62.5886 62.7978 63.3148C60.3982 64.4656 59.0048 63.1395 57.3807 61.5099L49.871 54.0254L38.7719 43.0764C38.2605 42.5738 37.7649 42.0414 37.2022 41.5959C36.8013 41.7238 36.4134 41.9535 36.0211 42.1128C29.9238 44.586 22.9651 41.9094 20.5474 35.6893C19.7536 33.6465 19.5644 31.059 20.4931 29.0236C21.0806 27.736 22.534 29.4588 23.0375 29.9627L26.8908 33.7997C27.2539 34.1514 27.6604 34.4925 27.9789 34.8837L33.1818 33.2294L34.8484 28.0336C34.9445 27.7162 35.2657 27.1804 35.0732 27.0036L34.4329 26.4079C33.5629 25.5865 28.9956 21.3484 28.8383 20.5868L28.8073 20.423C28.6676 19.4744 30.5846 19.363 31.2982 19.3218Z" fill="white"/>
<path d="M27.0715 0.330177C27.7909 0.104861 27.7746 0.900365 27.8991 1.47566L28.8058 5.80997C32.0505 5.46987 34.5811 5.40226 37.8678 5.96734L38.7994 2.20832C38.9539 1.59266 39.0736 0.883505 39.3314 0.304631C39.8602 0.343291 40.4076 0.49282 40.9214 0.619188L42.8886 1.12091C43.3582 1.24728 44.0304 1.34027 44.4279 1.62502C44.5076 1.79533 43.6167 5.54378 43.5065 6.06595L43.2248 7.64009C45.8308 8.8067 48.1995 10.1654 50.3661 12.0614L52.8713 9.69979C53.277 9.312 54.4271 7.94188 54.9906 7.89589C55.3949 8.10077 55.6817 8.41448 55.9905 8.73857L56.9923 9.8379C57.4972 10.4101 58.1316 11.0186 58.4504 11.7147L55.7327 14.4188C55.2315 14.9161 54.648 15.4158 54.2341 15.9867C55.6964 18.1457 57.1627 20.5604 57.9458 23.0731L64.0421 21.6763C64.4682 22.0482 65.1733 26.1744 65.2441 26.7945L59.4617 28.3086L59.6228 30.0849C59.6886 31.1784 59.6838 32.3232 59.6354 33.4181L59.3244 36.9412C60.4108 37.3111 61.5676 37.5724 62.6839 37.8396L63.9607 38.1581C64.3463 38.2552 64.7118 38.3197 65.0629 38.5162C65.049 39.6416 64.1419 42.6269 63.7252 43.5863L57.5294 42.1549C57.2131 43.0999 56.0424 45.4556 55.4048 46.3487C54.9775 46.0963 54.6223 45.739 54.2696 45.3939L48.9878 40.3312L49.6903 38.5968C53.867 26.9769 45.7174 14.3674 33.346 14.1887C16.9117 13.9512 9.12185 33.624 20.2747 45.0925C25.3419 50.1686 33.1094 51.739 39.8352 49.2139C40.2524 49.0572 40.6567 48.8575 41.0866 48.7389L47.1153 54.8039L42.9956 56.9338L44.2712 62.9912L41.5199 63.7551C40.7438 63.9424 39.9713 64.0555 39.1867 64.1912L37.5536 58.5747C36.6297 58.5685 35.4069 58.8579 34.366 58.8894L30.5931 58.8529C30.027 58.8298 29.4572 58.7533 28.8918 58.7528L27.7567 63.489C27.7066 63.7619 27.6175 64.0298 27.5256 64.291L22.378 63.0646L23.4103 57.1686C21.6483 56.4952 19.9573 55.5626 18.4101 54.4854L16.1399 52.7662C15.4879 53.2515 14.9184 53.9183 14.3476 54.4982L11.5634 57.2984C10.782 56.7718 8.31256 54.4738 7.80504 53.5704C8.16337 53.1354 8.57313 52.7372 8.96143 52.3283L10.516 50.6911C11.0133 50.185 11.5492 49.6943 11.9643 49.1168C11.033 47.6415 10.0827 46.2066 9.29591 44.6439L8.54366 43.0716C8.30183 42.536 8.34526 42.0273 7.65296 42.139C5.80955 42.4362 3.95951 43.0731 2.02142 43.3761C1.79559 42.7204 0.621322 38.8914 0.766254 38.2715C1.24686 38.0603 1.75097 37.9549 2.26019 37.8348L5.41121 37.0443C5.71265 36.9596 6.00013 36.8556 6.31247 36.8166L6.36765 36.8104C6.0502 33.5482 5.97577 31.4032 6.40239 28.2004L0.797249 26.6837C0.662366 25.8452 1.50232 22.3204 1.84328 21.5676L7.93464 22.9641C8.60003 21.1878 9.4887 19.4143 10.4882 17.8035L11.9524 15.5871C11.882 15.3918 11.5986 15.1564 11.4515 14.9941L8.8979 12.3458C8.52016 11.9552 8.09644 11.5851 7.77524 11.1455C8.55269 10.1104 10.337 8.3077 11.3738 7.55307C12.3286 8.16447 13.1271 9.18342 13.9002 10.013L15.641 11.7964C16.0682 11.5347 16.4476 11.224 16.8502 10.9275L18.9358 9.47617C20.3401 8.58376 21.8988 7.9194 23.3825 7.17328L22.3298 1.741C22.321 1.67884 22.2954 1.50223 22.3401 1.45369C22.5751 1.19772 26.4838 0.406645 27.0715 0.330177Z" fill="white"/>
</svg>
