<svg width="30" height="30" viewBox="0 0 30 30" fill="none" xmlns="http://www.w3.org/2000/svg">
<path d="M24.6112 15.7714C24.6135 15.7456 24.6159 15.721 24.617 15.6952C24.617 15.6822 24.617 15.6693 24.6182 15.6576C24.6511 15.1764 24.6534 14.694 24.6041 14.2128C24.5971 14.1494 24.5724 14.0825 24.5736 14.0297C24.5783 13.8747 24.5536 13.728 24.5301 13.5778C24.4949 13.3477 24.4432 13.1224 24.3997 12.8947C24.3457 12.6095 24.2376 12.3383 24.1906 12.0496C24.173 11.9416 24.126 11.8231 24.0779 11.7186C23.9486 11.4393 23.8523 11.1459 23.716 10.87C23.588 10.6095 23.4588 10.3501 23.3167 10.0989C23.0312 9.59656 22.6976 9.1259 22.3205 8.68811C21.8518 8.14468 21.3373 7.65055 20.7523 7.23153C20.6137 7.13177 20.4751 7.03083 20.333 6.93459C19.6716 6.48975 18.9668 6.12825 18.2174 5.8583C17.2906 5.52496 16.332 5.34069 15.35 5.28553C14.9177 5.26088 14.4843 5.27614 14.0532 5.32191C13.5951 5.37003 13.1405 5.44163 12.6894 5.54374C12.115 5.67402 11.5558 5.85947 11.019 6.09421C10.6995 6.23388 10.3706 6.37003 10.0816 6.57543C10.0487 6.59891 10.0147 6.62121 9.97824 6.64116C9.71628 6.77966 9.48017 6.96041 9.22997 7.11769C9.10193 7.1975 9.00678 7.31604 8.87052 7.38646C8.80356 7.42168 8.74953 7.48388 8.68727 7.53083C8.60387 7.59421 8.54043 7.68341 8.45468 7.74327C8.34896 7.81722 8.25499 7.9029 8.16571 7.99327C7.96719 8.1975 7.76397 8.39585 7.58425 8.62003C7.35871 8.90055 7.12965 9.17872 6.92526 9.47567C6.52117 10.059 6.18051 10.6764 5.91504 11.3348C5.65309 11.9839 5.45691 12.6505 5.3418 13.3419C5.27367 13.7468 5.22198 14.1517 5.20671 14.5625C5.19144 14.9534 5.17029 15.3442 5.23255 15.7327C5.23843 15.9193 5.26309 16.1036 5.28776 16.2879C5.40053 17.1224 5.6108 17.9299 5.93736 18.7069C6.15937 19.2351 6.4225 19.7433 6.73496 20.2233C6.98517 20.6071 7.23302 20.9921 7.54314 21.3301C7.77455 21.5836 8.01536 21.829 8.26204 22.0684C8.43824 22.2397 8.61092 22.4182 8.80591 22.566C9.01735 22.7257 9.22644 22.8888 9.44963 23.0367C9.66577 23.1799 9.88074 23.3219 10.1074 23.4487C10.8252 23.8501 11.5781 24.167 12.3734 24.3771C13.0524 24.5567 13.7419 24.6728 14.4443 24.7022C14.4678 24.7339 14.4925 24.7327 14.5184 24.7045C15.074 24.7081 15.6284 24.7092 16.1817 24.6329C16.7784 24.5508 17.3634 24.424 17.9355 24.2386C18.8975 23.9275 19.7856 23.471 20.6067 22.8806C20.952 22.6318 21.2763 22.3559 21.5887 22.0684C21.8307 21.8454 22.0339 21.5872 22.2536 21.343C22.512 21.0555 22.7493 20.7538 22.9725 20.4416C23.2532 20.0496 23.4835 19.6271 23.6937 19.194C23.7901 18.9944 23.877 18.7902 23.9592 18.5848C24.1013 18.2327 24.2212 17.8736 24.3187 17.5074C24.4714 16.9369 24.57 16.3583 24.6135 15.7691L24.6112 15.7714Z" fill="#F8F9FB"/>
<path d="M29.9406 13.7865C29.93 13.6891 29.8913 13.5858 29.8936 13.5049C29.9018 13.2666 29.8631 13.0401 29.8267 12.8077C29.7726 12.4532 29.6927 12.1058 29.6258 11.7549C29.5412 11.3147 29.3768 10.8969 29.3039 10.452C29.2769 10.2865 29.2041 10.1023 29.1289 9.9403C28.9304 9.50955 28.78 9.05767 28.5709 8.63044C28.3736 8.22904 28.1751 7.8288 27.9542 7.44148C27.5137 6.66683 27.0004 5.9403 26.4178 5.26542C25.6942 4.42739 24.9013 3.66566 23.9991 3.01894C23.7841 2.86519 23.5715 2.70908 23.353 2.5612C22.3334 1.87458 21.2468 1.31824 20.091 0.901572C18.6626 0.386313 17.1825 0.104623 15.6683 0.0177686C15.0023 -0.0197901 14.3339 0.0036841 13.669 0.0741066C12.9619 0.14805 12.2606 0.259553 11.5664 0.41683C10.6807 0.617534 9.81844 0.905093 8.9903 1.26659C8.49811 1.48138 7.99065 1.69148 7.54545 2.00838C7.49376 2.04476 7.44208 2.07998 7.38569 2.10932C6.98043 2.32293 6.61745 2.6011 6.23216 2.84523C6.03599 2.96965 5.88798 3.15157 5.67889 3.26073C5.57552 3.31472 5.49212 3.41096 5.39579 3.48256C5.26658 3.57998 5.16908 3.71847 5.03752 3.81002C4.87424 3.92387 4.72858 4.05533 4.59232 4.195C4.28573 4.50955 3.97209 4.81706 3.69487 5.16214C3.34716 5.59523 2.99359 6.02481 2.6776 6.48138C2.05502 7.38044 1.52994 8.3335 1.11881 9.34875C0.714718 10.3488 0.412827 11.3781 0.234276 12.4427C0.12973 13.0659 0.0498524 13.6927 0.0251842 14.3253C0.00169077 14.9274 -0.0312001 15.5295 0.0651232 16.1293C0.0745206 16.4168 0.11211 16.7009 0.1497 16.9861C0.323551 18.2725 0.647761 19.5189 1.1517 20.7173C1.4947 21.5319 1.89879 22.3147 2.38275 23.0565C2.76805 23.648 3.15099 24.2419 3.62908 24.7642C3.98736 25.1539 4.35738 25.533 4.73798 25.9027C5.0105 26.168 5.27598 26.4427 5.57669 26.6704C5.90325 26.9168 6.22629 27.1692 6.56812 27.3957C6.90173 27.6164 7.23416 27.8358 7.58186 28.0307C8.68841 28.6492 9.84898 29.1387 11.0765 29.4638C12.1232 29.7408 13.1862 29.9192 14.2705 29.965C14.3069 30.0142 14.3445 30.0119 14.3844 29.9696C15.2407 29.9755 16.0959 29.9767 16.9487 29.8593C17.8685 29.7326 18.7706 29.5365 19.6528 29.2513C21.1364 28.7725 22.5061 28.0671 23.7712 27.1574C24.3045 26.7736 24.8026 26.3488 25.2854 25.9039C25.6577 25.56 25.9726 25.1621 26.3097 24.7854C26.7079 24.3429 27.0744 23.8769 27.4186 23.3945C27.8509 22.7901 28.2056 22.1387 28.5298 21.4708C28.679 21.1633 28.8117 20.8488 28.9398 20.5307C29.1583 19.9884 29.3439 19.4344 29.4942 18.8699C29.7292 17.9908 29.8819 17.0964 29.9488 16.1891C29.9524 16.1504 29.9559 16.1117 29.9582 16.0718C29.9582 16.0518 29.9594 16.033 29.9606 16.0131C30.0111 15.2701 30.0158 14.5272 29.9383 13.7854L29.9406 13.7865ZM12.0856 16.1445C12.0926 16.141 12.0997 16.1375 12.1044 16.134C12.0985 16.1375 12.0926 16.141 12.0856 16.1445ZM12.129 16.0858C12.1314 16.0624 12.129 16.0365 12.129 16.0131C12.129 16.0365 12.1325 16.0624 12.129 16.0858ZM12.1079 16.1293C12.1079 16.1293 12.1149 16.1234 12.1173 16.1199C12.1149 16.1234 12.1114 16.1257 12.1079 16.1293ZM12.1196 16.1128C12.1196 16.1128 12.1232 16.107 12.1243 16.1034C12.1243 16.107 12.1208 16.1093 12.1196 16.1128ZM12.1255 16.0988C12.1255 16.0988 12.1279 16.0905 12.1279 16.087C12.1279 16.0917 12.1267 16.0952 12.1255 16.0988ZM21.8635 11.0354C21.7367 11.9743 21.6075 12.9145 21.4689 13.8523C21.3655 14.5553 21.2445 15.2549 21.1329 15.9567C21.1282 15.9849 21.1282 16.0142 21.1259 16.0436C21.0072 16.7337 20.8944 17.4262 20.7699 18.1152C20.5726 19.2009 20.4222 20.2959 20.1556 21.3687C20.078 21.6821 19.9406 21.9743 19.7221 22.2196C19.5718 22.3875 19.3803 22.5013 19.1571 22.5049C18.8998 22.5084 18.6449 22.4603 18.4053 22.3511C18.013 22.1715 17.6535 21.9403 17.2976 21.6997C16.2239 20.972 15.1479 20.2478 14.0766 19.5178C13.7747 19.3124 13.4834 19.0917 13.1898 18.8734C13.0676 18.783 12.9642 18.6727 12.8773 18.5471C12.7117 18.3112 12.6999 18.0682 12.8526 17.8229C12.9196 17.7161 12.9971 17.6152 13.0699 17.5119C13.6643 16.9344 14.2505 16.3488 14.8554 15.783C15.4851 15.195 16.1394 14.634 16.7326 14.0072C17.085 13.6351 17.4667 13.2924 17.805 12.9074C17.8567 12.8488 17.9084 12.7901 17.9354 12.715C17.9965 12.5471 17.8978 12.4074 17.7216 12.411C17.6148 12.4133 17.522 12.4544 17.435 12.5096C17.2083 12.6527 16.9816 12.7959 16.7561 12.9415C15.6072 13.688 14.4631 14.4415 13.3319 15.215C12.9642 15.4661 12.5883 15.7079 12.216 15.9532C12.196 15.9661 12.176 15.979 12.1572 15.9919C12.1384 15.9849 12.1314 15.9966 12.1267 16.0119C12.0973 16.0389 12.0679 16.0659 12.0386 16.0917L11.8929 16.1703C11.8741 16.1598 11.8694 16.175 11.8647 16.188C11.8459 16.2079 11.826 16.2267 11.8072 16.2466L11.7426 16.2877C11.7343 16.2936 11.7273 16.3006 11.7191 16.3065C11.7073 16.3147 11.6956 16.3229 11.6826 16.3323C11.6462 16.3558 11.6098 16.3793 11.5734 16.4027C11.5734 16.4086 11.5758 16.4145 11.5769 16.4204C11.5805 16.4321 11.584 16.4438 11.5863 16.4556C11.584 16.4438 11.5793 16.4321 11.5769 16.4204C11.5758 16.4145 11.5734 16.4086 11.5734 16.4027C11.4724 16.4262 11.4043 16.4978 11.3314 16.5647C11.2598 16.5858 11.2128 16.6563 11.1329 16.6633C11.1141 16.6633 11.0859 16.6551 11.0765 16.6645C10.9179 16.8194 10.7112 16.891 10.5174 16.9849C10.4986 16.9779 10.4915 16.9896 10.4868 17.0049C10.4774 17.0096 10.4692 17.0142 10.4598 17.0178C10.2707 17.06 10.0945 17.141 9.90419 17.1833C9.5929 17.2513 9.29571 17.1833 8.99969 17.1175C8.08932 16.9157 7.20127 16.634 6.32848 16.3065C6.15933 16.2431 5.99605 16.1657 5.84922 16.0588C5.841 16.0588 5.83042 16.06 5.81985 16.0612C5.83042 16.0612 5.83982 16.0588 5.84922 16.0588C5.61193 15.7783 5.62603 15.5741 5.90443 15.3347C6.20867 15.0729 6.57869 14.9321 6.94284 14.783C7.36455 14.6105 7.77568 14.4157 8.19152 14.2326C8.69075 14.0131 9.19586 13.803 9.69745 13.5858C10.3071 13.3218 10.9168 13.0553 11.5264 12.7912C11.954 12.607 12.3828 12.425 12.8103 12.2419C13.2861 12.0377 13.7595 11.83 14.2364 11.6281C14.7168 11.425 15.2043 11.2349 15.6812 11.026C16.3943 10.7138 17.1226 10.4415 17.8391 10.1387C18.5615 9.8335 19.2945 9.55181 20.0334 9.29124C20.4011 9.16214 20.777 9.03537 21.1799 9.04476C21.6932 9.0565 21.9141 9.36636 21.9376 9.79711C21.9599 10.2114 21.9152 10.6246 21.86 11.0342L21.8635 11.0354Z" fill="url(#paint0_radial_268_352)"/>
<defs>
<radialGradient id="paint0_radial_268_352" cx="0" cy="0" r="1" gradientUnits="userSpaceOnUse" gradientTransform="translate(25.5006 4.50147) rotate(133.636) scale(29.7069 29.7069)">
<stop stop-color="#33A5DF"/>
<stop offset="1" stop-color="#0D7EC4"/>
</radialGradient>
</defs>
</svg>
