<svg width="22" height="30" viewBox="0 0 22 30" fill="none" xmlns="http://www.w3.org/2000/svg">
<path d="M21.9953 14.4032C21.9953 13.9592 21.8957 13.5467 21.7043 13.1507C20.9941 11.6756 19.1301 11.467 18.1506 12.3575C18.1277 12.3774 18.0979 12.3891 18.0693 12.4055C18.0051 12.2743 17.9467 12.1513 17.886 12.0306C17.2296 10.7148 15.4034 10.3095 14.3163 11.4296C14.2452 11.5034 14.2177 11.4659 14.1765 11.4049C14.0768 11.2561 13.9817 11.1027 13.8718 10.9632C13.1305 10.0283 11.8016 9.83845 10.8347 10.5274C10.8141 10.5426 10.7878 10.5508 10.7511 10.5696V10.409C10.7511 8.53908 10.7557 6.6703 10.7465 4.80034C10.7454 4.53086 10.7076 4.25084 10.6285 3.99541C10.3536 3.10965 9.78304 2.5039 8.88832 2.28597C7.96495 2.06102 7.20884 2.40197 6.60167 3.11316C6.15831 3.6322 6.02198 4.26372 6.02084 4.93508C6.01855 6.29654 6.01396 7.65917 6.01396 9.02063C6.01396 11.3581 6.0174 13.6967 6.01855 16.0341C6.01855 16.1138 6.01053 16.1935 6.00365 16.313C5.79057 16.0423 5.60498 15.808 5.41939 15.5737C4.85574 14.8602 4.1489 14.4009 3.24386 14.3071C2.3709 14.2169 1.57928 14.4395 0.887326 14.9996C0.666222 15.1777 0.455428 15.3686 0.240052 15.5538C-0.0211489 15.7799 -0.0635367 15.9615 0.0853935 16.2743C0.248071 16.6165 0.41304 16.9562 0.584883 17.2937C1.98483 20.0482 3.38477 22.8016 4.7893 25.5538C5.13298 26.2275 5.44001 26.9235 5.88336 27.5398C6.98888 29.0758 8.45413 29.9522 10.3375 29.9803C12.3561 30.0096 14.3758 30.0026 16.3944 29.9827C18.1793 29.9651 19.6147 29.1824 20.7191 27.7706C21.5909 26.6564 21.9873 25.3535 21.993 23.9381C22.0068 20.7606 21.9953 17.5831 21.9988 14.4056L21.9953 14.4032ZM20.9941 24.0447C20.9837 25.3054 20.5702 26.4466 19.7316 27.398C19.0729 28.1455 18.2698 28.6657 17.304 28.8813C16.9718 28.9551 16.6224 28.9704 16.281 28.9727C14.3197 28.9809 12.3572 28.9926 10.3959 28.9739C8.59389 28.9575 7.26154 28.0799 6.39545 26.4958C5.67028 25.1695 5.01269 23.8034 4.32647 22.4548C3.27708 20.3927 2.22884 18.3306 1.17488 16.2708C1.1153 16.1548 1.12905 16.0974 1.22414 16.0177C1.5094 15.7822 1.77976 15.5268 2.13719 15.4003C2.99297 15.0968 3.93123 15.3522 4.54986 16.0845C5.05164 16.6786 5.5328 17.2925 6.03115 17.8889C6.12623 18.0037 6.24882 18.1244 6.38285 18.1701C6.6578 18.2638 6.93733 18.0541 6.9717 17.7553C6.98888 17.6053 6.98201 17.453 6.98201 17.3019C6.9843 16.2861 6.98545 15.2714 6.98545 14.2556C6.98545 13.2398 6.98545 12.2251 6.98545 11.2093H6.97857C6.97857 9.11085 6.97857 7.01125 6.97857 4.91282C6.97857 4.49923 7.05762 4.11258 7.31538 3.77397C7.96839 2.91632 9.10598 3.12371 9.58256 3.98839C9.70973 4.2192 9.767 4.46759 9.767 4.73121C9.76471 8.36334 9.76128 11.9943 9.76013 15.6264C9.76013 15.7822 9.75784 15.9392 9.77617 16.0939C9.80481 16.3411 9.99155 16.5052 10.2333 16.5134C10.53 16.5227 10.7442 16.3048 10.7511 15.9767C10.7568 15.7084 10.7522 15.4401 10.7522 15.1718C10.7522 14.2978 10.7522 13.4237 10.7522 12.5508C10.7522 11.9228 11.1773 11.3346 11.7421 11.18C12.3584 11.0101 12.9759 11.269 13.3081 11.8291C13.4731 12.1056 13.5292 12.4067 13.5292 12.7242C13.5281 13.6815 13.5258 14.6375 13.5292 15.5948C13.5292 15.7037 13.5475 15.8209 13.5888 15.9205C13.6747 16.1291 13.8992 16.2322 14.1238 16.1876C14.3266 16.1478 14.495 15.9674 14.5041 15.7494C14.5156 15.4858 14.5087 15.2222 14.5087 14.9586C14.5087 14.422 14.4996 13.8842 14.5087 13.3475C14.5167 12.8273 14.6783 12.368 15.0976 12.04C15.6853 11.5795 16.5021 11.7166 16.926 12.3376C17.1138 12.6129 17.2238 12.9164 17.2261 13.2526C17.2307 13.9064 17.2296 14.5614 17.2307 15.2152C17.2307 15.337 17.2284 15.46 17.2399 15.5807C17.2674 15.8748 17.4804 16.0787 17.7348 16.0646C17.9948 16.0506 18.1987 15.8338 18.2045 15.5479C18.2114 15.1718 18.2045 14.7957 18.2045 14.4208C18.2056 14.0775 18.2801 13.7541 18.4703 13.4647C18.7899 12.9773 19.3421 12.7418 19.9023 12.8566C20.4533 12.9691 20.8703 13.4178 20.9746 14.0154C20.9941 14.1255 21.0067 14.238 21.0067 14.3493C21.0067 17.5807 21.0238 20.8121 20.9963 24.0436L20.9941 24.0447Z" fill="white"/>
<path d="M4.43645 4.97843C4.71942 4.98429 4.91875 4.78277 4.93708 4.47345C4.94739 4.2977 4.94739 4.12078 4.9726 3.94855C5.22349 2.25434 6.66353 0.995983 8.34415 0.997155C9.49779 0.997155 10.53 1.53846 11.1761 2.4957C11.5588 3.06278 11.7638 3.69313 11.7799 4.38558C11.7844 4.59296 11.8303 4.78628 12.017 4.90579C12.1739 5.00655 12.3424 5.01007 12.5073 4.91985C12.6963 4.81674 12.7662 4.64685 12.7639 4.43478C12.7548 3.73414 12.5955 3.06278 12.2759 2.45235C11.4224 0.821407 10.0683 -0.00929478 8.2651 7.84439e-05C6.99003 0.00710836 5.92231 0.537867 5.07112 1.51971C4.3448 2.35744 3.97133 3.33226 3.95987 4.45119C3.95643 4.76168 4.15463 4.97375 4.43645 4.97843Z" fill="white"/>
</svg>
