<svg width="70" height="65" viewBox="0 0 70 65" fill="none" xmlns="http://www.w3.org/2000/svg">
<path d="M10.8105 8.12842L59.2167 8.17594L59.2134 19.8929L10.8341 19.8742L10.8105 8.12842ZM31.988 11.0587C31.8326 11.0787 31.5407 11.0842 31.4338 11.206C31.2051 11.4667 31.2137 14.046 31.3092 14.4785C31.4338 15.0439 31.9451 14.9282 32.4111 14.932L38.0989 14.9277C38.2762 14.907 38.5896 14.893 38.7114 14.7534C38.9313 14.5016 38.8559 11.6928 38.7958 11.2442C38.7594 10.9734 37.8368 11.0537 37.6181 11.0533L31.988 11.0587Z" fill="white"/>
<path d="M32.4987 12.3364L37.6864 12.3706C37.74 12.7489 37.7809 13.3245 37.6795 13.6891L32.4766 13.6129L32.4987 12.3364Z" fill="white"/>
<path d="M10.7422 21.6001L59.2055 21.6219C59.2803 21.9846 59.2204 22.4816 59.2195 22.8609L59.217 33.9719C59.217 34.2698 59.2502 34.6101 59.1918 34.9002L10.8303 34.9139L10.7422 21.6001ZM31.7552 25.3791L31.6244 25.4158C31.1376 26.0121 31.2488 27.4572 31.3137 28.1556L31.4626 28.9947C33.0764 29.144 36.6698 29.1727 38.3015 29.0178C39.0381 28.7062 38.7485 26.0238 38.5324 25.4537C37.7592 25.2941 36.8151 25.392 36.0235 25.3908L31.7552 25.3791Z" fill="white"/>
<path d="M32.6787 26.6257L37.6174 26.6385C37.622 27.0286 37.6135 27.4202 37.5542 27.8062C37.1003 27.8222 36.5612 27.7615 36.0998 27.7601L32.6418 27.7458C32.5382 27.4737 32.5221 26.8623 32.6787 26.6257Z" fill="white"/>
<path d="M12.1257 36.2877L57.7403 36.2918C58.2074 36.2941 58.7667 36.2492 59.2157 36.3792L59.1799 50.2406C58.8098 50.346 58.3879 50.3289 58.0047 50.3465C57.7548 50.4061 57.459 50.3951 57.2024 50.4103L13.541 50.4355L11.6974 50.3233C10.8292 50.2704 10.8657 50.3174 10.8366 49.4435L10.834 36.3023L12.1257 36.2877ZM31.8648 40.4483L31.5257 40.5086C30.9529 40.6537 31.2969 43.9449 31.3425 44.0187C31.6002 44.4362 32.8378 44.2526 33.2575 44.2526L37.184 44.2592C37.5295 44.2693 37.8623 44.309 38.2078 44.2686L38.3479 44.2517C38.8453 44.1024 38.8334 43.7768 38.8458 43.3009L38.8347 41.8985C38.8313 41.433 38.8664 40.9498 38.8141 40.4871C37.7336 40.3444 36.5682 40.4329 35.4758 40.4336C34.2816 40.4343 33.0554 40.3756 31.8648 40.4483Z" fill="white"/>
<path d="M32.4704 41.6548L35.9479 41.6482C36.5316 41.6477 37.1933 41.587 37.7646 41.6807L37.7613 42.8961C37.6148 42.9724 32.9673 42.9259 32.4565 42.8876C32.4067 42.5446 32.3787 41.9894 32.4704 41.6548Z" fill="white"/>
<path d="M1.23581 0.291016L68.7189 0.299881C69.5992 0.310521 69.5719 1.06738 69.5737 1.75738L69.5731 5.07297C69.5678 6.91298 69.3882 6.66063 67.7727 6.65904L65.6908 6.66187C65.633 7.14776 65.6692 7.67693 65.6675 8.16849L65.6622 61.9025C65.6621 62.4848 65.9 63.9455 65.1762 64.2057C64.8534 64.3216 60.4371 64.33 60.1227 64.1649L60.0825 64.1415C59.4453 63.7804 59.3845 62.1959 59.2609 61.554L58.3492 56.5286C57.9853 54.6116 57.4289 52.7315 57.2762 50.7807L59.028 50.7998C60.7056 50.8303 60.5655 51.0437 60.5676 49.6016L60.568 14.7002L60.5644 9.5813C60.5634 8.78277 60.6361 7.90622 60.5432 7.11815C60.479 6.57604 59.6207 6.67127 59.2251 6.66613L12.0801 6.65921C11.425 6.66045 10.74 6.62871 10.0886 6.69734C9.2853 6.78228 9.43089 7.34992 9.43231 7.98371L9.43852 49.1944C9.43958 49.7229 9.42061 50.2559 9.4848 50.7812L12.9552 50.7954C12.8701 51.0133 12.8648 51.2245 12.8258 51.4524L10.8754 61.2057C10.7322 61.9257 10.6449 64.2472 9.74672 64.2682L6.52991 64.2736C3.89545 64.2723 4.39837 64.0333 4.39464 61.5817L4.37762 6.66258L2.16273 6.65372C0.694062 6.6484 0.498641 6.82715 0.493498 5.37071L0.490484 3.79529C0.489952 3.08472 0.275202 1.29773 0.631109 0.722466L0.665688 0.668734C0.811633 0.433236 0.971055 0.360353 1.23581 0.291016Z" fill="white"/>
</svg>
