<svg width="17" height="17" viewBox="0 0 17 17" fill="none" xmlns="http://www.w3.org/2000/svg">
<path d="M8.50792 0.000488281C13.2768 0.0270591 17.0923 3.90507 16.998 8.67851C16.9069 13.2866 13.1639 17.0576 8.36508 16.9998C3.77625 16.944 -0.105687 13.1856 0.00194165 8.27729C0.100269 3.81141 3.73705 0.024402 8.50792 0.000488281ZM14.1691 13.4194C14.8414 12.6429 15.339 11.784 15.6413 10.8168C16.1655 9.13952 16.1456 7.47021 15.5184 5.82414C14.3438 2.73994 11.1222 0.512641 7.32799 1.08524C3.99483 1.58809 1.25894 4.39131 1.01445 7.94914C0.902833 9.57594 1.26558 11.0891 2.1286 12.4768C2.33456 12.8076 2.55912 13.1258 2.82952 13.4128C3.38361 11.4432 4.60805 10.0994 6.50284 9.33348C5.54149 8.63268 4.98674 7.7027 4.93425 6.51764C4.88177 5.32528 5.34484 4.33485 6.27031 3.59153C7.73924 2.41112 9.77953 2.55261 11.0771 3.90905C11.7182 4.5793 12.071 5.38705 12.0703 6.31903C12.0696 7.58114 11.5255 8.57887 10.503 9.32817C12.3892 10.0961 13.615 11.4432 14.1691 13.4194ZM8.47603 16.0021C8.47603 16.0114 8.47736 16.02 8.47736 16.0293C8.91718 15.9861 9.36164 15.9689 9.79614 15.8951C10.6127 15.7563 11.3893 15.4913 12.1128 15.0794C12.5154 14.8502 12.9041 14.6038 13.2582 14.3055C13.2868 14.2816 13.3107 14.2318 13.308 14.1966C13.2987 14.0897 13.2781 13.9834 13.2562 13.8778C13.0655 12.9504 12.6543 12.1374 11.9866 11.4618C10.7748 10.2349 9.30716 9.7812 7.617 10.0602C6.77988 10.1984 6.04177 10.567 5.38935 11.1164C4.91034 11.5196 4.52234 11.9912 4.22337 12.5379C3.93769 13.06 3.76695 13.6207 3.68722 14.2092C3.68324 14.2404 3.71181 14.2869 3.73904 14.3089C4.11309 14.6124 4.51238 14.8768 4.93758 15.1073C5.45844 15.3896 6.00323 15.6049 6.57194 15.761C7.19379 15.9317 7.83026 16.0054 8.47603 16.0021ZM8.49397 8.95418C9.8566 8.96481 11.0704 7.87275 11.0864 6.3921C11.1016 4.95661 9.92968 3.78749 8.5046 3.78417C7.07952 3.78085 5.89959 4.94133 5.91421 6.3808C5.92882 7.90198 7.14861 8.95883 8.49397 8.95418Z" fill="#CECDCB"/>
</svg>
