<svg width="30" height="30" viewBox="0 0 30 30" fill="none" xmlns="http://www.w3.org/2000/svg">
<path d="M-0.000244141 15.0713C0.111524 6.62959 6.65411 0.0307257 14.9309 0.000110006C23.1747 -0.0305057 29.8443 6.33285 29.9949 14.7498C30.1479 23.2162 23.3982 30.0106 14.9426 30C10.8237 29.9941 7.30119 28.4586 4.39991 25.5619C1.4904 22.6546 0.0962298 19.0831 -0.000244141 15.0713ZM6.86823 10.8675C6.49645 10.8675 6.12468 10.864 5.7529 10.8687C5.58701 10.871 5.42112 10.8805 5.25641 10.9005C4.89993 10.9429 4.7458 11.1266 4.78934 11.4539C4.79992 11.5352 4.82816 11.6152 4.8611 11.6906C4.99758 12.0038 5.1317 12.3182 5.28112 12.6256C5.92349 13.9491 6.59411 15.2562 7.40002 16.4902C8.23769 17.7737 9.09772 19.0348 10.2801 20.0416C11.0519 20.6987 11.9272 21.1462 12.899 21.3923C13.3496 21.5065 13.8214 21.5618 14.2861 21.5913C14.7426 21.6207 15.205 21.5983 15.6627 21.5724C16.0274 21.5512 16.2415 21.3593 16.3133 21.0049C16.3627 20.7623 16.3733 20.5115 16.4015 20.2654C16.4392 19.9427 16.5109 19.6295 16.6921 19.3528C16.9015 19.0348 17.1792 18.8947 17.5286 19.1703C17.8427 19.4164 18.1322 19.6954 18.4169 19.9769C18.771 20.3266 19.0922 20.7116 19.4581 21.0484C19.9052 21.4606 20.444 21.6584 21.0652 21.6384C21.857 21.6125 22.6488 21.6183 23.4406 21.6007C23.7406 21.5936 24.0335 21.5406 24.2877 21.3628C24.4818 21.2262 24.5747 21.0119 24.503 20.7894C24.4394 20.5915 24.363 20.3925 24.2583 20.2136C23.9535 19.6884 23.5147 19.2704 23.1017 18.8347C22.617 18.3248 22.1029 17.842 21.617 17.3333C21.2546 16.9542 21.2181 16.6633 21.5052 16.2264C21.8241 15.7413 22.177 15.2774 22.5264 14.8122C23.097 14.0539 23.6653 13.2968 24.1394 12.4725C24.3241 12.151 24.4583 11.8154 24.5136 11.448C24.5477 11.2231 24.4677 11.0441 24.2559 10.9629C24.1171 10.9087 23.9629 10.8699 23.8159 10.8699C22.7111 10.871 21.6076 10.8958 20.5028 10.8887C20.1158 10.8864 19.9063 11.0806 19.7628 11.3974C19.6075 11.7401 19.4687 12.0898 19.3087 12.4301C18.8381 13.4275 18.2898 14.3801 17.5898 15.2361C17.4345 15.4269 17.2439 15.5965 17.0462 15.7437C16.8498 15.8885 16.7145 15.8555 16.5709 15.6577C16.4956 15.5541 16.4321 15.4293 16.4027 15.3044C16.2521 14.658 16.325 14.0009 16.3239 13.3474C16.3239 12.6644 16.3556 11.9803 16.3333 11.2973C16.3203 10.9217 16.1286 10.6155 15.725 10.5307C15.3826 10.4589 15.0344 10.3847 14.6873 10.3753C14.0673 10.3576 13.4461 10.3706 12.8261 10.4047C12.5237 10.4212 12.2202 10.4966 11.9261 10.5802C11.6978 10.645 11.5107 10.798 11.3719 10.9947C11.2837 11.1195 11.3119 11.1796 11.4602 11.2196C11.5402 11.2408 11.619 11.2691 11.6978 11.295C12.0708 11.4186 12.3261 11.66 12.392 12.0533C12.4555 12.4277 12.512 12.8057 12.5261 13.1837C12.5425 13.6665 12.5343 14.1516 12.4967 14.6332C12.472 14.9406 12.399 15.2503 12.3061 15.5458C12.2037 15.8685 11.9472 15.9462 11.6719 15.7448C11.4849 15.6082 11.3096 15.4422 11.1684 15.2585C10.5566 14.4672 10.0507 13.6088 9.60127 12.7174C9.38126 12.2817 9.18361 11.8343 8.97184 11.3939C8.79771 11.03 8.50358 10.8604 8.10122 10.864C7.69061 10.8687 7.28001 10.864 6.86941 10.864L6.86823 10.8675Z" fill="url(#paint0_linear_356_645)"/>
<path d="M6.86823 10.8675C7.27883 10.8675 7.68944 10.8712 8.10004 10.8677C8.50241 10.863 8.79536 11.0337 8.97066 11.3976C9.18243 11.838 9.38008 12.2854 9.60009 12.7211C10.0495 13.6125 10.5554 14.4709 11.1672 15.2622C11.3084 15.4447 11.4837 15.6108 11.6708 15.7485C11.9461 15.9499 12.2025 15.8722 12.3049 15.5495C12.399 15.254 12.472 14.9455 12.4955 14.637C12.5331 14.1553 12.5425 13.6702 12.5249 13.1874C12.512 12.8094 12.4543 12.4314 12.3908 12.057C12.3249 11.6637 12.0696 11.4211 11.6966 11.2987C11.6178 11.2728 11.539 11.2445 11.459 11.2233C11.3107 11.1833 11.2825 11.1232 11.3707 10.9984C11.5096 10.8017 11.6978 10.6487 11.9249 10.5839C12.2178 10.5003 12.5214 10.4249 12.8249 10.4085C13.4438 10.3743 14.0661 10.3613 14.6862 10.379C15.0332 10.3884 15.3815 10.4626 15.7238 10.5344C16.1274 10.6192 16.3192 10.9254 16.3321 11.301C16.3544 11.984 16.3227 12.6669 16.3227 13.3511C16.3227 14.0046 16.2509 14.6617 16.4015 15.3081C16.4309 15.433 16.4933 15.5566 16.5697 15.6614C16.7133 15.8592 16.8486 15.8922 17.0451 15.7474C17.2439 15.6013 17.4333 15.4306 17.5886 15.2398C18.2886 14.3838 18.8369 13.4323 19.3075 12.4338C19.4675 12.0935 19.6075 11.7438 19.7616 11.4011C19.9052 11.0844 20.1146 10.8901 20.5016 10.8924C21.6064 10.8995 22.71 10.8759 23.8147 10.8736C23.9618 10.8736 24.1159 10.9124 24.2547 10.9666C24.4665 11.049 24.5465 11.228 24.5124 11.4517C24.4571 11.8191 24.323 12.1547 24.1382 12.4762C23.6653 13.3005 23.0959 14.0588 22.5253 14.8159C22.1758 15.2799 21.8241 15.745 21.504 16.2301C21.217 16.667 21.2534 16.9579 21.6158 17.337C22.1029 17.8457 22.6158 18.3285 23.1006 18.8384C23.5135 19.2729 23.9524 19.6921 24.2571 20.2173C24.3606 20.3962 24.4371 20.5952 24.5018 20.7931C24.5736 21.0156 24.4806 21.2311 24.2865 21.3665C24.0312 21.5455 23.7382 21.5985 23.4394 21.6044C22.6476 21.622 21.8558 21.6162 21.064 21.6421C20.4428 21.6621 19.9052 21.4643 19.4569 21.0521C19.091 20.7154 18.7698 20.3303 18.4157 19.9806C18.131 19.6991 17.8416 19.4212 17.5274 19.174C17.178 18.8996 16.8992 19.0386 16.6909 19.3565C16.5097 19.632 16.438 19.9452 16.4003 20.2691C16.3709 20.5163 16.3615 20.766 16.3121 21.0086C16.2403 21.363 16.0262 21.5549 15.6615 21.5761C15.2038 21.602 14.7414 21.6244 14.285 21.595C13.8202 21.5655 13.3485 21.5102 12.8979 21.396C11.9261 21.1487 11.0507 20.7024 10.2789 20.0453C9.09655 19.0386 8.23769 17.7774 7.39884 16.4939C6.59293 15.2599 5.92232 13.9528 5.27994 12.6293C5.13052 12.3219 4.9964 12.0075 4.85993 11.6943C4.82698 11.6189 4.79875 11.5377 4.78816 11.4576C4.7458 11.1303 4.89875 10.9466 5.25523 10.9042C5.41995 10.8842 5.58583 10.8748 5.75172 10.8724C6.1235 10.8677 6.49528 10.8712 6.86705 10.8712L6.86823 10.8675Z" fill="white"/>
<defs>
<linearGradient id="paint0_linear_356_645" x1="24.9987" y1="3.33319" x2="4.16624" y2="24.9989" gradientUnits="userSpaceOnUse">
<stop stop-color="#70A9E4"/>
<stop offset="1" stop-color="#4D76A1"/>
</linearGradient>
</defs>
</svg>
