<svg width="40" height="40" viewBox="0 0 40 40" fill="none" xmlns="http://www.w3.org/2000/svg">
<g filter="url(#filter0_d_268_356)">
<path d="M4.76977 19.665C4.7423 18.9348 4.86173 18.1856 4.97519 17.4364C5.19494 15.9888 5.64161 14.6098 6.28296 13.2922C6.48599 12.8739 6.71888 12.471 6.95774 12.0704C7.45935 11.2278 8.04456 10.4491 8.69546 9.71645C9.27828 9.06062 9.92679 8.47332 10.6195 7.93211C10.9873 7.64378 11.3659 7.36608 11.7672 7.12856C12.1697 6.88986 12.5698 6.64762 12.9902 6.43492C13.5742 6.14068 14.1678 5.86416 14.7828 5.65028C15.4122 5.43167 16.05 5.23314 16.7069 5.09961C17.1452 5.00981 17.5859 4.93772 18.0278 4.86682C18.4601 4.7971 18.8972 4.77229 19.3343 4.74393C19.6258 4.72502 19.9184 4.70966 20.2086 4.72266C20.7054 4.74629 21.201 4.7782 21.6967 4.83019C22.8659 4.95308 23.9981 5.22369 25.1064 5.60419C25.5722 5.7649 26.0261 5.95515 26.4727 6.16313C27.095 6.45146 27.6849 6.79533 28.2725 7.14629C28.4374 7.24437 28.6165 7.34836 28.761 7.45825C28.9724 7.62014 29.1874 7.78322 29.4 7.94629C29.7559 8.22044 30.0891 8.52059 30.4318 8.80892C30.7567 9.08189 31.0553 9.38558 31.3168 9.72709C31.4554 9.90789 31.6273 10.0698 31.7743 10.247C32.4753 11.0967 33.0856 12.0054 33.5908 12.9838C33.9001 13.5829 34.1593 14.2021 34.385 14.8355C34.6286 15.5185 34.8257 16.2181 34.9559 16.9306C35.0311 17.3395 35.1016 17.7495 35.1434 18.1655C35.1804 18.5318 35.2091 18.8981 35.233 19.2656C35.2509 19.5351 35.258 19.8033 35.2545 20.0715C35.2497 20.445 35.1971 20.816 35.1721 21.1882C35.1183 21.9977 34.9607 22.7871 34.7576 23.5693C34.3444 25.154 33.6768 26.6264 32.7822 28.003C32.1923 28.9105 31.5258 29.7531 30.7495 30.5094C30.2635 30.982 29.7618 31.4382 29.2065 31.8305C28.8721 32.0668 28.5365 32.302 28.1842 32.5111C27.808 32.7345 27.4246 32.9484 27.0352 33.1528C26.0404 33.6751 25.0001 34.0745 23.9157 34.3676C23.2744 34.5413 22.6211 34.6547 21.9654 34.7563C20.9682 34.9111 19.9649 34.9064 18.9617 34.8509C17.6145 34.7752 16.3151 34.4668 15.042 34.0343C14.3099 33.785 13.6029 33.4801 12.9173 33.1232C12.5172 32.9153 12.116 32.7061 11.7445 32.4473C11.6645 32.3918 11.5833 32.3752 11.4889 32.4083C11.2441 32.4946 10.9981 32.5785 10.7509 32.6577C9.77631 32.9673 8.80056 33.2745 7.82481 33.5829C7.21093 33.7767 6.59587 33.9693 5.98199 34.1643C5.9378 34.1785 5.88048 34.1868 5.85898 34.1537C5.82793 34.1052 5.83868 34.045 5.86137 33.9859C5.94497 33.7637 6.02857 33.5427 6.10023 33.317C6.20772 32.9814 6.30923 32.6447 6.4215 32.3114C6.5266 31.9959 6.63528 31.6792 6.74754 31.3649C6.80009 31.2172 6.87653 31.0671 6.88966 30.8946C6.89803 30.7906 6.99118 30.6724 7.03179 30.559C7.24199 29.9729 7.43546 29.3809 7.64088 28.7924C7.68507 28.6648 7.64924 28.5738 7.5752 28.4698C6.84786 27.4453 6.25071 26.3522 5.79807 25.1835C5.53293 24.4981 5.31796 23.7962 5.15911 23.0766C5.03013 22.4928 4.94653 21.9043 4.86412 21.3135C4.78888 20.7758 4.76977 20.2358 4.77335 19.6627L4.76977 19.665ZM11.5845 13.7023C11.4483 13.8925 11.4209 14.1241 11.3635 14.3392C11.2584 14.7303 11.1784 15.1297 11.1725 15.5386C11.1665 15.886 11.1498 16.2346 11.2083 16.5809C11.3791 17.5971 11.7863 18.5235 12.3023 19.4074C12.5853 19.8919 12.9197 20.3422 13.2494 20.7971C13.6518 21.3537 14.0675 21.8996 14.5177 22.4172C14.741 22.6748 14.962 22.9359 15.2008 23.1794C15.5615 23.5445 15.9365 23.8955 16.3068 24.2523C16.8144 24.7416 17.3745 25.1693 17.9442 25.5782C18.3455 25.8665 18.7647 26.1348 19.2042 26.3687C19.6496 26.6063 20.0975 26.8379 20.5621 27.0317C21.0649 27.242 21.5832 27.4169 22.092 27.6095C22.4587 27.7489 22.8337 27.8624 23.2087 27.9711C23.4834 28.0515 23.7724 28.1011 24.0578 28.1543C24.6144 28.2559 25.1745 28.289 25.7275 28.1791C26.702 27.9853 27.5727 27.5752 28.2809 26.865C28.5174 26.6275 28.7455 26.3841 28.8625 26.0603C29.0703 25.4848 29.2125 24.9011 29.1898 24.2819C29.179 23.9936 29.0668 23.8033 28.8064 23.6769C28.0337 23.2987 27.2645 22.9147 26.4954 22.5283C26.0929 22.3262 25.6749 22.1608 25.2533 22.0024C24.9751 21.8973 24.698 21.8724 24.4436 22.0698C24.4221 22.0721 24.3934 22.0568 24.3887 22.0946C24.2525 22.2305 24.1307 22.377 24.0124 22.5295C23.696 22.9371 23.3986 23.3602 23.0546 23.7478C22.8193 24.0136 22.5399 24.1425 22.1828 24.0964C22.0335 24.0775 21.8961 24.0207 21.7576 23.9676C21.1939 23.7501 20.6588 23.4736 20.1321 23.1829C20.1214 23.1758 20.1094 23.1687 20.0987 23.1617C20.0891 23.1569 20.0808 23.1522 20.0712 23.1475C20.0378 23.1097 19.9948 23.086 19.9482 23.0695C19.2507 22.6015 18.5616 22.1218 17.9573 21.5345L17.8952 21.4742C17.7722 21.3348 17.648 21.1953 17.525 21.0559C17.1046 20.5785 16.7081 20.0834 16.3414 19.5634C16.3331 19.5528 16.3247 19.5422 16.3163 19.5303C16.259 19.4405 16.1969 19.3531 16.1432 19.2621C16.0166 19.0458 15.8697 18.845 15.7681 18.6122C15.6678 18.3841 15.7586 18.208 15.8864 18.0532C16.1229 17.7673 16.3808 17.4978 16.6352 17.2272C16.8777 16.9684 17.0747 16.6801 17.2037 16.3528C17.2837 16.1507 17.2563 15.938 17.1727 15.7371C16.9398 15.1806 16.7105 14.6216 16.4692 14.0686C16.1909 13.4305 15.964 12.7699 15.632 12.1543C15.5197 11.9463 15.3848 11.7608 15.1376 11.7017C14.9871 11.6662 14.827 11.6485 14.6754 11.6473C14.3995 11.645 14.1236 11.6095 13.8453 11.6603C13.4536 11.7312 13.0857 11.847 12.7895 12.1188C12.393 12.484 12.0347 12.8822 11.7612 13.3489C11.7194 13.3761 11.7015 13.4175 11.6932 13.4648C11.686 13.4766 11.68 13.4896 11.6729 13.5014C11.6466 13.5108 11.6538 13.5345 11.6502 13.5534C11.6215 13.5652 11.6227 13.59 11.6215 13.6136C11.6167 13.6231 11.6131 13.6326 11.6084 13.642L11.6036 13.6491L11.6084 13.6562C11.5988 13.6704 11.5893 13.6857 11.5797 13.6999L11.5845 13.7023Z" fill="#4BAF4F"/>
<path d="M19.9766 4.71808C20.0542 4.71808 20.1307 4.71926 20.2083 4.72399C20.7051 4.74762 21.2008 4.77953 21.6964 4.83152C22.8656 4.95441 23.9978 5.22502 25.1061 5.60552C25.5719 5.76623 26.0258 5.95648 26.4724 6.16446C27.0947 6.45279 27.6846 6.79666 28.2722 7.14762C28.4371 7.2457 28.6162 7.34969 28.7607 7.45958C28.9721 7.62148 29.1871 7.78455 29.3997 7.94762C29.7556 8.22177 30.0888 8.52192 30.4316 8.81025C30.7564 9.08322 31.055 9.38691 31.3165 9.72842C31.4551 9.90922 31.6271 10.0711 31.774 10.2484C32.475 11.098 33.0853 12.0067 33.5905 12.9851C33.8998 13.5843 34.159 14.2035 34.3847 14.8368C34.6283 15.5199 34.8254 16.2194 34.9556 16.932C35.0308 17.3408 35.1013 17.7509 35.1431 18.1668C35.1801 18.5331 35.2088 18.8995 35.2327 19.267C35.2506 19.5364 35.2577 19.8046 35.2542 20.0729C35.2494 20.4463 35.1968 20.8173 35.1718 21.1896C35.118 21.999 34.9604 22.7884 34.7573 23.5707C34.3441 25.1553 33.6765 26.6277 32.7819 28.0043C32.192 28.9119 31.5255 29.7544 30.7492 30.5107C30.2632 30.9834 29.7615 31.4395 29.2062 31.8318C28.8718 32.0682 28.5362 32.3033 28.1839 32.5125C27.8077 32.7358 27.4243 32.9497 27.0349 33.1541C26.0401 33.6764 24.9998 34.0758 23.9154 34.3689C23.2741 34.5426 22.6208 34.656 21.9651 34.7577C21.3536 34.8522 20.7386 34.8876 20.1235 34.8876C19.7365 34.8876 19.3484 34.8735 18.9614 34.8522C17.6142 34.7766 16.3148 34.4682 15.0417 34.0357C14.3096 33.7863 13.6026 33.4814 12.917 33.1246C12.5169 32.9166 12.1157 32.7074 11.7442 32.4487C11.6917 32.412 11.6391 32.3931 11.583 32.3931C11.5531 32.3931 11.5209 32.399 11.4886 32.4108C11.2438 32.4971 10.9978 32.581 10.7506 32.6602C9.77601 32.9698 8.80026 33.277 7.82451 33.5854C7.21064 33.7792 6.59557 33.9718 5.9817 34.1668C5.9602 34.1739 5.93512 34.1798 5.91362 34.1798C5.89212 34.1798 5.87063 34.1739 5.85868 34.1562C5.82763 34.1077 5.83838 34.0475 5.86107 33.9884C5.94467 33.7662 6.02827 33.5453 6.10113 33.3196C6.20861 32.984 6.31013 32.6472 6.4224 32.3139C6.52749 31.9984 6.63618 31.6817 6.74844 31.3674C6.80099 31.2197 6.87743 31.0696 6.89056 30.8971C6.89892 30.7931 6.99208 30.6749 7.03269 30.5615C7.24288 29.9754 7.43636 29.3834 7.64178 28.7949C7.68597 28.6673 7.65014 28.5763 7.5761 28.4723C6.84876 27.4478 6.25161 26.3547 5.79897 25.186C5.53383 24.5006 5.31886 23.7987 5.16001 23.0791C5.03103 22.4953 4.94743 21.9069 4.86502 21.316C4.78978 20.7783 4.77067 20.2383 4.77425 19.6652C4.74678 18.9349 4.86621 18.1857 4.97967 17.4365C5.19823 15.989 5.6461 14.61 6.28744 13.2924C6.49047 12.8741 6.72336 12.4711 6.96222 12.0705C7.46383 11.228 8.04904 10.4492 8.69994 9.7166C9.28276 9.06077 9.93127 8.47347 10.624 7.93226C10.9918 7.64393 11.3704 7.36623 11.7717 7.12871C12.1742 6.89001 12.5743 6.64777 12.9947 6.43506C13.5787 6.14083 14.1711 5.86431 14.7873 5.65043C15.4167 5.43182 16.0545 5.23329 16.7114 5.09976C17.1497 5.00995 17.5904 4.93787 18.0323 4.86697C18.4646 4.79725 18.9017 4.77244 19.3388 4.74408C19.5538 4.72989 19.7676 4.71808 19.9814 4.71808M25.013 28.2489C25.2542 28.2489 25.4955 28.2277 25.7355 28.1804C26.7101 27.9866 27.5807 27.5766 28.289 26.8664C28.5254 26.6289 28.7536 26.3854 28.8706 26.0617C29.0784 25.4862 29.2205 24.9024 29.1978 24.2832C29.1871 23.9949 29.0748 23.8046 28.8145 23.6782C28.0417 23.3001 27.2726 22.916 26.5035 22.5296C26.101 22.3275 25.683 22.1621 25.2614 22.0037C25.1324 21.9553 25.0034 21.9234 24.8768 21.9234C24.7311 21.9234 24.5878 21.9648 24.4517 22.0711H24.4469C24.4397 22.0711 24.4314 22.0699 24.423 22.0699C24.4099 22.0699 24.3991 22.0735 24.3967 22.0959C24.2606 22.2318 24.1388 22.3783 24.0205 22.5308C23.704 22.9385 23.4066 23.3615 23.0627 23.7491C22.8584 23.9795 22.6208 24.1071 22.3294 24.1071C22.2852 24.1071 22.2386 24.1036 22.1908 24.0977C22.0415 24.0788 21.9042 24.0221 21.7657 23.9689C21.2019 23.7515 20.6669 23.4749 20.1402 23.1843C20.1295 23.1772 20.1175 23.1701 20.1068 23.163C20.0972 23.1583 20.0889 23.1535 20.0793 23.1488C20.0459 23.111 20.0029 23.0874 19.9563 23.0708C19.2588 22.6029 18.5697 22.1231 17.9654 21.5358C17.9451 21.5157 17.9236 21.4956 17.9033 21.4755C17.7803 21.3361 17.656 21.1967 17.533 21.0572C17.1126 20.5798 16.7161 20.0847 16.3495 19.5648C16.3411 19.5541 16.3328 19.5435 16.3244 19.5317C16.2671 19.4419 16.205 19.3544 16.1512 19.2634C16.0258 19.0472 15.8777 18.8463 15.7762 18.6135C15.6759 18.3854 15.7667 18.2094 15.8944 18.0546C16.1309 17.7686 16.3889 17.4992 16.6433 17.2286C16.8857 16.9698 17.0828 16.6814 17.2118 16.3541C17.2918 16.1521 17.2643 15.9393 17.1807 15.7385C16.9478 15.1819 16.7185 14.623 16.4773 14.0699C16.199 13.4318 15.9721 12.7713 15.6401 12.1556C15.5278 11.9476 15.3928 11.7621 15.1456 11.703C14.9951 11.6676 14.8351 11.6498 14.6834 11.6487C14.5222 11.6475 14.3598 11.6345 14.1973 11.6345C14.0827 11.6345 13.968 11.6404 13.8534 11.6617C13.4616 11.7326 13.0938 11.8484 12.7976 12.1201C12.4011 12.4853 12.0428 12.8835 11.7693 13.3503C11.7275 13.3775 11.7096 13.4188 11.7012 13.4661C11.6941 13.4779 11.6881 13.4909 11.6809 13.5027C11.6547 13.5122 11.6618 13.5358 11.6582 13.5547C11.6296 13.5665 11.6308 13.5913 11.6296 13.615C11.6248 13.6244 11.6212 13.6339 11.6164 13.6433L11.6117 13.6504L11.6164 13.6575C11.6069 13.6717 11.5973 13.6871 11.5878 13.7012C11.4516 13.8915 11.4242 14.1231 11.3668 14.3382C11.2617 14.7293 11.1817 15.1287 11.1757 15.5376C11.1698 15.885 11.153 16.2336 11.2116 16.5798C11.3824 17.5961 11.7896 18.5225 12.3056 19.4064C12.5886 19.8909 12.923 20.3411 13.2526 20.7961C13.6551 21.3526 14.0707 21.8986 14.521 22.4173C14.7443 22.6749 14.9653 22.9361 15.2041 23.1795C15.5648 23.5447 15.9398 23.8956 16.3101 24.2525C16.8176 24.7417 17.3778 25.1695 17.9475 25.5783C18.3487 25.8655 18.768 26.1349 19.2075 26.3689C19.6529 26.6064 20.1008 26.838 20.5654 27.0318C21.0682 27.2422 21.5865 27.417 22.0953 27.6097C22.4619 27.7491 22.837 27.8625 23.212 27.9713C23.4867 28.0516 23.7757 28.1012 24.0611 28.1544C24.3764 28.2123 24.6929 28.2478 25.0082 28.2478M19.9766 2.00021C19.678 2.00021 19.3973 2.01675 19.1573 2.03211L19.0677 2.03802C18.6234 2.06638 18.1206 2.09828 17.5844 2.18455C17.0828 2.26608 16.6278 2.34053 16.1536 2.43743C15.4573 2.57923 14.7539 2.77893 13.8713 3.08735C13.0377 3.37805 12.296 3.7361 11.743 4.01498C11.288 4.24422 10.8855 4.4841 10.4962 4.71453L10.3576 4.79725C9.78079 5.13876 9.28396 5.51335 8.91611 5.80168C8.0371 6.48942 7.29066 7.18307 6.63259 7.92399C5.83241 8.82561 5.16479 9.73078 4.59152 10.6915C4.34788 11.1015 4.06364 11.5908 3.80806 12.1154C3.03295 13.7083 2.51223 15.3639 2.25904 17.0348L2.24471 17.1328C2.12767 17.9045 1.9951 18.7766 2.02376 19.7042C2.02018 20.4735 2.0572 21.0868 2.1408 21.6871C2.22321 22.2826 2.31756 22.9585 2.47402 23.6617C2.66033 24.503 2.91472 25.3432 3.23121 26.1586C3.61339 27.1453 4.0923 28.1071 4.6596 29.0277C4.61063 29.1695 2.60897 35.6829 2.0154 37.6126C1.94494 37.8419 2.15991 38.0546 2.39161 37.986C4.30489 37.42 10.6765 35.5364 11.2844 35.3438C11.4062 35.4088 11.5245 35.4702 11.6391 35.5293C12.4584 35.9547 13.3028 36.3175 14.1496 36.6046C15.8073 37.1683 17.3312 37.4814 18.8062 37.5642C19.2863 37.5913 19.7174 37.6043 20.1235 37.6043C20.9428 37.6043 21.6844 37.5512 22.3903 37.4413C23.0567 37.3385 23.8449 37.2038 24.6392 36.9887C25.9398 36.6365 27.1783 36.1544 28.3224 35.5529C28.7571 35.3249 29.1859 35.085 29.5979 34.8404C30.0291 34.584 30.4136 34.3157 30.803 34.0416C31.5578 33.5074 32.1991 32.9095 32.6745 32.4475C33.5606 31.586 34.3513 30.6123 35.0917 29.4732C36.1583 27.8318 36.9417 26.0735 37.4171 24.2478C37.6965 23.176 37.8542 22.2602 37.9127 21.3656C37.9199 21.2652 37.9306 21.1506 37.9414 21.0277C37.9664 20.7571 37.9963 20.4498 37.9999 20.1048C38.0047 19.768 37.9951 19.4265 37.9736 19.0897C37.9461 18.6643 37.9139 18.2744 37.8769 17.8986C37.8243 17.3739 37.7371 16.8741 37.6583 16.4463C37.5102 15.6321 37.2797 14.786 36.9752 13.9317C36.6921 13.1364 36.3852 12.4215 36.0376 11.7479C35.4596 10.6277 34.7406 9.54408 33.9022 8.52783C33.7876 8.38957 33.6813 8.27376 33.5953 8.18159C33.5618 8.14496 33.5165 8.09651 33.4973 8.07406C33.1283 7.59311 32.6936 7.14289 32.2075 6.73521C32.1072 6.65131 32.0068 6.56505 31.9077 6.47997C31.6521 6.26136 31.3882 6.03447 31.0896 5.80286C30.9654 5.70715 30.8388 5.61025 30.7134 5.51453C30.6238 5.446 30.5343 5.37746 30.4459 5.3101C30.1891 5.11276 29.9323 4.96032 29.7448 4.84925L29.6911 4.81734C29.0605 4.44156 28.3821 4.0457 27.6381 3.70065C27.0529 3.43004 26.5202 3.21261 26.009 3.03654C24.6368 2.56505 23.3218 2.26727 21.9878 2.12665C21.5029 2.07583 20.9965 2.0392 20.3444 2.0073C20.2262 2.00139 20.1032 1.99902 19.979 1.99902L19.9766 2.00021ZM13.9203 15.586L13.9967 15.5553L14.0445 15.3591C14.1078 15.5057 14.1699 15.6534 14.232 15.8023C14.1305 15.9134 14.0265 16.0292 13.9215 16.1497C13.9215 16.1438 13.9191 16.1391 13.9191 16.1331C13.9107 16.0705 13.9143 15.8744 13.9179 15.7314C13.9179 15.6829 13.9203 15.6345 13.9203 15.586ZM25.1408 25.524C25.2721 25.3751 25.3952 25.2274 25.511 25.082C25.6436 25.1482 25.7726 25.2132 25.8992 25.277C25.7236 25.3704 25.4943 25.4566 25.1921 25.5157C25.1766 25.5193 25.1587 25.5216 25.1408 25.524Z" fill="white"/>
<path d="M17.9621 21.5368C18.5664 22.1241 19.2543 22.6039 19.953 23.0718C19.9626 23.1463 19.9637 23.2349 20.076 23.1498C20.0856 23.1546 20.0939 23.1593 20.1035 23.164C20.1142 23.1711 20.1262 23.1782 20.1369 23.1865C20.6648 23.4772 21.1987 23.7537 21.7624 23.9711C21.9009 24.0243 22.0383 24.081 22.1875 24.0999C22.5434 24.146 22.8229 24.016 23.0594 23.7513C23.4034 23.3637 23.7007 22.9407 24.0172 22.533C24.1355 22.3806 24.2573 22.234 24.3934 22.0981C24.4113 22.0899 24.4305 22.0816 24.4484 22.0733C24.704 21.876 24.9798 21.9008 25.2581 22.006C25.6797 22.1643 26.0977 22.3286 26.5002 22.5318C27.2681 22.9182 28.0385 23.3023 28.8112 23.6804C29.0715 23.808 29.1838 23.9971 29.1945 24.2854C29.2172 24.9046 29.0763 25.4896 28.8673 26.0639C28.7503 26.3865 28.5222 26.6311 28.2857 26.8686C27.5775 27.5788 26.708 27.9888 25.7323 28.1826C25.1793 28.2925 24.6192 28.2594 24.0626 28.1578C23.7772 28.1058 23.4881 28.055 23.2135 27.9746C22.8396 27.8659 22.4634 27.7513 22.0968 27.6131C21.5868 27.4193 21.0697 27.2444 20.5669 27.0352C20.1023 26.8414 19.6544 26.6098 19.2089 26.3723C18.7694 26.1371 18.349 25.8689 17.9489 25.5817C17.3781 25.1729 16.8179 24.7439 16.3116 24.2559C15.9413 23.899 15.5663 23.5481 15.2056 23.1829C14.9668 22.9407 14.7458 22.6783 14.5225 22.4207C14.071 21.902 13.6566 21.356 13.2541 20.8006C12.9245 20.3457 12.5901 19.8955 12.307 19.411C11.7911 18.5271 11.3838 17.6006 11.2131 16.5844C11.1545 16.2382 11.1725 15.8907 11.1772 15.5422C11.1844 15.1333 11.2644 14.7339 11.3683 14.3427C11.4256 14.1277 11.4531 13.8961 11.5893 13.7058C11.5988 13.6916 11.6084 13.6763 11.6179 13.6621L11.6131 13.655L11.6179 13.6479C11.6323 13.6432 11.643 13.6361 11.6311 13.6196C11.6335 13.5959 11.6311 13.5699 11.6597 13.5593C11.6669 13.5416 11.6753 13.5238 11.6824 13.5073C11.6896 13.4955 11.6956 13.4825 11.7027 13.4707C11.7517 13.447 11.7624 13.4021 11.7708 13.3549C12.0443 12.8881 12.4026 12.4899 12.7991 12.1247C13.0953 11.8518 13.4631 11.7371 13.8549 11.6662C14.1331 11.6154 14.409 11.6509 14.6849 11.6532C14.8366 11.6544 14.9966 11.671 15.1471 11.7076C15.3931 11.7667 15.5293 11.9522 15.6415 12.1602C15.9736 12.7758 16.2005 13.4352 16.4788 14.0745C16.72 14.6275 16.9481 15.1865 17.1822 15.743C17.267 15.9439 17.2933 16.1566 17.2133 16.3587C17.0843 16.686 16.8872 16.9744 16.6448 17.2331C16.3904 17.5037 16.1324 17.7732 15.8959 18.0591C15.7681 18.2139 15.6774 18.39 15.7777 18.6181C15.8804 18.8497 16.0273 19.0518 16.1527 19.268C16.2065 19.3602 16.2674 19.4476 16.3259 19.5362C16.3342 19.5469 16.3426 19.5575 16.351 19.5693C16.7164 20.0893 17.1141 20.5844 17.5345 21.0618C17.6575 21.2012 17.7806 21.3407 17.9048 21.4801C17.9048 21.5203 17.9263 21.5404 17.9669 21.5404L17.9621 21.5368Z" fill="#FAF9FA"/>
</g>
<defs>
<filter id="filter0_d_268_356" x="0.00180054" y="-0.000976562" width="39.9993" height="40" filterUnits="userSpaceOnUse" color-interpolation-filters="sRGB">
<feFlood flood-opacity="0" result="BackgroundImageFix"/>
<feColorMatrix in="SourceAlpha" type="matrix" values="0 0 0 0 0 0 0 0 0 0 0 0 0 0 0 0 0 0 127 0" result="hardAlpha"/>
<feOffset/>
<feGaussianBlur stdDeviation="1"/>
<feComposite in2="hardAlpha" operator="out"/>
<feColorMatrix type="matrix" values="0 0 0 0 0 0 0 0 0 0 0 0 0 0 0 0 0 0 0.11 0"/>
<feBlend mode="normal" in2="BackgroundImageFix" result="effect1_dropShadow_268_356"/>
<feBlend mode="normal" in="SourceGraphic" in2="effect1_dropShadow_268_356" result="shape"/>
</filter>
</defs>
</svg>
